<?xml version="1.0" encoding="utf-8"?>
<!-- Generator: Adobe Illustrator 15.1.0, SVG Export Plug-In . SVG Version: 6.00 Build 0)  -->
<!DOCTYPE svg PUBLIC "-//W3C//DTD SVG 1.1//EN" "http://www.w3.org/Graphics/SVG/1.1/DTD/svg11.dtd">
<svg version="1.1" id="Layer_1" xmlns="http://www.w3.org/2000/svg" xmlns:xlink="http://www.w3.org/1999/xlink" x="0px" y="0px"
	 width="792px" height="612px" viewBox="0 0 792 612" enable-background="new 0 0 792 612" xml:space="preserve">
<g>
	<path fill="#006CB7" d="M441.351,229.447l-1.413-1.414c-0.617-0.619-1.815-0.552-1.815-0.552h-16.043
		c-1.008,0-1.438,0.578-1.438,1.439v2.306l0.43,1.006l17.127,16.26h2.732c1.008,0,1.44-0.429,1.44-1.437v-15.54
		C442.371,230.063,441.351,229.447,441.351,229.447"/>
	<path fill="#006CB7" d="M475.01,229.447l-1.416-1.414c-0.615-0.619-1.812-0.552-1.812-0.552h-16.043
		c-1.008,0-1.438,0.578-1.438,1.439v2.306l0.43,1.006l17.127,16.26h2.732c1.008,0,1.438-0.429,1.438-1.437v-15.54
		C476.027,230.063,475.01,229.447,475.01,229.447"/>
	<path fill="#006CB7" d="M508.667,229.447l-1.412-1.414c-0.621-0.619-1.815-0.552-1.815-0.552h-16.043
		c-1.005,0-1.439,0.578-1.439,1.439v2.306l0.435,1.006l17.124,16.26h2.735c1.006,0,1.438-0.429,1.438-1.437v-15.54
		C509.688,230.063,508.667,229.447,508.667,229.447"/>
</g>
<g>
	<path fill="#DCDDDE" d="M475.063,195.734l-1.413-1.414c-0.617-0.619-1.815-0.552-1.815-0.552h-16.043
		c-1.008,0-1.438,0.578-1.438,1.439v2.306l0.43,1.006l17.127,16.26h2.732c1.008,0,1.44-0.429,1.44-1.437v-15.54
		C476.084,196.351,475.063,195.734,475.063,195.734"/>
	<path fill="#DCDDDE" d="M508.723,195.734l-1.416-1.414c-0.615-0.619-1.812-0.552-1.812-0.552h-16.043
		c-1.008,0-1.438,0.578-1.438,1.439v2.306l0.43,1.006l17.127,16.26h2.732c1.008,0,1.438-0.429,1.438-1.437v-15.54
		C509.74,196.351,508.723,195.734,508.723,195.734"/>
	<path fill="#DCDDDE" d="M542.38,195.734l-1.412-1.414c-0.621-0.619-1.815-0.552-1.815-0.552h-16.043
		c-1.005,0-1.439,0.578-1.439,1.439v2.306l0.435,1.006l17.124,16.26h2.735c1.006,0,1.438-0.429,1.438-1.437v-15.54
		C543.401,196.351,542.38,195.734,542.38,195.734"/>
</g>
<g>
	<path fill="#DCDDDE" d="M508.572,162.225l-1.413-1.414c-0.617-0.619-1.815-0.552-1.815-0.552h-16.043
		c-1.008,0-1.438,0.578-1.438,1.439v2.306l0.43,1.006l17.127,16.26h2.732c1.008,0,1.44-0.429,1.44-1.437v-15.54
		C509.593,162.842,508.572,162.225,508.572,162.225"/>
	<path fill="#DCDDDE" d="M542.231,162.225l-1.416-1.414c-0.615-0.619-1.812-0.552-1.812-0.552H522.96
		c-1.008,0-1.438,0.578-1.438,1.439v2.306l0.43,1.006l17.127,16.26h2.732c1.008,0,1.438-0.429,1.438-1.437v-15.54
		C543.249,162.842,542.231,162.225,542.231,162.225"/>
	<path fill="#DCDDDE" d="M575.889,162.225l-1.412-1.414c-0.621-0.619-1.815-0.552-1.815-0.552h-16.043
		c-1.005,0-1.439,0.578-1.439,1.439v2.306l0.435,1.006l17.124,16.26h2.735c1.006,0,1.438-0.429,1.438-1.437v-15.54
		C576.91,162.842,575.889,162.225,575.889,162.225"/>
</g>
<g>
	<path fill="#DCDDDE" d="M542.285,128.513l-1.413-1.414c-0.617-0.619-1.815-0.552-1.815-0.552h-16.043
		c-1.008,0-1.438,0.578-1.438,1.439v2.306l0.43,1.006l17.127,16.26h2.732c1.008,0,1.44-0.429,1.44-1.437v-15.54
		C543.306,129.129,542.285,128.513,542.285,128.513"/>
	<path fill="#DCDDDE" d="M575.944,128.513l-1.416-1.414c-0.615-0.619-1.812-0.552-1.812-0.552h-16.043
		c-1.008,0-1.438,0.578-1.438,1.439v2.306l0.43,1.006l17.127,16.26h2.732c1.008,0,1.438-0.429,1.438-1.437v-15.54
		C576.962,129.129,575.944,128.513,575.944,128.513"/>
	<path fill="#DCDDDE" d="M609.602,128.513l-1.412-1.414c-0.621-0.619-1.815-0.552-1.815-0.552h-16.043
		c-1.005,0-1.439,0.578-1.439,1.439v2.306l0.435,1.006l17.124,16.26h2.735c1.006,0,1.438-0.429,1.438-1.437v-15.54
		C610.623,129.129,609.602,128.513,609.602,128.513"/>
</g>
<g>
	<path fill="#DCDDDE" d="M576.285,94.513l-1.413-1.414c-0.617-0.619-1.815-0.552-1.815-0.552h-16.043
		c-1.008,0-1.438,0.578-1.438,1.439v2.306l0.43,1.006l17.127,16.26h2.732c1.008,0,1.44-0.429,1.44-1.437v-15.54
		C577.306,95.129,576.285,94.513,576.285,94.513"/>
	<path fill="#DCDDDE" d="M609.944,94.513l-1.416-1.414c-0.615-0.619-1.812-0.552-1.812-0.552h-16.043
		c-1.008,0-1.438,0.578-1.438,1.439v2.306l0.43,1.006l17.127,16.26h2.732c1.008,0,1.438-0.429,1.438-1.437v-15.54
		C610.962,95.129,609.944,94.513,609.944,94.513"/>
	<path fill="#DCDDDE" d="M643.602,94.513l-1.412-1.414c-0.621-0.619-1.815-0.552-1.815-0.552h-16.043
		c-1.005,0-1.439,0.578-1.439,1.439v2.306l0.435,1.006l17.124,16.26h2.735c1.006,0,1.438-0.429,1.438-1.437v-15.54
		C644.623,95.129,643.602,94.513,643.602,94.513"/>
</g>
<g>
	<path fill="#DCDDDE" d="M610.331,60.467l-1.413-1.414c-0.617-0.619-1.815-0.552-1.815-0.552H591.06
		c-1.008,0-1.438,0.578-1.438,1.439v2.306l0.43,1.006l17.127,16.26h2.732c1.008,0,1.44-0.429,1.44-1.437v-15.54
		C611.352,61.083,610.331,60.467,610.331,60.467"/>
	<path fill="#DCDDDE" d="M643.99,60.467l-1.416-1.414c-0.615-0.619-1.812-0.552-1.812-0.552h-16.043
		c-1.008,0-1.438,0.578-1.438,1.439v2.306l0.43,1.006l17.127,16.26h2.732c1.008,0,1.438-0.429,1.438-1.437v-15.54
		C645.008,61.083,643.99,60.467,643.99,60.467"/>
	<path fill="#DCDDDE" d="M677.647,60.467l-1.412-1.414c-0.621-0.619-1.815-0.552-1.815-0.552h-16.043
		c-1.005,0-1.439,0.578-1.439,1.439v2.306l0.435,1.006l17.124,16.26h2.735c1.006,0,1.438-0.429,1.438-1.437v-15.54
		C678.669,61.083,677.647,60.467,677.647,60.467"/>
</g>
<g>
	<path fill="#DCDDDE" d="M644.331,26.467l-1.413-1.414c-0.617-0.619-1.815-0.552-1.815-0.552H625.06
		c-1.008,0-1.438,0.578-1.438,1.439v2.306l0.43,1.006l17.127,16.26h2.732c1.008,0,1.44-0.429,1.44-1.437v-15.54
		C645.352,27.083,644.331,26.467,644.331,26.467"/>
	<path fill="#DCDDDE" d="M677.99,26.467l-1.416-1.414c-0.615-0.619-1.812-0.552-1.812-0.552h-16.043
		c-1.008,0-1.438,0.578-1.438,1.439v2.306l0.43,1.006l17.127,16.26h2.732c1.008,0,1.438-0.429,1.438-1.437v-15.54
		C679.008,27.083,677.99,26.467,677.99,26.467"/>
	<path fill="#DCDDDE" d="M711.647,26.467l-1.412-1.414c-0.621-0.619-1.815-0.552-1.815-0.552h-16.043
		c-1.005,0-1.439,0.578-1.439,1.439v2.306l0.435,1.006l17.124,16.26h2.735c1.006,0,1.438-0.429,1.438-1.437v-15.54
		C712.669,27.083,711.647,26.467,711.647,26.467"/>
</g>
<path fill="#86888A" d="M292.644,324.227c0,0.828-0.551,1.242-1.517,1.242h-7.02c-0.827,0-1.241-0.277-1.378-0.967l-5.367-18.997
	c-0.142-0.688-0.553-0.827-1.377-0.827h-25.885c-0.829,0-1.24,0.139-1.376,0.827l-5.371,18.997
	c-0.136,0.689-0.688,0.967-1.378,0.967h-7.021c-0.964,0-1.514-0.414-1.514-1.242c0-0.135,0.137-0.275,0.137-0.549l25.472-83.847
	c0.275-0.689,0.55-0.965,1.378-0.965h5.23c0.686,0,1.105,0.276,1.377,0.965l25.471,83.847
	C292.505,323.951,292.644,324.092,292.644,324.227 M264.969,259.657c-0.139-0.551-0.688-2.341-1.513-5.367h-0.553
	c-0.551,2.201-1.1,3.99-1.514,5.367l-9.775,35.385c0,0.272-0.138,0.414-0.138,0.549c0,0.828,0.55,1.241,1.513,1.241h19.827
	c0.963,0,1.514-0.413,1.514-1.241c0-0.135-0.137-0.412-0.137-0.549L264.969,259.657z"/>
<path fill="#86888A" d="M320.182,324.641c-0.411,0.412-0.824,0.688-1.238,0.826h-5.781c-0.55,0-0.964-0.273-1.241-0.826
	l-23.404-58.101c-0.139-0.275-0.274-0.549-0.274-0.824c0-0.688,0.549-1.1,1.513-1.1h6.745c0.411,0,0.831,0.412,1.241,0.823
	l18.037,45.985h0.549l17.9-45.985c0.135-0.55,0.688-0.823,1.238-0.823h6.883c0.965,0,1.518,0.412,1.518,1.1
	c0,0.275-0.14,0.549-0.278,0.824L320.182,324.641z"/>
<path fill="#86888A" d="M391.364,325.469h-5.096c-0.961,0-1.377-0.414-1.377-1.377v-5.922c0-0.963-0.551-1.652-1.098-1.652
	c-1.38,0-3.721,3.029-8.125,6.609c-1.791,1.375-4.546,2.342-6.331,2.342h-5.509c-10.328,0-17.351-6.887-17.351-16.107v-0.83
	c0-9.222,7.022-15.97,17.351-15.97h18.172c0.963,0,1.377-0.412,1.377-1.373l-0.137-5.508c-0.138-8.125-6.194-14.322-14.595-14.322
	c-3.44,0-6.745,1.24-9.225,3.582c-2.892,2.615-3.857,4.68-4.815,4.68c-0.142,0-0.417,0-0.691-0.137l-5.781-3.029
	c-0.553-0.275-0.828-0.553-0.828-0.965c0-4.268,8.259-11.977,21.341-11.977c14.731,0,24.095,8.811,24.095,22.168v38.412
	C392.741,325.055,392.327,325.469,391.364,325.469 M383.378,300.41c0-0.825-0.55-1.376-1.377-1.376h-18.172
	c-4.544,0-8.123,3.578-8.123,8.123v2.205c0,4.543,3.716,8.258,8.123,8.258h5.509c5.504,0,10.186-3.99,13.903-11.839l0.137-2.893
	V300.41z"/>
<path fill="#86888A" d="M430.191,326.706c-10.325,0-20.652-9.226-20.652-22.442v-30.426c0-0.965-0.411-1.377-1.378-1.377h-7.983
	c-0.966,0-1.377-0.413-1.377-1.377v-2.615l15.558-16.385l0.964-0.412h2.204c0.826,0,1.373,0.412,1.373,1.375v10.189
	c0,0.963,0.414,1.379,1.377,1.379h10.053c0.961,0,1.378,0.412,1.378,1.376v5.093c0,0.964-0.417,1.377-1.378,1.377h-10.053
	c-0.963,0-1.377,0.412-1.377,1.377v30.426c0,3.304,0.967,6.195,3.027,9.089c1.516,2.062,4.684,3.166,8.678,5.23
	c0.686,0.273,1.103,0.551,1.103,1.375v5.371C431.707,326.294,431.29,326.706,430.191,326.706"/>
<path fill="#86888A" d="M484.715,325.469h-5.096c-0.962,0-1.378-0.414-1.378-1.377v-5.922c0-0.963-0.553-1.652-1.096-1.652
	c-1.382,0-3.725,3.029-8.126,6.609c-1.788,1.375-4.544,2.342-6.334,2.342h-5.507c-10.327,0-17.348-6.887-17.348-16.107v-0.83
	c0-9.222,7.021-15.97,17.348-15.97h18.175c0.964,0,1.374-0.412,1.374-1.373l-0.135-5.508c-0.14-8.125-6.199-14.322-14.593-14.322
	c-3.446,0-6.751,1.24-9.228,3.582c-2.892,2.615-3.854,4.68-4.818,4.68c-0.139,0-0.414,0-0.691-0.137l-5.781-3.029
	c-0.551-0.275-0.827-0.553-0.827-0.965c0-4.268,8.264-11.977,21.346-11.977c14.728,0,24.092,8.811,24.092,22.168v38.412
	C486.092,325.055,485.681,325.469,484.715,325.469 M476.728,300.41c0-0.825-0.553-1.376-1.374-1.376h-18.175
	c-4.543,0-8.123,3.578-8.123,8.123v2.205c0,4.543,3.717,8.258,8.123,8.258h5.507c5.504,0,10.188-3.99,13.907-11.839l0.135-2.893
	V300.41z"/>
<path fill="#86888A" d="M529.189,274.389c-1.104,0-2.892-0.412-5.231-0.412c-8.4,0-14.596,6.332-14.596,14.455v35.656
	c0,0.965-0.413,1.381-1.377,1.381h-6.61c-0.96,0-1.378-0.416-1.378-1.381v-58.097c0-0.963,0.418-1.375,1.378-1.375h5.097
	c0.963,0,1.377,0.412,1.377,1.375v6.883c0,0.963,0.549,1.516,1.101,1.516c1.513,0,3.718-3.441,8.674-7.438
	c1.515-1.238,4.407-2.336,6.335-2.336h5.095c0.959,0,1.372,0.412,1.372,1.375v7.021
	C530.425,274.113,530.149,274.389,529.189,274.389"/>
</svg>
