<?xml version="1.0" encoding="UTF-8"?>
<svg width="662px" height="303px" viewBox="0 0 662 303" version="1.1" xmlns="http://www.w3.org/2000/svg" xmlns:xlink="http://www.w3.org/1999/xlink">
    <!-- Generator: Sketch 46.2 (44496) - http://www.bohemiancoding.com/sketch -->
    <title>avatar-logo-plus</title>
    <desc>Created with Sketch.</desc>
    <defs></defs>
    <g id="Page-1" stroke="none" stroke-width="1" fill="none" fill-rule="evenodd">
        <g id="avatar-logo-plus" fill-rule="nonzero">
            <g id="Group" transform="translate(369.000000, 203.000000)" fill="#006CB7">
                <path d="M21.351,2.447 L19.938,1.033 C19.321,0.414 18.123,0.481 18.123,0.481 L2.08,0.481 C1.072,0.481 0.642,1.059 0.642,1.92 L0.642,4.226 L1.072,5.232 L18.199,21.492 L20.931,21.492 C21.939,21.492 22.371,21.063 22.371,20.055 L22.371,4.515 C22.371,3.063 21.351,2.447 21.351,2.447" id="Shape"></path>
                <path d="M55.01,2.447 L53.594,1.033 C52.979,0.414 51.782,0.481 51.782,0.481 L35.739,0.481 C34.731,0.481 34.301,1.059 34.301,1.92 L34.301,4.226 L34.731,5.232 L51.858,21.492 L54.59,21.492 C55.598,21.492 56.028,21.063 56.028,20.055 L56.028,4.515 C56.027,3.063 55.01,2.447 55.01,2.447" id="Shape"></path>
                <path d="M88.667,2.447 L87.255,1.033 C86.634,0.414 85.44,0.481 85.44,0.481 L69.397,0.481 C68.392,0.481 67.958,1.059 67.958,1.92 L67.958,4.226 L68.393,5.232 L85.517,21.492 L88.252,21.492 C89.258,21.492 89.69,21.063 89.69,20.055 L89.69,4.515 C89.688,3.063 88.667,2.447 88.667,2.447" id="Shape"></path>
            </g>
            <g id="Group" transform="translate(403.000000, 169.000000)" fill="#DCDDDE">
                <path d="M21.063,2.734 L19.65,1.32 C19.033,0.701 17.835,0.768 17.835,0.768 L1.792,0.768 C0.784,0.768 0.354,1.346 0.354,2.207 L0.354,4.513 L0.784,5.519 L17.911,21.779 L20.643,21.779 C21.651,21.779 22.083,21.35 22.083,20.342 L22.083,4.802 C22.084,3.351 21.063,2.734 21.063,2.734" id="Shape"></path>
                <path d="M54.723,2.734 L53.307,1.32 C52.692,0.701 51.495,0.768 51.495,0.768 L35.452,0.768 C34.444,0.768 34.014,1.346 34.014,2.207 L34.014,4.513 L34.444,5.519 L51.571,21.779 L54.303,21.779 C55.311,21.779 55.741,21.35 55.741,20.342 L55.741,4.802 C55.74,3.351 54.723,2.734 54.723,2.734" id="Shape"></path>
                <path d="M88.38,2.734 L86.968,1.32 C86.347,0.701 85.153,0.768 85.153,0.768 L69.11,0.768 C68.105,0.768 67.671,1.346 67.671,2.207 L67.671,4.513 L68.106,5.519 L85.23,21.779 L87.965,21.779 C88.971,21.779 89.403,21.35 89.403,20.342 L89.403,4.802 C89.401,3.351 88.38,2.734 88.38,2.734" id="Shape"></path>
            </g>
            <g id="Group" transform="translate(436.000000, 136.000000)" fill="#DCDDDE">
                <path d="M21.572,2.225 L20.159,0.811 C19.542,0.192 18.344,0.259 18.344,0.259 L2.301,0.259 C1.293,0.259 0.863,0.837 0.863,1.698 L0.863,4.004 L1.293,5.01 L18.42,21.27 L21.152,21.27 C22.16,21.27 22.592,20.841 22.592,19.833 L22.592,4.293 C22.593,2.842 21.572,2.225 21.572,2.225" id="Shape"></path>
                <path d="M55.231,2.225 L53.815,0.811 C53.2,0.192 52.003,0.259 52.003,0.259 L35.96,0.259 C34.952,0.259 34.522,0.837 34.522,1.698 L34.522,4.004 L34.952,5.01 L52.079,21.27 L54.811,21.27 C55.819,21.27 56.249,20.841 56.249,19.833 L56.249,4.293 C56.249,2.842 55.231,2.225 55.231,2.225" id="Shape"></path>
                <path d="M88.889,2.225 L87.477,0.811 C86.856,0.192 85.662,0.259 85.662,0.259 L69.619,0.259 C68.614,0.259 68.18,0.837 68.18,1.698 L68.18,4.004 L68.615,5.01 L85.739,21.27 L88.474,21.27 C89.48,21.27 89.912,20.841 89.912,19.833 L89.912,4.293 C89.91,2.842 88.889,2.225 88.889,2.225" id="Shape"></path>
            </g>
            <g id="Group" transform="translate(470.000000, 102.000000)" fill="#DCDDDE">
                <path d="M21.285,2.513 L19.872,1.099 C19.255,0.48 18.057,0.547 18.057,0.547 L2.014,0.547 C1.006,0.547 0.576,1.125 0.576,1.986 L0.576,4.292 L1.006,5.298 L18.133,21.558 L20.865,21.558 C21.873,21.558 22.305,21.129 22.305,20.121 L22.305,4.581 C22.306,3.129 21.285,2.513 21.285,2.513" id="Shape"></path>
                <path d="M54.944,2.513 L53.528,1.099 C52.913,0.48 51.716,0.547 51.716,0.547 L35.673,0.547 C34.665,0.547 34.235,1.125 34.235,1.986 L34.235,4.292 L34.665,5.298 L51.792,21.558 L54.524,21.558 C55.532,21.558 55.962,21.129 55.962,20.121 L55.962,4.581 C55.962,3.129 54.944,2.513 54.944,2.513" id="Shape"></path>
                <path d="M88.602,2.513 L87.19,1.099 C86.569,0.48 85.375,0.547 85.375,0.547 L69.332,0.547 C68.327,0.547 67.893,1.125 67.893,1.986 L67.893,4.292 L68.328,5.298 L85.452,21.558 L88.187,21.558 C89.193,21.558 89.625,21.129 89.625,20.121 L89.625,4.581 C89.623,3.129 88.602,2.513 88.602,2.513" id="Shape"></path>
            </g>
            <g id="Group" transform="translate(504.000000, 68.000000)" fill="#DCDDDE">
                <path d="M21.285,2.513 L19.872,1.099 C19.255,0.48 18.057,0.547 18.057,0.547 L2.014,0.547 C1.006,0.547 0.576,1.125 0.576,1.986 L0.576,4.292 L1.006,5.298 L18.133,21.558 L20.865,21.558 C21.873,21.558 22.305,21.129 22.305,20.121 L22.305,4.581 C22.306,3.129 21.285,2.513 21.285,2.513" id="Shape"></path>
                <path d="M54.944,2.513 L53.528,1.099 C52.913,0.48 51.716,0.547 51.716,0.547 L35.673,0.547 C34.665,0.547 34.235,1.125 34.235,1.986 L34.235,4.292 L34.665,5.298 L51.792,21.558 L54.524,21.558 C55.532,21.558 55.962,21.129 55.962,20.121 L55.962,4.581 C55.962,3.129 54.944,2.513 54.944,2.513" id="Shape"></path>
                <path d="M88.602,2.513 L87.19,1.099 C86.569,0.48 85.375,0.547 85.375,0.547 L69.332,0.547 C68.327,0.547 67.893,1.125 67.893,1.986 L67.893,4.292 L68.328,5.298 L85.452,21.558 L88.187,21.558 C89.193,21.558 89.625,21.129 89.625,20.121 L89.625,4.581 C89.623,3.129 88.602,2.513 88.602,2.513" id="Shape"></path>
            </g>
            <g id="Group" transform="translate(538.000000, 34.000000)" fill="#DCDDDE">
                <path d="M21.331,2.467 L19.918,1.053 C19.301,0.434 18.103,0.501 18.103,0.501 L2.06,0.501 C1.052,0.501 0.622,1.079 0.622,1.94 L0.622,4.246 L1.052,5.252 L18.179,21.512 L20.911,21.512 C21.919,21.512 22.351,21.083 22.351,20.075 L22.351,4.535 C22.352,3.083 21.331,2.467 21.331,2.467" id="Shape"></path>
                <path d="M54.99,2.467 L53.574,1.053 C52.959,0.434 51.762,0.501 51.762,0.501 L35.719,0.501 C34.711,0.501 34.281,1.079 34.281,1.94 L34.281,4.246 L34.711,5.252 L51.838,21.512 L54.57,21.512 C55.578,21.512 56.008,21.083 56.008,20.075 L56.008,4.535 C56.008,3.083 54.99,2.467 54.99,2.467" id="Shape"></path>
                <path d="M88.647,2.467 L87.235,1.053 C86.614,0.434 85.42,0.501 85.42,0.501 L69.377,0.501 C68.372,0.501 67.938,1.079 67.938,1.94 L67.938,4.246 L68.373,5.252 L85.497,21.512 L88.232,21.512 C89.238,21.512 89.67,21.083 89.67,20.075 L89.67,4.535 C89.669,3.083 88.647,2.467 88.647,2.467" id="Shape"></path>
            </g>
            <g id="Group" transform="translate(572.000000, 0.000000)" fill="#DCDDDE">
                <path d="M21.331,2.467 L19.918,1.053 C19.301,0.434 18.103,0.501 18.103,0.501 L2.06,0.501 C1.052,0.501 0.622,1.079 0.622,1.94 L0.622,4.246 L1.052,5.252 L18.179,21.512 L20.911,21.512 C21.919,21.512 22.351,21.083 22.351,20.075 L22.351,4.535 C22.352,3.083 21.331,2.467 21.331,2.467" id="Shape"></path>
                <path d="M54.99,2.467 L53.574,1.053 C52.959,0.434 51.762,0.501 51.762,0.501 L35.719,0.501 C34.711,0.501 34.281,1.079 34.281,1.94 L34.281,4.246 L34.711,5.252 L51.838,21.512 L54.57,21.512 C55.578,21.512 56.008,21.083 56.008,20.075 L56.008,4.535 C56.008,3.083 54.99,2.467 54.99,2.467" id="Shape"></path>
                <path d="M88.647,2.467 L87.235,1.053 C86.614,0.434 85.42,0.501 85.42,0.501 L69.377,0.501 C68.372,0.501 67.938,1.079 67.938,1.94 L67.938,4.246 L68.373,5.252 L85.497,21.512 L88.232,21.512 C89.238,21.512 89.67,21.083 89.67,20.075 L89.67,4.535 C89.669,3.083 88.647,2.467 88.647,2.467" id="Shape"></path>
            </g>
            <path d="M241.644,300.227 C241.644,301.055 241.093,301.469 240.127,301.469 L233.107,301.469 C232.28,301.469 231.866,301.192 231.729,300.502 L226.362,281.505 C226.22,280.817 225.809,280.678 224.985,280.678 L199.1,280.678 C198.271,280.678 197.86,280.817 197.724,281.505 L192.353,300.502 C192.217,301.191 191.665,301.469 190.975,301.469 L183.954,301.469 C182.99,301.469 182.44,301.055 182.44,300.227 C182.44,300.092 182.577,299.952 182.577,299.678 L208.049,215.831 C208.324,215.142 208.599,214.866 209.427,214.866 L214.657,214.866 C215.343,214.866 215.762,215.142 216.034,215.831 L241.505,299.678 C241.505,299.951 241.644,300.092 241.644,300.227 L241.644,300.227 Z M213.969,235.657 C213.83,235.106 213.281,233.316 212.456,230.29 L211.903,230.29 C211.352,232.491 210.803,234.28 210.389,235.657 L200.614,271.042 C200.614,271.314 200.476,271.456 200.476,271.591 C200.476,272.419 201.026,272.832 201.989,272.832 L221.816,272.832 C222.779,272.832 223.33,272.419 223.33,271.591 C223.33,271.456 223.193,271.179 223.193,271.042 L213.969,235.657 Z" id="Shape" fill="#86888A"></path>
            <path d="M269.182,300.641 C268.771,301.053 268.358,301.329 267.944,301.467 L262.163,301.467 C261.613,301.467 261.199,301.194 260.922,300.641 L237.518,242.54 C237.379,242.265 237.244,241.991 237.244,241.716 C237.244,241.028 237.793,240.616 238.757,240.616 L245.502,240.616 C245.913,240.616 246.333,241.028 246.743,241.439 L264.78,287.424 L265.329,287.424 L283.229,241.439 C283.364,240.889 283.917,240.616 284.467,240.616 L291.35,240.616 C292.315,240.616 292.868,241.028 292.868,241.716 C292.868,241.991 292.728,242.265 292.59,242.54 L269.182,300.641 Z" id="Shape" fill="#86888A"></path>
            <path d="M340.364,301.469 L335.268,301.469 C334.307,301.469 333.891,301.055 333.891,300.092 L333.891,294.17 C333.891,293.207 333.34,292.518 332.793,292.518 C331.413,292.518 329.072,295.547 324.668,299.127 C322.877,300.502 320.122,301.469 318.337,301.469 L312.828,301.469 C302.5,301.469 295.477,294.582 295.477,285.362 L295.477,284.532 C295.477,275.31 302.499,268.562 312.828,268.562 L331,268.562 C331.963,268.562 332.377,268.15 332.377,267.189 L332.24,261.681 C332.102,253.556 326.046,247.359 317.645,247.359 C314.205,247.359 310.9,248.599 308.42,250.941 C305.528,253.556 304.563,255.621 303.605,255.621 C303.463,255.621 303.188,255.621 302.914,255.484 L297.133,252.455 C296.58,252.18 296.305,251.902 296.305,251.49 C296.305,247.222 304.564,239.513 317.646,239.513 C332.377,239.513 341.741,248.324 341.741,261.681 L341.741,300.093 C341.741,301.055 341.327,301.469 340.364,301.469 L340.364,301.469 Z M332.378,276.41 C332.378,275.585 331.828,275.034 331.001,275.034 L312.829,275.034 C308.285,275.034 304.706,278.612 304.706,283.157 L304.706,285.362 C304.706,289.905 308.422,293.62 312.829,293.62 L318.338,293.62 C323.842,293.62 328.524,289.63 332.241,281.781 L332.378,278.888 L332.378,276.41 Z" id="Shape" fill="#86888A"></path>
            <path d="M379.191,302.706 C368.866,302.706 358.539,293.48 358.539,280.264 L358.539,249.838 C358.539,248.873 358.128,248.461 357.161,248.461 L349.178,248.461 C348.212,248.461 347.801,248.048 347.801,247.084 L347.801,244.469 L363.359,228.084 L364.323,227.672 L366.527,227.672 C367.353,227.672 367.9,228.084 367.9,229.047 L367.9,239.236 C367.9,240.199 368.314,240.615 369.277,240.615 L379.33,240.615 C380.291,240.615 380.708,241.027 380.708,241.991 L380.708,247.084 C380.708,248.048 380.291,248.461 379.33,248.461 L369.277,248.461 C368.314,248.461 367.9,248.873 367.9,249.838 L367.9,280.264 C367.9,283.568 368.867,286.459 370.927,289.353 C372.443,291.415 375.611,292.519 379.605,294.583 C380.291,294.856 380.708,295.134 380.708,295.958 L380.708,301.329 C380.707,302.294 380.29,302.706 379.191,302.706" id="Shape" fill="#86888A"></path>
            <path d="M433.715,301.469 L428.619,301.469 C427.657,301.469 427.241,301.055 427.241,300.092 L427.241,294.17 C427.241,293.207 426.688,292.518 426.145,292.518 C424.763,292.518 422.42,295.547 418.019,299.127 C416.231,300.502 413.475,301.469 411.685,301.469 L406.178,301.469 C395.851,301.469 388.83,294.582 388.83,285.362 L388.83,284.532 C388.83,275.31 395.851,268.562 406.178,268.562 L424.353,268.562 C425.317,268.562 425.727,268.15 425.727,267.189 L425.592,261.681 C425.452,253.556 419.393,247.359 410.999,247.359 C407.553,247.359 404.248,248.599 401.771,250.941 C398.879,253.556 397.917,255.621 396.953,255.621 C396.814,255.621 396.539,255.621 396.262,255.484 L390.481,252.455 C389.93,252.18 389.654,251.902 389.654,251.49 C389.654,247.222 397.918,239.513 411,239.513 C425.728,239.513 435.092,248.324 435.092,261.681 L435.092,300.093 C435.092,301.055 434.681,301.469 433.715,301.469 L433.715,301.469 Z M425.728,276.41 C425.728,275.585 425.175,275.034 424.354,275.034 L406.179,275.034 C401.636,275.034 398.056,278.612 398.056,283.157 L398.056,285.362 C398.056,289.905 401.773,293.62 406.179,293.62 L411.686,293.62 C417.19,293.62 421.874,289.63 425.593,281.781 L425.728,278.888 L425.728,276.41 L425.728,276.41 Z" id="Shape" fill="#86888A"></path>
            <path d="M478.189,250.389 C477.085,250.389 475.297,249.977 472.958,249.977 C464.558,249.977 458.362,256.309 458.362,264.432 L458.362,300.088 C458.362,301.053 457.949,301.469 456.985,301.469 L450.375,301.469 C449.415,301.469 448.997,301.053 448.997,300.088 L448.997,241.991 C448.997,241.028 449.415,240.616 450.375,240.616 L455.472,240.616 C456.435,240.616 456.849,241.028 456.849,241.991 L456.849,248.874 C456.849,249.837 457.398,250.39 457.95,250.39 C459.463,250.39 461.668,246.949 466.624,242.952 C468.139,241.714 471.031,240.616 472.959,240.616 L478.054,240.616 C479.013,240.616 479.426,241.028 479.426,241.991 L479.426,249.012 C479.425,250.113 479.149,250.389 478.189,250.389" id="Shape" fill="#86888A"></path>
        </g>
    </g>
</svg>