<?xml version="1.0" encoding="UTF-8"?>
<svg width="480px" height="303px" viewBox="0 0 480 303" version="1.1" xmlns="http://www.w3.org/2000/svg" xmlns:xlink="http://www.w3.org/1999/xlink">
    <!-- Generator: Sketch 46.2 (44496) - http://www.bohemiancoding.com/sketch -->
    <title>avatar-logo-plus</title>
    <desc>Created with Sketch.</desc>
    <defs></defs>
    <g id="Page-1" stroke="none" stroke-width="1" fill="none" fill-rule="evenodd">
        <g id="avatar-logo-plus" fill-rule="nonzero">
            <g id="Group" transform="translate(187.000000, 203.000000)" fill="#006CB7">
                <path d="M21.351,2.447 L19.938,1.033 C19.321,0.414 18.123,0.481 18.123,0.481 L2.08,0.481 C1.072,0.481 0.642,1.059 0.642,1.92 L0.642,4.226 L1.072,5.232 L18.199,21.492 L20.931,21.492 C21.939,21.492 22.371,21.063 22.371,20.055 L22.371,4.515 C22.371,3.063 21.351,2.447 21.351,2.447" id="Shape"></path>
                <path d="M55.01,2.447 L53.594,1.033 C52.979,0.414 51.782,0.481 51.782,0.481 L35.739,0.481 C34.731,0.481 34.301,1.059 34.301,1.92 L34.301,4.226 L34.731,5.232 L51.858,21.492 L54.59,21.492 C55.598,21.492 56.028,21.063 56.028,20.055 L56.028,4.515 C56.027,3.063 55.01,2.447 55.01,2.447" id="Shape"></path>
                <path d="M88.667,2.447 L87.255,1.033 C86.634,0.414 85.44,0.481 85.44,0.481 L69.397,0.481 C68.392,0.481 67.958,1.059 67.958,1.92 L67.958,4.226 L68.393,5.232 L85.517,21.492 L88.252,21.492 C89.258,21.492 89.69,21.063 89.69,20.055 L89.69,4.515 C89.688,3.063 88.667,2.447 88.667,2.447" id="Shape"></path>
            </g>
            <g id="Group" transform="translate(221.000000, 169.000000)" fill="#DCDDDE">
                <path d="M21.063,2.734 L19.65,1.32 C19.033,0.701 17.835,0.768 17.835,0.768 L1.792,0.768 C0.784,0.768 0.354,1.346 0.354,2.207 L0.354,4.513 L0.784,5.519 L17.911,21.779 L20.643,21.779 C21.651,21.779 22.083,21.35 22.083,20.342 L22.083,4.802 C22.084,3.351 21.063,2.734 21.063,2.734" id="Shape"></path>
                <path d="M54.723,2.734 L53.307,1.32 C52.692,0.701 51.495,0.768 51.495,0.768 L35.452,0.768 C34.444,0.768 34.014,1.346 34.014,2.207 L34.014,4.513 L34.444,5.519 L51.571,21.779 L54.303,21.779 C55.311,21.779 55.741,21.35 55.741,20.342 L55.741,4.802 C55.74,3.351 54.723,2.734 54.723,2.734" id="Shape"></path>
                <path d="M88.38,2.734 L86.968,1.32 C86.347,0.701 85.153,0.768 85.153,0.768 L69.11,0.768 C68.105,0.768 67.671,1.346 67.671,2.207 L67.671,4.513 L68.106,5.519 L85.23,21.779 L87.965,21.779 C88.971,21.779 89.403,21.35 89.403,20.342 L89.403,4.802 C89.401,3.351 88.38,2.734 88.38,2.734" id="Shape"></path>
            </g>
            <g id="Group" transform="translate(254.000000, 136.000000)" fill="#DCDDDE">
                <path d="M21.572,2.225 L20.159,0.811 C19.542,0.192 18.344,0.259 18.344,0.259 L2.301,0.259 C1.293,0.259 0.863,0.837 0.863,1.698 L0.863,4.004 L1.293,5.01 L18.42,21.27 L21.152,21.27 C22.16,21.27 22.592,20.841 22.592,19.833 L22.592,4.293 C22.593,2.842 21.572,2.225 21.572,2.225" id="Shape"></path>
                <path d="M55.231,2.225 L53.815,0.811 C53.2,0.192 52.003,0.259 52.003,0.259 L35.96,0.259 C34.952,0.259 34.522,0.837 34.522,1.698 L34.522,4.004 L34.952,5.01 L52.079,21.27 L54.811,21.27 C55.819,21.27 56.249,20.841 56.249,19.833 L56.249,4.293 C56.249,2.842 55.231,2.225 55.231,2.225" id="Shape"></path>
                <path d="M88.889,2.225 L87.477,0.811 C86.856,0.192 85.662,0.259 85.662,0.259 L69.619,0.259 C68.614,0.259 68.18,0.837 68.18,1.698 L68.18,4.004 L68.615,5.01 L85.739,21.27 L88.474,21.27 C89.48,21.27 89.912,20.841 89.912,19.833 L89.912,4.293 C89.91,2.842 88.889,2.225 88.889,2.225" id="Shape"></path>
            </g>
            <g id="Group" transform="translate(288.000000, 102.000000)" fill="#DCDDDE">
                <path d="M21.285,2.513 L19.872,1.099 C19.255,0.48 18.057,0.547 18.057,0.547 L2.014,0.547 C1.006,0.547 0.576,1.125 0.576,1.986 L0.576,4.292 L1.006,5.298 L18.133,21.558 L20.865,21.558 C21.873,21.558 22.305,21.129 22.305,20.121 L22.305,4.581 C22.306,3.129 21.285,2.513 21.285,2.513" id="Shape"></path>
                <path d="M54.944,2.513 L53.528,1.099 C52.913,0.48 51.716,0.547 51.716,0.547 L35.673,0.547 C34.665,0.547 34.235,1.125 34.235,1.986 L34.235,4.292 L34.665,5.298 L51.792,21.558 L54.524,21.558 C55.532,21.558 55.962,21.129 55.962,20.121 L55.962,4.581 C55.962,3.129 54.944,2.513 54.944,2.513" id="Shape"></path>
                <path d="M88.602,2.513 L87.19,1.099 C86.569,0.48 85.375,0.547 85.375,0.547 L69.332,0.547 C68.327,0.547 67.893,1.125 67.893,1.986 L67.893,4.292 L68.328,5.298 L85.452,21.558 L88.187,21.558 C89.193,21.558 89.625,21.129 89.625,20.121 L89.625,4.581 C89.623,3.129 88.602,2.513 88.602,2.513" id="Shape"></path>
            </g>
            <g id="Group" transform="translate(322.000000, 68.000000)" fill="#DCDDDE">
                <path d="M21.285,2.513 L19.872,1.099 C19.255,0.48 18.057,0.547 18.057,0.547 L2.014,0.547 C1.006,0.547 0.576,1.125 0.576,1.986 L0.576,4.292 L1.006,5.298 L18.133,21.558 L20.865,21.558 C21.873,21.558 22.305,21.129 22.305,20.121 L22.305,4.581 C22.306,3.129 21.285,2.513 21.285,2.513" id="Shape"></path>
                <path d="M54.944,2.513 L53.528,1.099 C52.913,0.48 51.716,0.547 51.716,0.547 L35.673,0.547 C34.665,0.547 34.235,1.125 34.235,1.986 L34.235,4.292 L34.665,5.298 L51.792,21.558 L54.524,21.558 C55.532,21.558 55.962,21.129 55.962,20.121 L55.962,4.581 C55.962,3.129 54.944,2.513 54.944,2.513" id="Shape"></path>
                <path d="M88.602,2.513 L87.19,1.099 C86.569,0.48 85.375,0.547 85.375,0.547 L69.332,0.547 C68.327,0.547 67.893,1.125 67.893,1.986 L67.893,4.292 L68.328,5.298 L85.452,21.558 L88.187,21.558 C89.193,21.558 89.625,21.129 89.625,20.121 L89.625,4.581 C89.623,3.129 88.602,2.513 88.602,2.513" id="Shape"></path>
            </g>
            <g id="Group" transform="translate(356.000000, 34.000000)" fill="#DCDDDE">
                <path d="M21.331,2.467 L19.918,1.053 C19.301,0.434 18.103,0.501 18.103,0.501 L2.06,0.501 C1.052,0.501 0.622,1.079 0.622,1.94 L0.622,4.246 L1.052,5.252 L18.179,21.512 L20.911,21.512 C21.919,21.512 22.351,21.083 22.351,20.075 L22.351,4.535 C22.352,3.083 21.331,2.467 21.331,2.467" id="Shape"></path>
                <path d="M54.99,2.467 L53.574,1.053 C52.959,0.434 51.762,0.501 51.762,0.501 L35.719,0.501 C34.711,0.501 34.281,1.079 34.281,1.94 L34.281,4.246 L34.711,5.252 L51.838,21.512 L54.57,21.512 C55.578,21.512 56.008,21.083 56.008,20.075 L56.008,4.535 C56.008,3.083 54.99,2.467 54.99,2.467" id="Shape"></path>
                <path d="M88.647,2.467 L87.235,1.053 C86.614,0.434 85.42,0.501 85.42,0.501 L69.377,0.501 C68.372,0.501 67.938,1.079 67.938,1.94 L67.938,4.246 L68.373,5.252 L85.497,21.512 L88.232,21.512 C89.238,21.512 89.67,21.083 89.67,20.075 L89.67,4.535 C89.669,3.083 88.647,2.467 88.647,2.467" id="Shape"></path>
            </g>
            <g id="Group" transform="translate(390.000000, 0.000000)" fill="#DCDDDE">
                <path d="M21.331,2.467 L19.918,1.053 C19.301,0.434 18.103,0.501 18.103,0.501 L2.06,0.501 C1.052,0.501 0.622,1.079 0.622,1.94 L0.622,4.246 L1.052,5.252 L18.179,21.512 L20.911,21.512 C21.919,21.512 22.351,21.083 22.351,20.075 L22.351,4.535 C22.352,3.083 21.331,2.467 21.331,2.467" id="Shape"></path>
                <path d="M54.99,2.467 L53.574,1.053 C52.959,0.434 51.762,0.501 51.762,0.501 L35.719,0.501 C34.711,0.501 34.281,1.079 34.281,1.94 L34.281,4.246 L34.711,5.252 L51.838,21.512 L54.57,21.512 C55.578,21.512 56.008,21.083 56.008,20.075 L56.008,4.535 C56.008,3.083 54.99,2.467 54.99,2.467" id="Shape"></path>
                <path d="M88.647,2.467 L87.235,1.053 C86.614,0.434 85.42,0.501 85.42,0.501 L69.377,0.501 C68.372,0.501 67.938,1.079 67.938,1.94 L67.938,4.246 L68.373,5.252 L85.497,21.512 L88.232,21.512 C89.238,21.512 89.67,21.083 89.67,20.075 L89.67,4.535 C89.669,3.083 88.647,2.467 88.647,2.467" id="Shape"></path>
            </g>
            <path d="M59.644,300.227 C59.644,301.055 59.093,301.469 58.127,301.469 L51.107,301.469 C50.28,301.469 49.866,301.192 49.729,300.502 L44.362,281.505 C44.22,280.817 43.809,280.678 42.985,280.678 L17.1,280.678 C16.271,280.678 15.86,280.817 15.724,281.505 L10.353,300.502 C10.217,301.191 9.665,301.469 8.975,301.469 L1.954,301.469 C0.99,301.469 0.44,301.055 0.44,300.227 C0.44,300.092 0.577,299.952 0.577,299.678 L26.049,215.831 C26.324,215.142 26.599,214.866 27.427,214.866 L32.657,214.866 C33.343,214.866 33.762,215.142 34.034,215.831 L59.505,299.678 C59.505,299.951 59.644,300.092 59.644,300.227 L59.644,300.227 Z M31.969,235.657 C31.83,235.106 31.281,233.316 30.456,230.29 L29.903,230.29 C29.352,232.491 28.803,234.28 28.389,235.657 L18.614,271.042 C18.614,271.314 18.476,271.456 18.476,271.591 C18.476,272.419 19.026,272.832 19.989,272.832 L39.816,272.832 C40.779,272.832 41.33,272.419 41.33,271.591 C41.33,271.456 41.193,271.179 41.193,271.042 L31.969,235.657 Z" id="Shape" fill="#86888A"></path>
            <path d="M87.182,300.641 C86.771,301.053 86.358,301.329 85.944,301.467 L80.163,301.467 C79.613,301.467 79.199,301.194 78.922,300.641 L55.518,242.54 C55.379,242.265 55.244,241.991 55.244,241.716 C55.244,241.028 55.793,240.616 56.757,240.616 L63.502,240.616 C63.913,240.616 64.333,241.028 64.743,241.439 L82.78,287.424 L83.329,287.424 L101.229,241.439 C101.364,240.889 101.917,240.616 102.467,240.616 L109.35,240.616 C110.315,240.616 110.868,241.028 110.868,241.716 C110.868,241.991 110.728,242.265 110.59,242.54 L87.182,300.641 Z" id="Shape" fill="#86888A"></path>
            <path d="M158.364,301.469 L153.268,301.469 C152.307,301.469 151.891,301.055 151.891,300.092 L151.891,294.17 C151.891,293.207 151.34,292.518 150.793,292.518 C149.413,292.518 147.072,295.547 142.668,299.127 C140.877,300.502 138.122,301.469 136.337,301.469 L130.828,301.469 C120.5,301.469 113.477,294.582 113.477,285.362 L113.477,284.532 C113.477,275.31 120.499,268.562 130.828,268.562 L149,268.562 C149.963,268.562 150.377,268.15 150.377,267.189 L150.24,261.681 C150.102,253.556 144.046,247.359 135.645,247.359 C132.205,247.359 128.9,248.599 126.42,250.941 C123.528,253.556 122.563,255.621 121.605,255.621 C121.463,255.621 121.188,255.621 120.914,255.484 L115.133,252.455 C114.58,252.18 114.305,251.902 114.305,251.49 C114.305,247.222 122.564,239.513 135.646,239.513 C150.377,239.513 159.741,248.324 159.741,261.681 L159.741,300.093 C159.741,301.055 159.327,301.469 158.364,301.469 L158.364,301.469 Z M150.378,276.41 C150.378,275.585 149.828,275.034 149.001,275.034 L130.829,275.034 C126.285,275.034 122.706,278.612 122.706,283.157 L122.706,285.362 C122.706,289.905 126.422,293.62 130.829,293.62 L136.338,293.62 C141.842,293.62 146.524,289.63 150.241,281.781 L150.378,278.888 L150.378,276.41 Z" id="Shape" fill="#86888A"></path>
            <path d="M197.191,302.706 C186.866,302.706 176.539,293.48 176.539,280.264 L176.539,249.838 C176.539,248.873 176.128,248.461 175.161,248.461 L167.178,248.461 C166.212,248.461 165.801,248.048 165.801,247.084 L165.801,244.469 L181.359,228.084 L182.323,227.672 L184.527,227.672 C185.353,227.672 185.9,228.084 185.9,229.047 L185.9,239.236 C185.9,240.199 186.314,240.615 187.277,240.615 L197.33,240.615 C198.291,240.615 198.708,241.027 198.708,241.991 L198.708,247.084 C198.708,248.048 198.291,248.461 197.33,248.461 L187.277,248.461 C186.314,248.461 185.9,248.873 185.9,249.838 L185.9,280.264 C185.9,283.568 186.867,286.459 188.927,289.353 C190.443,291.415 193.611,292.519 197.605,294.583 C198.291,294.856 198.708,295.134 198.708,295.958 L198.708,301.329 C198.707,302.294 198.29,302.706 197.191,302.706" id="Shape" fill="#86888A"></path>
            <path d="M251.715,301.469 L246.619,301.469 C245.657,301.469 245.241,301.055 245.241,300.092 L245.241,294.17 C245.241,293.207 244.688,292.518 244.145,292.518 C242.763,292.518 240.42,295.547 236.019,299.127 C234.231,300.502 231.475,301.469 229.685,301.469 L224.178,301.469 C213.851,301.469 206.83,294.582 206.83,285.362 L206.83,284.532 C206.83,275.31 213.851,268.562 224.178,268.562 L242.353,268.562 C243.317,268.562 243.727,268.15 243.727,267.189 L243.592,261.681 C243.452,253.556 237.393,247.359 228.999,247.359 C225.553,247.359 222.248,248.599 219.771,250.941 C216.879,253.556 215.917,255.621 214.953,255.621 C214.814,255.621 214.539,255.621 214.262,255.484 L208.481,252.455 C207.93,252.18 207.654,251.902 207.654,251.49 C207.654,247.222 215.918,239.513 229,239.513 C243.728,239.513 253.092,248.324 253.092,261.681 L253.092,300.093 C253.092,301.055 252.681,301.469 251.715,301.469 L251.715,301.469 Z M243.728,276.41 C243.728,275.585 243.175,275.034 242.354,275.034 L224.179,275.034 C219.636,275.034 216.056,278.612 216.056,283.157 L216.056,285.362 C216.056,289.905 219.773,293.62 224.179,293.62 L229.686,293.62 C235.19,293.62 239.874,289.63 243.593,281.781 L243.728,278.888 L243.728,276.41 L243.728,276.41 Z" id="Shape" fill="#86888A"></path>
            <path d="M296.189,250.389 C295.085,250.389 293.297,249.977 290.958,249.977 C282.558,249.977 276.362,256.309 276.362,264.432 L276.362,300.088 C276.362,301.053 275.949,301.469 274.985,301.469 L268.375,301.469 C267.415,301.469 266.997,301.053 266.997,300.088 L266.997,241.991 C266.997,241.028 267.415,240.616 268.375,240.616 L273.472,240.616 C274.435,240.616 274.849,241.028 274.849,241.991 L274.849,248.874 C274.849,249.837 275.398,250.39 275.95,250.39 C277.463,250.39 279.668,246.949 284.624,242.952 C286.139,241.714 289.031,240.616 290.959,240.616 L296.054,240.616 C297.013,240.616 297.426,241.028 297.426,241.991 L297.426,249.012 C297.425,250.113 297.149,250.389 296.189,250.389" id="Shape" fill="#86888A"></path>
        </g>
    </g>
</svg>