<?xml version="1.0" standalone="no"?>
<!DOCTYPE svg PUBLIC "-//W3C//DTD SVG 1.1//EN" "http://www.w3.org/Graphics/SVG/1.1/DTD/svg11.dtd" >
<svg xmlns="http://www.w3.org/2000/svg" xmlns:xlink="http://www.w3.org/1999/xlink" version="1.1">
<metadata>
Created by FontForge 20161013 at Wed Oct  4 21:11:36 2017
 By ,,,
Copyright (c) 2002 Agfa Monotype Corporation. All rights reserved. ITC Conduit is designed by Mark van Bronkhorst, MvB Design. ITC Conduit is a trademark of International Typeface Corporation.
</metadata>
<defs>
<font id="ConduitMdITCTTMedium" horiz-adv-x="1044" >
  <font-face 
    font-family="ConduitMdITC TT"
    font-weight="400"
    font-stretch="normal"
    units-per-em="2048"
    panose-1="0 0 5 0 0 0 0 0 0 0"
    ascent="1550"
    descent="-498"
    x-height="920"
    cap-height="1290"
    bbox="-143 -481 1663 1878"
    underline-thickness="123"
    underline-position="-412"
    unicode-range="U+0020-F002"
  />
<missing-glyph horiz-adv-x="1024" 
d="M128 0v1550h768v-1550h-768zM256 128h512v1294h-512v-1294z" />
    <glyph glyph-name=".notdef" horiz-adv-x="1024" 
d="M128 0v1550h768v-1550h-768zM256 128h512v1294h-512v-1294z" />
    <glyph glyph-name=".null" horiz-adv-x="0" 
 />
    <glyph glyph-name="nonmarkingreturn" horiz-adv-x="360" 
 />
    <glyph glyph-name="space" unicode=" " horiz-adv-x="360" 
 />
    <glyph glyph-name="exclam" unicode="!" horiz-adv-x="614" 
d="M399 741l-43 -354q-2 -18 -20 -18h-55q-19 0 -21 18l-45 354v529q0 20 21 20h143q20 0 20 -20v-529zM420 92q0 -47 -32.5 -79.5t-80.5 -32.5q-47 0 -79.5 32.5t-32.5 79.5q0 48 32.5 80.5t79.5 32.5q48 0 80.5 -32.5t32.5 -80.5z" />
    <glyph glyph-name="quotedbl" unicode="&#x22;" horiz-adv-x="635" 
d="M551 1272q0 -4 -6 -53l-35 -279q-2 -18 -21 -18h-55q-18 0 -20 18l-37 281q-6 46 -6 51q0 18 20 18h139q21 0 21 -18zM264 1272q0 -4 -6 -53l-35 -279q-2 -18 -20 -18h-56q-18 0 -20 18l-37 281q-6 46 -6 51q0 18 20 18h140q20 0 20 -18z" />
    <glyph glyph-name="numbersign" unicode="#" horiz-adv-x="1149" 
d="M1075 909q0 3 -10 -37l-25 -94q-5 -20 -26 -20h-140q-16 0 -20 -13l-45 -155q-10 -36 -10 -39q0 -19 22 -19h144q16 0 16 -12q0 3 -10 -37l-25 -94q-5 -20 -26 -20h-156q-17 0 -21 -13l-98 -342q-4 -14 -20 -14h-68q-22 0 -22 18q0 2 10 39l71 258l11 37q0 17 -23 17
h-231q-17 0 -21 -13l-96 -342q-4 -14 -20 -14h-68q-23 0 -23 18q0 4 11 39l73 258q11 36 11 37q0 17 -23 17h-127q-16 0 -16 12l10 39l25 92q5 20 26 20h139q16 0 21 17l45 156q10 35 10 36q0 17 -22 17h-144q-16 0 -16 12q0 1 10 39l25 92q5 21 26 21h158q16 0 21 16
l96 338q4 14 20 14h68q22 0 22 -18l-10 -37l-72 -256q-10 -37 -10 -39q0 -18 23 -18h229q16 0 21 16l98 338q4 14 20 14h68q23 0 23 -18l-11 -37l-71 -256q-11 -37 -11 -39q0 -18 23 -18h125q16 0 16 -13zM737 741q0 17 -22 17h-230q-17 0 -20 -13l-45 -155q-10 -36 -10 -39
q0 -19 22 -19h232q16 0 20 17l43 156q10 37 10 36z" />
    <glyph glyph-name="dollar" unicode="$" 
d="M924 328q0 -145 -90 -239t-242 -107q-17 -2 -17 -21v-63q0 -21 -20 -21h-51q-21 0 -21 21v61q0 21 -14 21q-195 0 -293 126q-47 62 -47 84q0 9 12 15l117 59q21 8 23 8q12 0 18 -12q57 -117 166 -117q18 0 18 21v397q0 13 -12 19q-152 69 -216 131q-101 98 -101 252
q0 140 83.5 234.5t225.5 109.5q20 2 20 20v66q0 20 21 20h51q20 0 20 -20v-64q0 -19 17 -20q166 -13 256 -123q49 -60 49 -82q0 -10 -12 -17l-109 -55q-28 -14 -33 -14q-10 0 -16 12q-24 48 -63 78q-46 35 -72 35q-17 0 -17 -23v-360q0 -13 13 -19q159 -71 228 -139
q108 -106 108 -274zM483 825v289q0 21 -16 21q-26 0 -61 -29q-68 -55 -68 -143q0 -69 63 -121q47 -39 66 -39q16 0 16 22zM739 328q0 87 -77 147q-53 41 -70 41t-17 -22v-326q0 -21 17 -21q47 0 94 51q53 57 53 130z" />
    <glyph glyph-name="percent" unicode="%" 
d="M471 905q0 -82 -52.5 -133t-142.5 -51q-88 0 -141 51t-53 133v199q0 82 53 134t141 52q89 0 142 -51t53 -133v-201zM850 1274q0 -8 -25 -66l-512 -1196q-5 -12 -18 -12h-80q-20 0 -20 16q0 7 16 45l520 1217q5 12 19 12h79q21 0 21 -16zM963 184q0 -82 -53.5 -133
t-141.5 -51t-141.5 51t-53.5 133v201q0 82 53.5 133t141.5 51t141.5 -51t53.5 -133v-201zM336 905v201q0 23 -18 41t-42 18q-57 0 -57 -59v-201q0 -57 57 -57q24 0 42 17t18 40zM825 184v201q0 59 -57 59t-57 -59v-201q0 -57 57 -57t57 57z" />
    <glyph glyph-name="ampersand" unicode="&#x26;" horiz-adv-x="1270" 
d="M1229 2q0 -20 -21 -20q-164 0 -307 129q-20 18 -29 18q-6 0 -20 -18q-98 -131 -299 -131h-61q-170 0 -269.5 98t-99.5 266v51q0 62 39.5 137t89.5 109q12 9 12 18q0 8 -10 17q-131 116 -131 268q0 167 99.5 267t269.5 100q168 0 268 -100t100 -269v-41q0 -69 -46 -143
q-51 -83 -126 -113q-14 -6 -14 -20q0 -12 12 -21q20 -13 109 -102q10 -10 18 -10q11 0 16 18q72 227 342 227h37q21 0 21 -20v-144q0 -20 -21 -20h-53q-142 0 -184 -184l-6 -27q-4 -17 12 -33q123 -120 235 -143q17 -3 17 -21v-143zM676 922v41q0 75 -54.5 129.5
t-129.5 54.5q-76 0 -130.5 -54.5t-54.5 -129.5q0 -107 156 -215q20 -15 35 -15t39 8q139 50 139 181zM737 274q0 7 -20 31q-97 116 -158 164q-43 34 -115 76q-24 14 -30 14q-7 0 -29 -16q-78 -59 -78 -154v-61q0 -76 54.5 -130.5t130.5 -54.5h61q98 0 164 90q20 29 20 41z
" />
    <glyph glyph-name="quotesingle" unicode="'" horiz-adv-x="348" 
d="M264 1272q0 -4 -6 -53l-35 -279q-2 -18 -20 -18h-56q-18 0 -20 18l-37 281q-6 46 -6 51q0 18 20 18h140q20 0 20 -18z" />
    <glyph glyph-name="parenleft" unicode="(" horiz-adv-x="782" 
d="M614 -346q0 -21 -20 -21q-100 0 -188 54q-160 96 -160 313v1126q0 242 190 330q80 37 158 37q20 0 20 -20v-123q0 -18 -16 -21q-76 -12 -122 -63.5t-46 -118.5v-1167q0 -68 46 -119t122 -64q16 -2 16 -20v-123z" />
    <glyph glyph-name="parenright" unicode=")" horiz-adv-x="782" 
d="M537 0q0 -217 -160 -313q-89 -54 -189 -54q-20 0 -20 21v123q0 18 16 20q76 13 122 64t46 119v1167q0 67 -46 118.5t-122 63.5q-16 3 -16 21v123q0 20 20 20q78 0 158 -37q191 -88 191 -330v-1126z" />
    <glyph glyph-name="asterisk" unicode="*" horiz-adv-x="795" 
d="M737 948q0 -5 -10 -22l-47 -80q-6 -10 -16 -10q-11 0 -15 4l-170 116q-9 7 -16 7q-17 0 -17 -21q0 -5 5 -39l14 -119q6 -51 6 -55q0 -18 -20 -18h-107q-20 0 -20 18q0 4 6 55l14 121q4 35 4 37q0 21 -16 21q-8 0 -17 -7l-163 -116q-9 -6 -15 -6q-9 0 -16 12l-47 82
q-11 18 -11 22q0 11 15 17l188 80q17 6 17 18q0 11 -17 18l-188 84q-15 7 -15 17q0 5 11 22l47 80q7 12 16 12q6 0 15 -6l161 -121q9 -6 17 -6q16 0 16 21q0 4 -4 41l-12 110q-6 56 -6 60q0 18 20 18h107q20 0 20 -18q0 -7 -6 -62l-12 -108q-4 -36 -4 -41q0 -21 16 -21
q8 0 16 6l168 121q6 6 15 6t16 -12l47 -80q10 -13 10 -22q0 -10 -14 -17l-193 -84q-14 -6 -14 -18t14 -18l193 -82q14 -6 14 -17z" />
    <glyph glyph-name="plus" unicode="+" 
d="M952 451q0 -21 -20 -21h-328q-20 0 -20 -20v-328q0 -21 -21 -21h-82q-20 0 -20 21v328q0 20 -21 20h-327q-21 0 -21 21v81q0 21 21 21h327q21 0 21 20v328q0 21 20 21h82q21 0 21 -21v-328q0 -20 20 -20h328q20 0 20 -21v-81z" />
    <glyph glyph-name="comma" unicode="," horiz-adv-x="451" 
d="M338 74q0 -183 -107 -281q-64 -59 -92 -59q-9 0 -16 14l-23 45q-8 17 -8 25q0 9 8 14q80 54 80 182q0 19 -20 19h-27q-20 0 -20 20v148q0 20 20 20h184q21 0 21 -20v-127z" />
    <glyph glyph-name="hyphen" unicode="-" horiz-adv-x="553" 
d="M461 389q0 -20 -21 -20h-327q-21 0 -21 20v143q0 21 21 21h327q21 0 21 -21v-143z" />
    <glyph glyph-name="hyphen" unicode="&#x2010;" horiz-adv-x="553" 
d="M461 389q0 -20 -21 -20h-327q-21 0 -21 20v143q0 21 21 21h327q21 0 21 -21v-143z" />
    <glyph glyph-name="period" unicode="." horiz-adv-x="451" 
d="M354 92q0 -47 -32.5 -79.5t-79.5 -32.5q-48 0 -80.5 32.5t-32.5 79.5q0 48 32.5 80.5t80.5 32.5q47 0 79.5 -32.5t32.5 -80.5z" />
    <glyph glyph-name="slash" unicode="/" horiz-adv-x="666" 
d="M655 1274q0 -8 -12 -37l-524 -1225q-5 -12 -19 -12h-69q-21 0 -21 16q0 8 27 70l510 1192q5 12 18 12h70q20 0 20 -16z" />
    <glyph glyph-name="zero" unicode="0" 
d="M922 328q0 -155 -101 -251.5t-268 -96.5h-61q-168 0 -268.5 96.5t-100.5 251.5v635q0 155 100.5 251.5t268.5 96.5h61q167 0 268 -96.5t101 -251.5v-635zM737 328v635q0 75 -54.5 129.5t-129.5 54.5h-61q-76 0 -130.5 -54.5t-54.5 -129.5v-635q0 -76 54.5 -130.5
t130.5 -54.5h61q75 0 129.5 54.5t54.5 130.5z" />
    <glyph glyph-name="one" unicode="1" 
d="M897 20q0 -20 -20 -20h-635q-21 0 -21 20v123q0 21 21 21h204q21 0 21 20v740q0 22 -16 22q-11 0 -19 -8l-94 -96q-8 -13 -19 -13q-1 0 -16 11l-88 86q-8 5 -8 14q0 6 8 14l324 324q12 12 24 12h68q20 0 20 -20v-1086q0 -20 21 -20h205q20 0 20 -21v-123z" />
    <glyph glyph-name="two" unicode="2" 
d="M907 963q0 -159 -106 -271q-60 -63 -223 -162q-122 -73 -168 -120q-72 -75 -72 -172v-54q0 -20 20 -20h512q21 0 21 -21v-123q0 -20 -21 -20h-696q-20 0 -20 20v218q0 161 96 279q67 82 209 169q149 92 182 120q82 70 82 157q0 75 -54.5 129.5t-129.5 54.5h-78
q-114 0 -170 -115q-6 -12 -19 -12q-6 0 -26 10l-113 57q-12 7 -12 17q0 13 29 55q102 152 311 152h78q167 0 267.5 -96.5t100.5 -251.5z" />
    <glyph glyph-name="three" unicode="3" 
d="M891 344q0 -168 -99.5 -266t-269.5 -98h-61q-183 0 -281 112q-59 69 -59 98q0 9 12 15l113 57q24 12 28 12q10 0 17 -14q53 -117 170 -117h61q76 0 130.5 54.5t54.5 130.5v71q0 76 -54.5 130.5t-130.5 54.5h-164q-20 0 -20 20v123q0 21 20 21h164q76 0 130.5 54.5
t54.5 129.5v31q0 75 -54.5 129.5t-130.5 54.5h-61q-114 0 -170 -115q-6 -12 -19 -12q-6 0 -30 12l-109 55q-12 7 -12 17q0 14 33 61q100 146 307 146h61q169 0 269 -100t100 -269v-31q0 -60 -39 -128t-90 -103q-10 -5 -10 -16q0 -7 10 -17q50 -38 89 -108q40 -73 40 -133
v-62z" />
    <glyph glyph-name="four" unicode="4" 
d="M983 317q0 -20 -20 -20h-144q-20 0 -20 -21v-256q0 -20 -21 -20h-143q-21 0 -21 20v256q0 21 -20 21h-512q-21 0 -21 18q0 -14 5 146l542 821q8 8 17 8h153q21 0 21 -20v-789q0 -20 20 -20h144q20 0 20 -21v-123zM614 481v465q0 25 -18 25q-10 0 -18 -13l-293 -440
q-23 -34 -23 -41q0 -16 23 -16h309q20 0 20 20z" />
    <glyph glyph-name="five" unicode="5" 
d="M907 344q0 -168 -99.5 -266t-268.5 -98h-62q-193 0 -291 124q-49 63 -49 86q0 9 13 15l108 55q28 14 33 14q10 0 16 -14q53 -117 170 -117h62q75 0 129.5 54.5t54.5 130.5v71q0 76 -54.5 130.5t-129.5 54.5h-328q-21 0 -21 20v666q0 20 21 20h655q21 0 21 -20v-123
q0 -21 -21 -21h-471q-20 0 -20 -20v-338q0 -20 20 -20h144q169 0 268.5 -98.5t99.5 -266.5v-39z" />
    <glyph glyph-name="six" unicode="6" 
d="M938 328q0 -155 -100.5 -251.5t-268.5 -96.5h-61q-168 0 -268.5 96.5t-100.5 251.5v635q0 155 100.5 251.5t268.5 96.5h61q201 0 303 -137q39 -52 39 -70q0 -10 -12 -17l-108 -55q-29 -14 -33 -14q-10 0 -17 14q-52 115 -172 115h-61q-75 0 -129.5 -54.5t-54.5 -129.5
v-250q0 -25 16 -25q4 0 16 8q75 62 172 62h62q148 0 248 -98.5t100 -249.5v-82zM754 328v82q0 75 -54.5 129.5t-130.5 54.5h-61q-75 0 -129.5 -54.5t-54.5 -129.5v-82q0 -76 54.5 -130.5t129.5 -54.5h61q76 0 130.5 54.5t54.5 130.5z" />
    <glyph glyph-name="seven" unicode="7" 
d="M895 1053q0 -173 -99 -294q-59 -72 -206 -171q-106 -72 -145 -114q-62 -67 -62 -146v-308q0 -20 -21 -20h-143q-20 0 -20 20v308q0 148 83 254q54 70 182.5 156.5t169.5 128.5q77 81 77 186v53q0 20 -21 20h-512q-20 0 -20 21v123q0 20 20 20h696q21 0 21 -20v-217z" />
    <glyph glyph-name="eight" unicode="8" 
d="M922 344q0 -168 -100 -266t-269 -98h-61q-170 0 -269.5 98t-99.5 266v51q0 60 39 132t90 110q10 10 10 16q0 12 -10 17q-51 35 -90 103t-39 128v41q0 169 100 269t269 100h61q169 0 269 -100t100 -269v-41q0 -60 -39.5 -128t-89.5 -103q-11 -5 -11 -17q0 -6 11 -16
q50 -38 89.5 -110t39.5 -132v-51zM737 922v41q0 75 -54.5 129.5t-129.5 54.5h-61q-76 0 -130.5 -54.5t-54.5 -129.5v-41q0 -76 54.5 -130.5t130.5 -54.5h61q75 0 129.5 54.5t54.5 130.5zM737 328v61q0 75 -54.5 129.5t-129.5 54.5h-61q-76 0 -130.5 -54.5t-54.5 -129.5v-61
q0 -76 54.5 -130.5t130.5 -54.5h61q75 0 129.5 54.5t54.5 130.5z" />
    <glyph glyph-name="nine" unicode="9" 
d="M905 328q0 -155 -100.5 -251.5t-267.5 -96.5h-62q-200 0 -303 137q-39 52 -39 69q0 10 12 17l109 55q28 14 33 14q10 0 16 -14q52 -115 172 -115h62q75 0 129.5 54.5t54.5 130.5v178q0 24 -19 24q-4 0 -16 -8q-74 -61 -170 -61h-61q-148 0 -247 97q-102 99 -102 251v154
q0 155 101 251.5t268 96.5h62q167 0 267.5 -96.5t100.5 -251.5v-635zM721 809v154q0 75 -54.5 129.5t-129.5 54.5h-62q-75 0 -129.5 -54.5t-54.5 -129.5v-154q0 -75 54.5 -129.5t129.5 -54.5h62q75 0 129.5 54.5t54.5 129.5z" />
    <glyph glyph-name="colon" unicode=":" horiz-adv-x="451" 
d="M338 645q0 -47 -32.5 -80t-80.5 -33q-47 0 -79.5 33t-32.5 80q0 48 32.5 80.5t79.5 32.5q48 0 80.5 -32.5t32.5 -80.5zM338 92q0 -47 -32.5 -79.5t-80.5 -32.5q-47 0 -79.5 32.5t-32.5 79.5q0 48 32.5 80.5t79.5 32.5q48 0 80.5 -32.5t32.5 -80.5z" />
    <glyph glyph-name="semicolon" unicode=";" horiz-adv-x="451" 
d="M338 645q0 -47 -32.5 -80t-80.5 -33q-47 0 -79.5 33t-32.5 80q0 48 32.5 80.5t79.5 32.5q48 0 80.5 -32.5t32.5 -80.5zM338 74q0 -183 -107 -281q-64 -59 -92 -59q-9 0 -16 14l-23 45q-8 17 -8 25q0 9 8 14q80 54 80 182q0 19 -20 19h-27q-20 0 -20 20v148q0 20 20 20
h184q21 0 21 -20v-127z" />
    <glyph glyph-name="less" unicode="&#x3c;" 
d="M856 141q0 -2 -10 -22l-37 -60q-6 -12 -16 -12q-5 0 -37 19l-611 352q-10 6 -10 18v117q0 12 10 18l617 359q25 14 31 14q9 0 16 -12l33 -55q12 -21 12 -27q0 -9 -12 -16l-551 -320q-15 -11 -15 -18q0 -8 15 -19l553 -319q12 -7 12 -17z" />
    <glyph glyph-name="equal" unicode="=" 
d="M952 635q0 -21 -20 -21h-819q-21 0 -21 21v82q0 20 21 20h819q20 0 20 -20v-82zM952 266q0 -20 -20 -20h-819q-21 0 -21 20v82q0 21 21 21h819q20 0 20 -21v-82z" />
    <glyph glyph-name="greater" unicode="&#x3e;" 
d="M909 436q0 -12 -10 -18l-610 -352q-32 -19 -37 -19q-10 0 -16 12l-37 60q-11 20 -11 22q0 10 13 17l553 319q14 11 14 19q0 7 -14 18l-551 320q-13 7 -13 16q0 6 13 27l33 55q7 12 16 12q6 0 31 -14l616 -359q10 -6 10 -18v-117z" />
    <glyph glyph-name="question" unicode="?" 
d="M913 963q0 -153 -82 -237q-43 -43 -165 -101q-75 -36 -104 -63q-44 -42 -44 -107q0 -13 3 -38.5t3 -29.5q0 -18 -20 -18h-142q-17 0 -20 16q-8 57 -8 98q0 121 80 193q36 32 161 96q77 39 108 71q46 48 46 120q0 75 -54.5 129.5t-129.5 54.5h-78q-114 0 -170 -115
q-6 -12 -18 -12q-7 0 -31 12l-109 55q-12 7 -12 17q0 21 47 80q102 127 293 127h78q167 0 269 -98q99 -95 99 -250zM573 92q0 -47 -32.5 -79.5t-79.5 -32.5q-48 0 -80.5 32.5t-32.5 79.5q0 48 32.5 80.5t80.5 32.5q47 0 79.5 -32.5t32.5 -80.5z" />
    <glyph glyph-name="at" unicode="@" horiz-adv-x="1446" 
d="M1282 506q0 -84 -54.5 -136.5t-146.5 -52.5h-24q-87 0 -146 54q-17 15 -39 -2q-62 -52 -147 -52q-121 0 -193.5 69t-72.5 183v164q0 113 72.5 180.5t193.5 67.5q58 0 111 -29q24 -13 24 13q0 16 19 16h92q20 0 20 -20v-445q0 -67 68 -67h22q29 0 48.5 20t19.5 47v416
q0 100 -67 162.5t-177 62.5h-356q-112 0 -179 -62.5t-67 -162.5v-574q0 -100 67 -162.5t179 -62.5h534q21 0 21 -20v-93q0 -20 -21 -20h-534q-172 0 -275.5 99.5t-103.5 258.5v574q0 159 103.5 258.5t275.5 99.5h356q171 0 274 -99.5t103 -258.5v-426zM860 584v133
q0 55 -39.5 93t-95.5 38t-94.5 -38t-38.5 -93v-133q0 -56 38.5 -95.5t94.5 -39.5q54 0 94.5 40t40.5 95z" />
    <glyph glyph-name="A" unicode="A" horiz-adv-x="922" 
d="M920 16q0 -16 -23 -16h-154q-16 0 -20 14l-76 271q-3 12 -20 12h-332q-17 0 -21 -12l-75 -271q-4 -14 -21 -14h-153q-23 0 -23 16q0 3 21 70l362 1190q3 14 21 14h110q18 0 21 -14l364 -1196q19 -61 19 -64zM590 479q0 -1 -12 47l-89 346q-10 37 -24 91h-8
q-11 -39 -25 -93l-88 -335q-14 -55 -14 -56q0 -18 22 -18h215q23 0 23 18z" />
    <glyph glyph-name="B" unicode="B" horiz-adv-x="1065" 
d="M952 365q0 -169 -99.5 -267t-268.5 -98h-410q-20 0 -20 20v1250q0 20 20 20h410q169 0 268.5 -99.5t99.5 -268.5v-21q0 -60 -39 -128t-90 -103q-10 -5 -10 -17q0 -6 10 -16q51 -38 90 -110t39 -132v-30zM768 922v20q0 75 -54.5 129.5t-129.5 54.5h-226q-20 0 -20 -20
v-348q0 -21 20 -21h226q75 0 129.5 54.5t54.5 130.5zM768 348v41q0 75 -54.5 129.5t-129.5 54.5h-226q-20 0 -20 -20v-369q0 -20 20 -20h226q75 0 129.5 54.5t54.5 129.5z" />
    <glyph glyph-name="C" unicode="C" horiz-adv-x="952" 
d="M895 190q0 -21 -45 -79q-101 -131 -297 -131h-61q-168 0 -268.5 96.5t-100.5 251.5v635q0 155 100.5 251.5t268.5 96.5h61q192 0 291 -123q49 -61 49 -82q0 -12 -12 -19l-107 -53q-29 -14 -35 -14q-10 0 -16 12q-57 115 -170 115h-61q-76 0 -130.5 -54.5t-54.5 -129.5
v-635q0 -76 54.5 -130.5t130.5 -54.5h61q113 0 172 119q6 12 16 12q5 0 33 -14l109 -55q12 -6 12 -15z" />
    <glyph glyph-name="D" unicode="D" horiz-adv-x="1075" 
d="M952 369q0 -170 -99.5 -269.5t-268.5 -99.5h-410q-20 0 -20 20v1250q0 20 20 20h410q169 0 268.5 -99.5t99.5 -268.5v-553zM768 348v594q0 75 -54.5 129.5t-129.5 54.5h-226q-20 0 -20 -20v-922q0 -20 20 -20h226q75 0 129.5 54.5t54.5 129.5z" />
    <glyph glyph-name="E" unicode="E" horiz-adv-x="983" 
d="M891 20q0 -20 -21 -20h-696q-20 0 -20 20v1250q0 20 20 20h696q21 0 21 -20v-123q0 -21 -21 -21h-512q-20 0 -20 -20v-348q0 -21 20 -21h420q21 0 21 -20v-123q0 -21 -21 -21h-420q-20 0 -20 -20v-369q0 -20 20 -20h512q21 0 21 -21v-123z" />
    <glyph glyph-name="F" unicode="F" horiz-adv-x="932" 
d="M891 1147q0 -21 -21 -21h-512q-20 0 -20 -20v-348q0 -21 20 -21h420q21 0 21 -20v-123q0 -21 -21 -21h-420q-20 0 -20 -20v-533q0 -20 -21 -20h-143q-20 0 -20 20v1250q0 20 20 20h696q21 0 21 -20v-123z" />
    <glyph glyph-name="G" unicode="G" 
d="M930 1106q0 -12 -12 -19l-107 -53q-29 -14 -35 -14q-10 0 -16 12q-58 115 -170 115h-98q-76 0 -130.5 -54.5t-54.5 -129.5v-635q0 -76 54.5 -130.5t130.5 -54.5h61q75 0 129.5 54.5t54.5 130.5v133q0 20 -20 20h-205q-20 0 -20 21v123q0 20 20 20h389q21 0 21 -20v-297
q0 -155 -101 -251.5t-268 -96.5h-61q-168 0 -268.5 96.5t-100.5 251.5v635q0 155 100.5 251.5t268.5 96.5h98q191 0 291 -123q49 -61 49 -82z" />
    <glyph glyph-name="H" unicode="H" horiz-adv-x="1137" 
d="M983 20q0 -20 -20 -20h-144q-20 0 -20 20v533q0 20 -21 20h-420q-20 0 -20 -20v-533q0 -20 -21 -20h-143q-20 0 -20 20v1250q0 20 20 20h143q21 0 21 -20v-512q0 -21 20 -21h420q21 0 21 21v512q0 20 20 20h144q20 0 20 -20v-1250z" />
    <glyph glyph-name="I" unicode="I" horiz-adv-x="492" 
d="M338 20q0 -20 -21 -20h-143q-20 0 -20 20v1250q0 20 20 20h143q21 0 21 -20v-1250z" />
    <glyph glyph-name="J" unicode="J" horiz-adv-x="860" 
d="M737 348q0 -153 -107.5 -260.5t-260.5 -107.5q-159 0 -287 133q-55 57 -55 77q0 10 14 17l104 51q30 14 35 14q11 0 17 -12q54 -117 172 -117q75 0 129.5 54.5t54.5 130.5v942q0 20 20 20h144q20 0 20 -20v-922z" />
    <glyph glyph-name="K" unicode="K" horiz-adv-x="1075" 
d="M1065 16q0 -16 -21 -16h-176q-16 0 -26 16l-348 564q-9 14 -19 14q-7 0 -18 -14l-101 -127q-18 -24 -18 -52v-381q0 -20 -21 -20h-143q-20 0 -20 20v1250q0 20 20 20h143q21 0 21 -20v-539q0 -24 18 -24q9 0 19 12l430 563q8 8 16 8h170q23 0 23 -16q0 -7 -6 -17
l-379 -466q-17 -21 -17 -31q0 -8 11 -25l432 -694q10 -16 10 -25z" />
    <glyph glyph-name="L" unicode="L" horiz-adv-x="932" 
d="M891 20q0 -20 -21 -20h-696q-20 0 -20 20v1250q0 20 20 20h143q21 0 21 -20v-1086q0 -20 20 -20h512q21 0 21 -21v-123z" />
    <glyph glyph-name="M" unicode="M" horiz-adv-x="1323" 
d="M1169 20q0 -20 -20 -20h-143q-21 0 -21 20v357q0 254 19 475l-9 2q-22 -84 -49 -143l-231 -514q-6 -13 -19 -13h-69q-13 0 -19 13l-231 514q-27 59 -49 143l-9 -2q19 -221 19 -475v-357q0 -20 -21 -20h-143q-20 0 -20 20v1250q0 20 20 20h131q13 0 19 -12l309 -731
q17 -40 24 -82h7q6 33 26 82l309 731q6 12 19 12h131q20 0 20 -20v-1250z" />
    <glyph glyph-name="N" unicode="N" horiz-adv-x="1137" 
d="M983 20q0 -20 -20 -20h-132q-12 0 -18 10l-436 793q-29 52 -37 74l-8 -3q6 -73 6 -475v-379q0 -20 -21 -20h-143q-20 0 -20 20v1250q0 20 20 20h131q13 0 19 -10l436 -795q29 -53 37 -73l8 2q-6 73 -6 475v381q0 20 20 20h144q20 0 20 -20v-1250z" />
    <glyph glyph-name="O" unicode="O" 
d="M922 328q0 -155 -101 -251.5t-268 -96.5h-61q-168 0 -268.5 96.5t-100.5 251.5v635q0 155 100.5 251.5t268.5 96.5h61q167 0 268 -96.5t101 -251.5v-635zM737 328v635q0 75 -54.5 129.5t-129.5 54.5h-61q-76 0 -130.5 -54.5t-54.5 -129.5v-635q0 -76 54.5 -130.5
t130.5 -54.5h61q75 0 129.5 54.5t54.5 130.5z" />
    <glyph glyph-name="P" unicode="P" horiz-adv-x="993" 
d="M952 922q0 -152 -100 -249q-102 -100 -268 -100h-226q-20 0 -20 -20v-533q0 -20 -21 -20h-143q-20 0 -20 20v1250q0 20 20 20h410q168 0 268 -100.5t100 -267.5zM768 922v20q0 75 -54.5 129.5t-129.5 54.5h-226q-20 0 -20 -20v-348q0 -21 20 -21h226q75 0 129.5 54.5
t54.5 130.5z" />
    <glyph glyph-name="Q" unicode="Q" 
d="M922 328q0 -137 -81.5 -230.5t-219.5 -113.5q-17 -3 -17 -21v-127q0 -20 -20 -20h-123q-21 0 -21 20v127q0 18 -20 21q-138 20 -217.5 113t-79.5 231v635q0 155 100.5 251.5t268.5 96.5h61q167 0 268 -96.5t101 -251.5v-635zM737 328v635q0 75 -54.5 129.5t-129.5 54.5
h-61q-76 0 -130.5 -54.5t-54.5 -129.5v-635q0 -83 64 -140q34 -30 53 -30q16 0 16 22v84q0 21 21 21h123q20 0 20 -21v-84q0 -22 17 -22q16 0 51 28q65 55 65 142z" />
    <glyph glyph-name="R" unicode="R" 
d="M965 16q0 -16 -21 -16h-158q-14 0 -18 14l-190 547q-4 12 -17 12h-203q-20 0 -20 -20v-533q0 -20 -21 -20h-143q-20 0 -20 20v1250q0 20 20 20h410q169 0 268.5 -99.5t99.5 -268.5v-21q0 -79 -59 -166q-55 -81 -119 -110q-12 -6 -12 -17q0 -2 16 -49l170 -491
q17 -48 17 -52zM768 922v20q0 75 -54.5 129.5t-129.5 54.5h-226q-20 0 -20 -20v-348q0 -21 20 -21h226q75 0 129.5 54.5t54.5 130.5z" />
    <glyph glyph-name="S" unicode="S" horiz-adv-x="950" 
d="M868 328q0 -155 -99 -251q-102 -97 -269 -97h-86q-214 0 -310 149q-28 45 -28 59q0 12 10 17l104 53q33 16 37 16q10 0 17 -14q53 -117 170 -117h86q75 0 129.5 54.5t54.5 130.5q0 115 -152 195l-282 146q-152 109 -152 294q0 155 100.5 251.5t268.5 96.5h33
q210 0 311 -150q29 -42 29 -55q0 -12 -13 -19l-110 -55q-25 -12 -31 -12q-10 0 -16 12q-58 115 -170 115h-33q-75 0 -129.5 -54.5t-54.5 -129.5q0 -79 81 -135q35 -24 184.5 -92.5t217.5 -138.5q102 -106 102 -269z" />
    <glyph glyph-name="T" unicode="T" horiz-adv-x="819" 
d="M778 1147q0 -21 -20 -21h-236q-20 0 -20 -20v-1086q0 -20 -21 -20h-143q-21 0 -21 20v1086q0 20 -20 20h-236q-20 0 -20 21v123q0 20 20 20h697q20 0 20 -20v-123z" />
    <glyph glyph-name="U" unicode="U" 
d="M922 328q0 -155 -101 -251.5t-268 -96.5h-61q-168 0 -268.5 96.5t-100.5 251.5v942q0 20 20 20h144q20 0 20 -20v-942q0 -76 54.5 -130.5t130.5 -54.5h61q75 0 129.5 54.5t54.5 130.5v942q0 20 21 20h143q21 0 21 -20v-942z" />
    <glyph glyph-name="V" unicode="V" horiz-adv-x="922" 
d="M920 1274q0 -3 -11 -37l-372 -1223q-3 -14 -21 -14h-110q-18 0 -21 14l-367 1203q-16 53 -16 57q0 16 23 16h153q17 0 21 -14l235 -854q8 -34 21 -84h10l20 82l238 856q4 14 20 14h154q23 0 23 -16z" />
    <glyph glyph-name="W" unicode="W" horiz-adv-x="1366" 
d="M1343 1274q0 -7 -8 -45l-262 -1213q-3 -16 -20 -16h-111q-18 0 -20 14l-213 725q-9 37 -21 90h-8l-23 -90l-213 -725q-2 -14 -20 -14h-111q-17 0 -20 16l-262 1211q-8 38 -8 47q0 16 20 16h156q17 0 20 -16l148 -768q10 -53 20 -94h10q9 38 23 92l211 776q4 14 20 14h64
q16 0 20 -14l211 -776q9 -38 23 -92h10q10 41 20 94l148 768q3 16 20 16h156q20 0 20 -16z" />
    <glyph glyph-name="X" unicode="X" horiz-adv-x="940" 
d="M907 16q0 -16 -22 -16h-172q-13 0 -19 12l-200 432q-8 17 -19 17q-10 0 -18 -17l-211 -432q-8 -12 -19 -12h-170q-22 0 -22 16q0 8 22 52l277 540q12 24 12 39q0 13 -12 37l-283 551q-16 32 -16 39q0 16 22 16h168q11 0 19 -12l213 -438q8 -17 18 -17q11 0 19 17l202 438
q6 12 19 12h170q22 0 22 -16q0 -5 -18 -41l-275 -545q-14 -28 -14 -41q0 -14 12 -39l275 -547q20 -40 20 -45z" />
    <glyph glyph-name="Y" unicode="Y" horiz-adv-x="922" 
d="M913 1274q0 -7 -18 -41l-328 -612q-14 -27 -14 -64v-537q0 -20 -21 -20h-143q-20 0 -20 20v539q0 35 -15 62l-334 622q-12 23 -12 31q0 16 23 16h168q10 0 18 -12l225 -467q8 -16 19 -16q10 0 18 16l226 467q8 12 18 12h168q22 0 22 -16z" />
    <glyph glyph-name="Z" unicode="Z" horiz-adv-x="901" 
d="M819 20q0 -20 -20 -20h-729q-21 0 -21 16q0 8 19 50l450 1005q14 32 14 39q0 16 -20 16h-410q-20 0 -20 21v123q0 20 20 20h686q21 0 21 -16q0 -8 -18 -49l-451 -1000q-16 -36 -16 -45q0 -16 20 -16h455q20 0 20 -21v-123z" />
    <glyph glyph-name="bracketleft" unicode="[" horiz-adv-x="782" 
d="M614 -348q0 -21 -20 -21h-328q-20 0 -20 21v1823q0 20 20 20h328q20 0 20 -20v-123q0 -21 -20 -21h-143q-21 0 -21 -20v-1495q0 -21 21 -21h143q20 0 20 -20v-123z" />
    <glyph glyph-name="backslash" unicode="\" horiz-adv-x="666" 
d="M655 16q0 -16 -20 -16h-70q-13 0 -18 12l-524 1225q-13 29 -13 37q0 16 21 16h69q14 0 19 -12l510 -1192q26 -62 26 -70z" />
    <glyph glyph-name="bracketright" unicode="]" horiz-adv-x="782" 
d="M537 -348q0 -21 -21 -21h-328q-20 0 -20 21v123q0 20 20 20h144q20 0 20 21v1495q0 20 -20 20h-144q-20 0 -20 21v123q0 20 20 20h328q21 0 21 -20v-1823z" />
    <glyph glyph-name="asciicircum" unicode="^" horiz-adv-x="1538" 
d="M1440 1198q0 -48 -32.5 -80.5t-80.5 -32.5t-80.5 32.5t-32.5 80.5t32.5 80.5t80.5 32.5t80.5 -32.5t32.5 -80.5zM1419 20q0 -20 -20 -20h-144q-20 0 -20 20v881q0 21 20 21h144q20 0 20 -21v-881zM1071 686q0 -20 -20 -20h-144q-20 0 -20 -21v-625q0 -20 -21 -20h-143
q-21 0 -21 20v625q0 21 -20 21h-313q-21 0 -21 -21v-625q0 -20 -20 -20h-144q-20 0 -20 20v625q0 21 -21 21h-51q-20 0 -20 20v123q0 20 20 20h51q21 0 21 21v92q0 154 107.5 261.5t260.5 107.5q165 0 263 -90q12 -9 14 -9q8 0 14 7q97 90 228 90q20 0 20 -21v-123
q0 -17 -16 -20q-76 -13 -122 -64t-46 -118v-113q0 -21 20 -21h144q20 0 20 -20v-123zM713 1038q0 12 -11 25q-65 84 -170 84q-75 0 -129.5 -54.5t-54.5 -129.5v-113q0 -21 21 -21h313q20 0 20 21v92q0 37 5.5 66t5.5 30z" />
    <glyph glyph-name="underscore" unicode="_" horiz-adv-x="451" 
d="M467 -440q0 -21 -21 -21h-430q-20 0 -20 21v51q0 20 20 20h430q21 0 21 -20v-51z" />
    <glyph glyph-name="grave" unicode="`" horiz-adv-x="1024" 
d="M614 1051q0 -17 -20 -17h-70q-26 0 -49 23l-235 231q-17 13 -17 27q0 16 23 16h153q38 0 54 -24l145 -224q16 -25 16 -32z" />
    <glyph glyph-name="a" unicode="a" horiz-adv-x="973" 
d="M840 20q0 -20 -21 -20h-123q-20 0 -20 20v27q0 25 -19 25q-4 0 -16 -9q-77 -63 -162 -63h-80q-115 0 -193.5 71.5t-78.5 184.5v12q0 115 79 186q77 68 193 68h236q20 0 20 21v57q0 77 -53.5 128.5t-132.5 51.5q-106 0 -170 -114q-7 -13 -16 -13q-4 0 -35 17l-103 53
q-12 6 -12 16q0 15 41 70q100 133 295 133q168 0 269.5 -94t101.5 -248v-580zM655 313v45q0 21 -20 21h-236q-38 0 -64 -26t-26 -64v-33q0 -39 26 -65.5t64 -26.5h80q61 0 113 45.5t63 103.5z" />
    <glyph glyph-name="b" unicode="b" horiz-adv-x="973" 
d="M870 348q0 -155 -99 -251q-102 -97 -269 -97q-98 0 -172 61q-13 9 -17 9q-16 0 -16 -25v-25q0 -20 -21 -20h-122q-21 0 -21 20v1250q0 20 21 20h143q20 0 20 -20v-393q0 -25 17 -25q4 0 16 8q75 62 172 62q148 0 248 -98.5t100 -250.5v-225zM686 348v225
q0 76 -54.5 130.5t-129.5 54.5q-76 0 -130.5 -54.5t-54.5 -130.5v-225q0 -75 54.5 -129.5t130.5 -54.5q75 0 129.5 54.5t54.5 129.5z" />
    <glyph glyph-name="c" unicode="c" horiz-adv-x="877" 
d="M813 188q0 -25 -59 -94q-100 -114 -283 -114q-167 0 -268 96.5t-101 251.5v266q0 155 101 251.5t268 96.5q190 0 291 -123q49 -60 49 -82q0 -12 -12 -18l-107 -53q-28 -15 -35 -15q-10 0 -16 13q-57 114 -170 114q-75 0 -129.5 -54.5t-54.5 -129.5v-266
q0 -76 54.5 -130.5t129.5 -54.5q113 0 172 119q6 12 16 12q5 0 25 -10l117 -59q12 -6 12 -17z" />
    <glyph glyph-name="d" unicode="d" horiz-adv-x="973" 
d="M840 20q0 -20 -21 -20h-123q-20 0 -20 20v25q0 25 -19 25q-4 0 -16 -9q-74 -61 -170 -61q-167 0 -268 96.5t-101 251.5v225q0 152 102 251q99 98 247 98q95 0 170 -62q12 -8 16 -8q18 0 18 25v393q0 20 21 20h143q21 0 21 -20v-1250zM655 348v225q0 76 -54.5 130.5
t-129.5 54.5t-129.5 -54.5t-54.5 -130.5v-225q0 -75 54.5 -129.5t129.5 -54.5t129.5 54.5t54.5 129.5z" />
    <glyph glyph-name="e" unicode="e" horiz-adv-x="942" 
d="M840 451q0 -21 -21 -21h-512q-20 0 -20 -20v-82q0 -76 54.5 -130.5t129.5 -54.5q113 0 172 119q6 12 16 12q5 0 25 -10l117 -59q12 -6 12 -17q0 -25 -59 -94q-100 -114 -283 -114q-167 0 -268 96.5t-101 251.5v266q0 132 100 235q109 113 269 113q161 0 269 -113
q100 -103 100 -235v-143zM655 594q0 75 -54.5 129.5t-129.5 54.5t-129.5 -54.5t-54.5 -129.5q0 -21 20 -21h328q20 0 20 21z" />
    <glyph glyph-name="f" unicode="f" horiz-adv-x="584" 
d="M645 1286q0 -5 -8 -29l-35 -100q-5 -14 -16 -14q-4 0 -23.5 2t-30.5 2q-75 0 -129.5 -54.5t-54.5 -129.5v-113q0 -21 21 -21h143q20 0 20 -20v-123q0 -20 -20 -20h-143q-21 0 -21 -21v-625q0 -20 -20 -20h-144q-20 0 -20 20v625q0 21 -21 21h-51q-20 0 -20 20v123
q0 20 20 20h51q21 0 21 21v92q0 154 107.5 261.5t260.5 107.5q52 0 97 -8q16 -3 16 -17z" />
    <glyph glyph-name="g" unicode="g" horiz-adv-x="942" 
d="M932 -205q0 -113 -79.5 -184.5t-197.5 -71.5h-276q-118 0 -196 71q-81 72 -81 185v21q0 116 113 196q10 11 10 17q0 2 -14 36t-14 76q0 41 19.5 87t19.5 44q0 11 -9 17q-125 101 -125 266v18q0 152 108 251q105 98 261 98q96 0 170 -62q12 -8 16 -8q19 0 19 25v24
q0 21 20 21h123q21 0 21 -21v-346q0 -152 -106.5 -250t-262.5 -98q-27 0 -59 4q-54 -27 -54 -70q0 -57 56 -69h241q118 0 197.5 -71.5t79.5 -184.5v-21zM655 555v18q0 76 -54.5 130.5t-129.5 54.5t-129.5 -54.5t-54.5 -130.5v-18q0 -75 54.5 -129.5t129.5 -54.5t129.5 54.5
t54.5 129.5zM748 -205v21q0 37 -28 64.5t-65 27.5h-276q-37 0 -64.5 -27.5t-27.5 -64.5v-21q0 -37 27.5 -64.5t64.5 -27.5h276q37 0 65 27.5t28 64.5z" />
    <glyph glyph-name="h" unicode="h" horiz-adv-x="993" 
d="M870 20q0 -20 -20 -20h-143q-21 0 -21 20v553q0 76 -54.5 130.5t-129.5 54.5q-76 0 -130.5 -54.5t-54.5 -130.5v-553q0 -20 -20 -20h-143q-21 0 -21 20v1250q0 20 21 20h143q20 0 20 -20v-393q0 -25 17 -25q4 0 16 8q75 62 172 62q149 0 248.5 -98t99.5 -251v-553z" />
    <glyph glyph-name="i" unicode="i" horiz-adv-x="451" 
d="M338 1198q0 -48 -32.5 -80.5t-80.5 -32.5q-47 0 -79.5 32.5t-32.5 80.5t32.5 80.5t79.5 32.5q48 0 80.5 -32.5t32.5 -80.5zM317 20q0 -20 -20 -20h-143q-21 0 -21 20v881q0 21 21 21h143q20 0 20 -21v-881z" />
    <glyph glyph-name="j" unicode="j" horiz-adv-x="451" 
d="M338 1198q0 -48 -32.5 -80.5t-80.5 -32.5q-47 0 -79.5 32.5t-32.5 80.5t32.5 80.5t79.5 32.5q48 0 80.5 -32.5t32.5 -80.5zM317 -115q0 -115 -62.5 -205t-168.5 -133q-71 -28 -119 -28q-18 0 -18 20v123q0 18 16 21q76 12 122 63.5t46 118.5v1036q0 21 21 21h143
q20 0 20 -21v-1016z" />
    <glyph glyph-name="k" unicode="k" horiz-adv-x="920" 
d="M909 16q0 -16 -22 -16h-180q-13 0 -19 10l-260 426q-7 13 -16 13t-17 -9l-78 -80v-340q0 -20 -20 -20h-143q-21 0 -21 20v1250q0 20 21 20h143q20 0 20 -20v-639q0 -23 19 -23q9 0 16 8l266 293q10 13 25 13h170q23 0 23 -17q0 -10 -21 -31l-246 -249q-12 -13 -12 -23
t10 -27l328 -528q14 -23 14 -31z" />
    <glyph glyph-name="l" unicode="l" horiz-adv-x="451" 
d="M317 20q0 -20 -20 -20h-143q-21 0 -21 20v1250q0 20 21 20h143q20 0 20 -20v-1250z" />
    <glyph glyph-name="m" unicode="m" horiz-adv-x="1475" 
d="M1341 20q0 -20 -20 -20h-143q-21 0 -21 20v553q0 75 -51 130t-113 55q-58 0 -109 -54q-55 -57 -55 -131v-553q0 -20 -20 -20h-143q-21 0 -21 20v553q0 75 -51 130t-113 55q-59 0 -110 -54q-54 -57 -54 -131v-553q0 -20 -20 -20h-143q-21 0 -21 20v881q0 21 21 21h122
q21 0 21 -21v-27q0 -24 16 -24q6 0 17 8q81 64 172 64q144 0 221 -93q5 -8 16 -8t17 8q77 93 237 93q150 0 249 -98t99 -251v-553z" />
    <glyph glyph-name="n" unicode="n" horiz-adv-x="1004" 
d="M870 20q0 -20 -20 -20h-143q-21 0 -21 20v553q0 76 -54.5 130.5t-129.5 54.5q-76 0 -130.5 -54.5t-54.5 -130.5v-553q0 -20 -20 -20h-143q-21 0 -21 20v881q0 21 21 21h122q21 0 21 -21v-24q0 -25 16 -25q4 0 17 8q74 62 172 62q167 0 269 -98q99 -96 99 -251v-553z" />
    <glyph glyph-name="o" unicode="o" horiz-adv-x="942" 
d="M840 328q0 -155 -100.5 -251.5t-268.5 -96.5q-167 0 -268 96.5t-101 251.5v266q0 155 101 251.5t268 96.5q168 0 268.5 -96.5t100.5 -251.5v-266zM655 328v266q0 75 -54.5 129.5t-129.5 54.5t-129.5 -54.5t-54.5 -129.5v-266q0 -76 54.5 -130.5t129.5 -54.5t129.5 54.5
t54.5 130.5z" />
    <glyph glyph-name="p" unicode="p" horiz-adv-x="973" 
d="M870 348q0 -152 -100 -250t-248 -98q-97 0 -172 61q-12 9 -16 9q-17 0 -17 -25v-485q0 -21 -20 -21h-143q-21 0 -21 21v1341q0 21 21 21h122q21 0 21 -21v-24q0 -25 16 -25q4 0 17 8q74 62 172 62q167 0 269 -98q99 -96 99 -251v-225zM686 348v225q0 76 -54.5 130.5
t-129.5 54.5q-76 0 -130.5 -54.5t-54.5 -130.5v-225q0 -75 54.5 -129.5t130.5 -54.5q75 0 129.5 54.5t54.5 129.5z" />
    <glyph glyph-name="q" unicode="q" horiz-adv-x="973" 
d="M840 -440q0 -21 -21 -21h-143q-21 0 -21 21v485q0 25 -18 25q-4 0 -16 -9q-75 -61 -170 -61q-148 0 -247 97q-102 99 -102 251v225q0 155 101 252t268 97q96 0 170 -62q12 -8 16 -8q19 0 19 25v24q0 21 20 21h123q21 0 21 -21v-1341zM655 348v225q0 76 -54.5 130.5
t-129.5 54.5t-129.5 -54.5t-54.5 -130.5v-225q0 -75 54.5 -129.5t129.5 -54.5t129.5 54.5t54.5 129.5z" />
    <glyph glyph-name="r" unicode="r" horiz-adv-x="610" 
d="M573 735q0 -18 -16 -18q-1 0 -20.5 5t-36.5 5q-183 0 -183 -174v-533q0 -20 -20 -20h-143q-21 0 -21 20v881q0 21 21 21h122q21 0 21 -21v-65q0 -25 18 -25q8 0 15 8q78 103 172 103q28 0 55 -4q16 -3 16 -21v-162z" />
    <glyph glyph-name="s" unicode="s" horiz-adv-x="901" 
d="M815 289q0 -132 -85 -217q-93 -92 -253 -92h-61q-195 0 -291 124q-43 57 -43 80q0 11 12 17l107 53q20 10 24 10q8 0 15 -12q57 -115 176 -115h61q74 0 117 38q39 34 39 85q0 59 -80 89q-31 11 -180 40q-134 26 -196 68q-91 62 -91 184q0 139 98 223q92 78 232 78h61
q204 0 299 -137q35 -50 35 -68q0 -10 -12 -16l-99 -49q-28 -15 -32 -15q-9 0 -15 13q-57 114 -176 114h-61q-150 0 -150 -110q0 -62 80 -93q33 -13 178 -42q137 -28 199 -69q92 -62 92 -181z" />
    <glyph glyph-name="t" unicode="t" horiz-adv-x="645" 
d="M543 2q0 -20 -21 -20q-66 0 -141 30q-207 85 -207 316v409q0 21 -20 21h-113q-21 0 -21 18q0 8 5 74l225 240q15 16 29 16h59q20 0 20 -21v-143q0 -20 21 -20h143q21 0 21 -21v-123q0 -20 -21 -20h-143q-21 0 -21 -21v-409q0 -67 46.5 -118.5t121.5 -64.5q17 -2 17 -20
v-123z" />
    <glyph glyph-name="u" unicode="u" horiz-adv-x="983" 
d="M850 20q0 -20 -21 -20h-122q-21 0 -21 20v25q0 25 -18 25q-4 0 -17 -9q-74 -61 -170 -61q-167 0 -267.5 96.5t-100.5 251.5v553q0 21 20 21h143q21 0 21 -21v-553q0 -75 54.5 -129.5t129.5 -54.5q76 0 130.5 54.5t54.5 129.5v553q0 21 20 21h143q21 0 21 -21v-881z" />
    <glyph glyph-name="v" unicode="v" horiz-adv-x="881" 
d="M874 905q0 -7 -14 -43l-344 -850q-5 -12 -18 -12h-115q-13 0 -18 12l-345 850q-14 36 -14 43q0 17 21 17h153q13 0 19 -13l215 -551q17 -35 22 -79h8q4 30 23 79l215 551q6 13 18 13h154q20 0 20 -17z" />
    <glyph glyph-name="w" unicode="w" horiz-adv-x="1243" 
d="M1221 905q0 -4 -9 -31l-262 -860q-3 -14 -20 -14h-111q-16 0 -20 14l-152 518q-12 44 -20 80h-9q-2 -10 -22 -80l-152 -518q-4 -14 -20 -14h-111q-17 0 -20 14l-260 854q-10 34 -10 37q0 17 22 17h154q16 0 20 -15l125 -487q7 -26 21 -80h8q5 26 20 80l135 487
q4 15 21 15h145q17 0 21 -15l133 -485q8 -26 22 -80h9q7 25 22 82l123 483q4 15 20 15h154q23 0 23 -17z" />
    <glyph glyph-name="x" unicode="x" horiz-adv-x="836" 
d="M821 16q0 -16 -20 -16h-168q-12 0 -19 10l-180 291q-11 14 -18 14q-8 0 -19 -14l-180 -291q-6 -10 -18 -10h-164q-21 0 -21 16q0 9 11 25l258 397q10 16 10 25t-10 24l-254 387q-15 22 -15 31q0 17 21 17h166q10 0 16 -11l182 -293q7 -12 15 -12q10 0 16 12l184 293
q7 11 17 11h170q20 0 20 -17q0 -9 -18 -37l-248 -376q-12 -19 -12 -29q0 -11 10 -27l256 -393q12 -19 12 -27z" />
    <glyph glyph-name="y" unicode="y" horiz-adv-x="983" 
d="M850 -113q0 -165 -93 -264q-98 -104 -276 -104q-183 0 -284 114q-58 66 -58 93q0 10 13 16l106 53q29 15 33 15q12 0 18 -13q56 -114 172 -114q76 0 130.5 54.5t54.5 129.5v170q0 24 -19 24q-9 0 -18 -8q-59 -53 -148 -53q-167 0 -267.5 96.5t-100.5 251.5v553
q0 21 20 21h143q21 0 21 -21v-553q0 -75 54.5 -129.5t129.5 -54.5q76 0 130.5 54.5t54.5 129.5v553q0 21 20 21h143q21 0 21 -21v-1014z" />
    <glyph glyph-name="z" unicode="z" horiz-adv-x="881" 
d="M807 20q0 -20 -21 -20h-714q-23 0 -23 16q0 9 25 50l383 639q16 27 16 34q0 17 -22 17h-359q-20 0 -20 20v123q0 21 20 21h678q23 0 23 -17q0 -8 -19 -39l-389 -645q-18 -30 -18 -39q0 -16 22 -16h397q21 0 21 -21v-123z" />
    <glyph glyph-name="braceleft" unicode="{" horiz-adv-x="840" 
d="M688 -346q0 -21 -20 -21q-87 0 -170 43q-179 93 -179 324v297q0 67 -46 118.5t-121 63.5q-17 3 -17 21v127q0 17 17 20q75 13 121 64t46 118v297q0 257 211 338q75 29 138 29q20 0 20 -20v-123q0 -18 -16 -21q-76 -12 -122 -63.5t-46 -118.5v-338q0 -60 -39.5 -128.5
t-89.5 -102.5q-10 -6 -10 -17q0 -6 10 -16q50 -38 89.5 -110t39.5 -132v-323q0 -68 46 -119t122 -64q16 -2 16 -20v-123z" />
    <glyph glyph-name="bar" unicode="|" horiz-adv-x="1559" 
d="M1425 20q0 -20 -20 -20h-143q-21 0 -21 20v1086q0 20 -20 20h-150q-75 0 -129.5 -54.5t-54.5 -129.5v-92q0 -21 20 -21h144q20 0 20 -20v-123q0 -20 -20 -20h-144q-20 0 -20 -21v-625q0 -20 -21 -20h-143q-21 0 -21 20v625q0 21 -20 21h-313q-21 0 -21 -21v-625
q0 -20 -20 -20h-144q-20 0 -20 20v625q0 21 -21 21h-51q-20 0 -20 20v123q0 20 20 20h51q21 0 21 21v92q0 154 107.5 261.5t260.5 107.5q178 0 277 -103q8 -8 12 -8q8 0 15 6q106 84 235 84h334q20 0 20 -20v-1250zM717 1034q0 11 -12 27q-67 86 -173 86q-75 0 -129.5 -54.5
t-54.5 -129.5v-113q0 -21 21 -21h313q20 0 20 21v72q0 40 7.5 76z" />
    <glyph glyph-name="braceright" unicode="}" horiz-adv-x="840" 
d="M705 500q0 -18 -17 -21q-75 -12 -121.5 -63.5t-46.5 -118.5v-297q0 -243 -193 -331q-78 -36 -155 -36q-20 0 -20 21v123q0 18 16 20q76 13 122 64t46 119v323q0 60 39 132t90 110q10 10 10 16q0 11 -10 17q-51 34 -90 102.5t-39 128.5v338q0 67 -46 118.5t-122 63.5
q-16 3 -16 21v123q0 20 20 20q63 0 137 -29q211 -81 211 -338v-297q0 -67 46.5 -118t121.5 -64q17 -3 17 -20v-127z" />
    <glyph glyph-name="asciitilde" unicode="~" horiz-adv-x="1122" 
d="M1184 1286q0 -5 -8 -29l-35 -100q-5 -14 -17 -14q-4 0 -23.5 2t-29.5 2q-75 0 -129.5 -54.5t-54.5 -129.5v-113q0 -21 20 -21h144q20 0 20 -20v-123q0 -20 -20 -20h-144q-20 0 -20 -21v-625q0 -20 -21 -20h-143q-21 0 -21 20v625q0 21 -20 21h-313q-21 0 -21 -21v-625
q0 -20 -20 -20h-144q-20 0 -20 20v625q0 21 -21 21h-51q-20 0 -20 20v123q0 20 20 20h51q21 0 21 21v92q0 154 107.5 261.5t260.5 107.5q165 0 263 -90q12 -9 14 -9q8 0 14 7q101 92 248 92q51 0 96 -8q17 -3 17 -17zM713 1038q0 12 -11 25q-65 84 -170 84
q-75 0 -129.5 -54.5t-54.5 -129.5v-113q0 -21 21 -21h313q20 0 20 21v92q0 37 5.5 66t5.5 30z" />
    <glyph glyph-name="nonbreakingspace" unicode="&#xa0;" 
 />
    <glyph glyph-name="exclamdown" unicode="&#xa1;" horiz-adv-x="614" 
d="M420 829q0 -47 -32.5 -79.5t-80.5 -32.5q-47 0 -79.5 32.5t-32.5 79.5q0 48 32.5 80.5t79.5 32.5q48 0 80.5 -32.5t32.5 -80.5zM399 -348q0 -21 -20 -21h-143q-21 0 -21 21v528l43 355q2 18 21 18h55q18 0 20 -18l45 -355v-528z" />
    <glyph glyph-name="cent" unicode="&#xa2;" 
d="M883 229q0 -19 -45 -77q-84 -110 -236 -127q-16 -2 -16 -21v-127q0 -20 -21 -20h-51q-20 0 -20 20v127q0 18 -21 21q-140 18 -220.5 111t-80.5 233v266q0 139 80.5 232t220.5 112q21 3 21 20v127q0 21 20 21h51q21 0 21 -21v-127q0 -18 16 -20q151 -17 238 -131
q43 -57 43 -72q0 -10 -13 -16l-100 -51q-32 -17 -39 -17q-12 0 -18 13q-23 46 -60 73q-32 25 -51 25q-16 0 -16 -21v-561q0 -20 16 -20q23 0 55 28q19 26 59 78q6 6 15 6q7 0 35 -14l104 -53q13 -7 13 -17zM494 219v565q0 21 -17 21t-49 -25q-72 -55 -72 -145v-266
q0 -83 64 -140q34 -30 57 -30q17 0 17 20z" />
    <glyph glyph-name="sterling" unicode="&#xa3;" 
d="M985 1106q0 -12 -12 -19l-103 -51q-32 -16 -39 -16q-10 0 -16 12q-57 115 -170 115q-75 0 -129.5 -54.5t-54.5 -129.5v-205q0 -21 20 -21h144q20 0 20 -20v-123q0 -21 -20 -21h-144q-20 0 -20 -20v-225q0 -51 -22.5 -100t-22.5 -48q0 -16 22 -16h463q21 0 21 -21v-123
q0 -20 -21 -20h-881q-20 0 -20 20v123q0 21 20 21h95q69 11 115 63t46 121v205q0 20 -20 20h-51q-21 0 -21 21v123q0 20 21 20h51q20 0 20 21v184q0 154 108 261.5t261 107.5q195 0 295 -127q45 -57 45 -78z" />
    <glyph glyph-name="currency" unicode="&#xa4;" 
d="M977 178q-99 -198 -338 -198h-61q-168 0 -268.5 96.5t-100.5 251.5v51q0 20 -21 20h-122q-21 0 -21 21v102q0 21 21 21h122q21 0 21 20v164q0 21 -21 21h-122q-21 0 -21 20v102q0 21 21 21h122q21 0 21 20v52q0 155 100.5 251.5t268.5 96.5h61q237 0 338 -195
q10 -19 -10 -29l-131 -65q-18 -9 -27 10q-57 115 -170 115h-61q-76 0 -130.5 -54.5t-54.5 -129.5v-52q0 -20 21 -20h286q21 0 21 -21v-102q0 -20 -21 -20h-286q-21 0 -21 -21v-164q0 -20 21 -20h286q21 0 21 -21v-102q0 -21 -21 -21h-286q-21 0 -21 -20v-51
q0 -76 54.5 -130.5t130.5 -54.5h61q113 0 172 119q9 18 29 8l129 -65q17 -9 8 -27z" />
    <glyph glyph-name="yen" unicode="&#xa5;" 
d="M975 1274q0 -8 -17 -39l-266 -498q-20 -38 -20 -45q0 -16 22 -16h248q21 0 21 -21v-102q0 -21 -21 -21h-307q-21 0 -21 -20v-164q0 -20 21 -20h307q21 0 21 -21v-102q0 -21 -21 -21h-307q-21 0 -21 -20v-144q0 -20 -20 -20h-143q-21 0 -21 20v144q0 20 -20 20h-308
q-20 0 -20 21v102q0 21 20 21h308q20 0 20 20v164q0 20 -20 20h-308q-20 0 -20 21v102q0 21 20 21h248q23 0 23 16q0 7 -19 41l-270 508q-14 27 -14 33q0 16 22 16h168q10 0 19 -12l225 -467q8 -16 18 -16q11 0 19 16l225 467q8 12 18 12h168q23 0 23 -16z" />
    <glyph glyph-name="brokenbar" unicode="&#xa6;" horiz-adv-x="492" 
d="M307 750h-123v745h123v-745zM307 -369h-123v746h123v-746z" />
    <glyph glyph-name="section" unicode="&#xa7;" 
d="M924 -113q0 -155 -101 -251.5t-268 -96.5h-86q-206 0 -307 148q-33 47 -33 59q0 10 12 16l113 58q20 10 27 10q12 0 18 -12q56 -115 170 -115h86q75 0 129.5 54.5t54.5 129.5q0 116 -152 196q-141 73 -282 145q-151 109 -151 294q0 105 43 178q22 39 22 41q0 3 -22 41
q-43 74 -43 181q0 155 100.5 251.5t267.5 96.5h33q200 0 303 -137q37 -49 37 -68q0 -12 -12 -19l-111 -55q-24 -12 -31 -12q-10 0 -16 12q-57 115 -170 115h-33q-75 0 -129.5 -54.5t-54.5 -129.5q0 -101 152 -176q254 -126 282 -147q152 -115 152 -312q0 -96 -43 -172
q-21 -36 -21 -37t21 -41q43 -84 43 -191zM739 328q0 101 -107 170q-115 56 -231 112q-25 13 -28 13q-9 0 -19 -19q-16 -33 -16 -82q0 -87 105 -150q111 -54 223 -108q40 -20 43 -20q10 0 20 24.5t10 59.5z" />
    <glyph glyph-name="dieresis" unicode="&#xa8;" horiz-adv-x="1024" 
d="M776 1176q0 -42 -30.5 -72.5t-71.5 -30.5q-42 0 -72.5 30.5t-30.5 72.5q0 41 30.5 71.5t72.5 30.5q41 0 71.5 -30.5t30.5 -71.5zM455 1176q0 -42 -30.5 -72.5t-72.5 -30.5q-41 0 -71.5 30.5t-30.5 72.5q0 41 30.5 71.5t71.5 30.5q42 0 72.5 -30.5t30.5 -71.5z" />
    <glyph glyph-name="copyright" unicode="&#xa9;" horiz-adv-x="1475" 
d="M1290 205q0 -155 -100.5 -251.5t-267.5 -96.5h-369q-168 0 -268.5 96.5t-100.5 251.5v594q0 155 100.5 251.5t268.5 96.5h369q167 0 267.5 -96.5t100.5 -251.5v-594zM1198 205v594q0 114 -75.5 185t-200.5 71h-369q-125 0 -201 -71t-76 -185v-594q0 -115 76 -185.5
t201 -70.5h369q125 0 200.5 70.5t75.5 185.5zM969 299q0 -17 -37 -57q-67 -74 -197 -74q-117 0 -188.5 68t-71.5 178v202q0 110 71 176t189 66q126 0 193 -72q37 -39 37 -57q0 -9 -11 -14l-43 -23q-23 -12 -26 -12q-9 0 -17 10q-54 76 -133 76q-63 0 -107 -43.5t-44 -106.5
v-202q0 -62 45 -107t106 -45q78 0 133 80q7 10 17 10q3 0 22 -10l49 -27q13 -6 13 -16z" />
    <glyph glyph-name="ordfeminine" unicode="&#xaa;" horiz-adv-x="680" 
d="M598 655q0 -24 -25 -24h-86q-24 0 -24 24v25q0 12 -10 12q-6 0 -17 -10q-56 -53 -108 -53h-49q-85 0 -143 53.5t-58 136.5v10q0 84 59 137q56 50 142 50h153q17 0 17 18v27q0 49 -35.5 83t-85.5 34q-68 0 -111 -76q-7 -12 -16 -12t-25 8l-78 41q-14 7 -14 18q0 13 25 49
q70 105 219 105q122 0 196 -69.5t74 -182.5v-404zM449 860v21q0 14 -15 14h-155q-52 0 -52 -51v-25q0 -53 52 -53h57q39 0 72.5 28.5t40.5 65.5z" />
    <glyph glyph-name="guillemotleft" unicode="&#xab;" horiz-adv-x="1135" 
d="M999 223q0 -22 -16 -22q-8 0 -16 6l-406 287q-8 8 -8 16v121q0 8 8 16l406 289q8 6 16 6q16 0 16 -22v-117q0 -8 -8 -17l-276 -198q-10 -10 -10 -17q0 -6 10 -16l276 -199q8 -8 8 -16v-117zM557 223q0 -22 -16 -22q-8 0 -17 6l-403 287q-8 8 -8 16v121q0 8 8 16l403 289
q9 6 17 6q16 0 16 -22v-117q0 -8 -8 -17l-277 -198q-10 -10 -10 -17q0 -6 10 -16l277 -199q8 -8 8 -16v-117z" />
    <glyph glyph-name="logicalnot" unicode="&#xac;" 
d="M952 266q0 -20 -20 -20h-92q-21 0 -21 20v328q0 20 -20 20h-686q-21 0 -21 21v82q0 20 21 20h819q20 0 20 -20v-451z" />
    <glyph glyph-name="minus" unicode="&#xad;" 
d="M952 451q0 -21 -20 -21h-819q-21 0 -21 21v81q0 21 21 21h819q20 0 20 -21v-81z" />
    <glyph glyph-name="minus" unicode="&#x2212;" 
d="M952 451q0 -21 -20 -21h-819q-21 0 -21 21v81q0 21 21 21h819q20 0 20 -21v-81z" />
    <glyph glyph-name="registered" unicode="&#xae;" horiz-adv-x="901" 
d="M823 901q0 -155 -100.5 -251.5t-267.5 -96.5h-9q-167 0 -267.5 96.5t-100.5 251.5v41q0 155 100.5 251.5t267.5 96.5h9q167 0 267.5 -96.5t100.5 -251.5v-41zM762 901v41q0 128 -84 207.5t-223 79.5h-9q-139 0 -223 -79.5t-84 -207.5v-41q0 -128 84 -207.5t223 -79.5h9
q139 0 223 79.5t84 207.5zM602 993q0 -59 -53 -100q-8 -6 -8 -14q0 -7 8 -23l39 -78q10 -20 10 -26q0 -15 -23 -15h-32q-13 0 -19 13l-47 108q-5 12 -18 12h-51q-21 0 -21 -20v-92q0 -21 -20 -21h-23q-20 0 -20 21v344q0 20 20 20h129q58 0 93.5 -35t35.5 -94zM537 999
q0 66 -64 66h-65q-21 0 -21 -21v-96q0 -20 21 -20h65q64 0 64 71z" />
    <glyph glyph-name="macron" unicode="&#xaf;" horiz-adv-x="1024" 
d="M748 1126q0 -20 -21 -20h-430q-21 0 -21 20v123q0 21 21 21h430q21 0 21 -21v-123z" />
    <glyph glyph-name="macron" unicode="&#x2c9;" horiz-adv-x="1024" 
d="M748 1126q0 -20 -21 -20h-430q-21 0 -21 20v123q0 21 21 21h430q21 0 21 -21v-123z" />
    <glyph glyph-name="degree" unicode="&#xb0;" horiz-adv-x="553" 
d="M471 926q0 -83 -52.5 -134t-142.5 -51q-88 0 -141 51.5t-53 133.5v198q0 83 53 135t141 52q89 0 142 -51t53 -134v-200zM336 926v200q0 23 -18 41.5t-42 18.5q-57 0 -57 -60v-200q0 -58 57 -58q24 0 42 17.5t18 40.5z" />
    <glyph glyph-name="plusminus" unicode="&#xb1;" 
d="M952 635q0 -21 -20 -21h-328q-20 0 -20 -20v-328q0 -20 -21 -20h-82q-20 0 -20 20v328q0 20 -21 20h-327q-21 0 -21 21v82q0 20 21 20h327q21 0 21 21v327q0 21 20 21h82q21 0 21 -21v-327q0 -21 20 -21h328q20 0 20 -20v-82zM952 20q0 -20 -20 -20h-819q-21 0 -21 20v82
q0 21 21 21h819q20 0 20 -21v-82z" />
    <glyph glyph-name="twosuperior" unicode="&#xb2;" horiz-adv-x="690" 
d="M610 965q0 -97 -79 -146q-25 -16 -156 -59q-68 -23 -90 -36q-37 -23 -37 -58v-13q0 -12 14 -12h328q12 0 12 -10v-105q0 -12 -12 -12h-481q-13 0 -13 12v92q0 120 71 181q44 38 148 69q90 28 107 37q43 22 43 66q0 94 -105 94h-53q-58 0 -108 -74q-9 -13 -19 -8l-104 49
q-13 6 -6 19q80 141 235 141h55q116 0 183 -63t67 -164z" />
    <glyph glyph-name="threesuperior" unicode="&#xb3;" horiz-adv-x="690" 
d="M600 676q0 -112 -69.5 -178t-186.5 -66h-39q-161 0 -237 139q-9 13 4 23l104 47q11 5 19 -6q47 -76 114 -76h35q47 0 79 31t32 76v47q0 43 -32 72.5t-79 29.5h-115q-12 0 -12 14v101q0 12 12 12h115q49 0 80 30.5t31 76.5v20q0 45 -31.5 75t-79.5 30h-35q-68 0 -114 -74
q-9 -17 -19 -6l-104 49q-12 5 -4 20q75 140 237 140h39q116 0 186 -67.5t70 -178.5v-23q0 -102 -94 -145q-7 -7 0 -10q94 -54 94 -162v-41z" />
    <glyph glyph-name="acute" unicode="&#xb4;" horiz-adv-x="1024" 
d="M801 1315q0 -11 -8 -19l-244 -239q-23 -23 -49 -23h-70q-20 0 -20 17q0 8 18 36l143 220q16 24 54 24h153q23 0 23 -16z" />
    <glyph glyph-name="mu" unicode="&#xb5;" horiz-adv-x="983" 
d="M850 20q0 -20 -21 -20h-122q-21 0 -21 20v25q0 25 -18 25q-4 0 -17 -9q-74 -61 -170 -61q-87 0 -164 31q-20 8 -20 -15v-323q0 -21 -21 -21h-143q-20 0 -20 21v1208q0 21 20 21h143q21 0 21 -21v-553q0 -75 54.5 -129.5t129.5 -54.5q76 0 130.5 54.5t54.5 129.5v553
q0 21 20 21h143q21 0 21 -21v-881z" />
    <glyph glyph-name="mu" unicode="&#x3bc;" horiz-adv-x="983" 
d="M850 20q0 -20 -21 -20h-122q-21 0 -21 20v25q0 25 -18 25q-4 0 -17 -9q-74 -61 -170 -61q-87 0 -164 31q-20 8 -20 -15v-323q0 -21 -21 -21h-143q-20 0 -20 21v1208q0 21 20 21h143q21 0 21 -21v-553q0 -75 54.5 -129.5t129.5 -54.5q76 0 130.5 54.5t54.5 129.5v553
q0 21 20 21h143q21 0 21 -21v-881z" />
    <glyph glyph-name="paragraph" unicode="&#xb6;" horiz-adv-x="1260" 
d="M1106 -440q0 -21 -21 -21h-143q-20 0 -20 21v1546q0 20 -21 20h-143q-21 0 -21 -20v-1546q0 -21 -20 -21h-144q-20 0 -20 21v604q0 20 -21 20h-40q-167 0 -269 100q-100 97 -100 248v390q0 167 100 267.5t269 100.5h593q21 0 21 -20v-1710z" />
    <glyph glyph-name="periodcentered" unicode="&#xb7;" 
d="M635 494q0 -48 -32.5 -80.5t-80.5 -32.5q-47 0 -79.5 32.5t-32.5 80.5q0 47 32.5 79.5t79.5 32.5q48 0 80.5 -32.5t32.5 -79.5z" />
    <glyph glyph-name="periodcentered" unicode="&#x2219;" 
d="M635 494q0 -48 -32.5 -80.5t-80.5 -32.5q-47 0 -79.5 32.5t-32.5 80.5q0 47 32.5 79.5t79.5 32.5q48 0 80.5 -32.5t32.5 -79.5z" />
    <glyph glyph-name="cedilla" unicode="&#xb8;" horiz-adv-x="1024" 
d="M639 -270q0 -85 -59.5 -138t-147.5 -53h-98q-21 0 -21 21v82q0 20 21 20h98q68 0 68 68v16q0 65 -66 76l-37 6q-20 3 -20 16q0 9 18 47l72 150q6 12 18 12q7 0 35 -6l58 -12q18 -4 18 -17q0 -3 -10 -24l-29 -60q-10 -21 -10 -26q0 -12 8 -14q84 -41 84 -148v-16z" />
    <glyph glyph-name="onesuperior" unicode="&#xb9;" horiz-adv-x="690" 
d="M596 526q0 -12 -12 -12h-447q-12 0 -12 12v103q0 12 12 12h135q15 0 15 14v275q0 25 -19 8l-61 -57q-9 -7 -19 0l-73 69q-10 9 0 19l229 219l14 4h62q12 0 12 -14v-523q0 -14 17 -14h135q12 0 12 -12v-103z" />
    <glyph glyph-name="ordmasculine" unicode="&#xba;" horiz-adv-x="659" 
d="M598 870q0 -113 -73 -183.5t-195 -70.5t-195.5 70.5t-73.5 183.5v187q0 113 73.5 183.5t195.5 70.5t195 -70.5t73 -183.5v-187zM449 870v187q0 47 -36 83t-83 36q-48 0 -83.5 -36t-35.5 -83v-187q0 -47 35.5 -82.5t83.5 -35.5q47 0 83 35.5t36 82.5z" />
    <glyph glyph-name="guillemotright" unicode="&#xbb;" horiz-adv-x="1135" 
d="M1022 510q0 -8 -8 -16l-404 -287q-8 -6 -16 -6q-16 0 -16 22v117q0 8 8 16l276 199q10 10 10 16q0 7 -10 17l-276 198q-8 9 -8 17v117q0 22 16 22q8 0 16 -6l404 -289q8 -8 8 -16v-121zM582 510q0 -8 -9 -16l-405 -287q-9 -6 -16 -6q-17 0 -17 22v117q0 8 8 16l277 199
q10 10 10 16q0 7 -10 17l-277 198q-8 9 -8 17v117q0 22 17 22q7 0 16 -6l405 -289q9 -8 9 -16v-121z" />
    <glyph glyph-name="onequarter" unicode="&#xbc;" horiz-adv-x="1954" 
d="M1286 1262l-534 -1250q-6 -12 -19 -12h-49q-31 0 -18 29l534 1249q5 12 19 12h49q30 0 18 -28zM1663 29q0 -13 -14 -13h-95q-12 0 -12 -12v-168q0 -12 -14 -12h-121q-12 0 -12 12v168q0 12 -15 12h-336q-14 0 -14 13v108l367 518q3 7 14 7h117q14 0 14 -13v-489
q0 -15 12 -15h95q14 0 14 -12v-104zM717 526q0 -12 -12 -12h-445q-14 0 -14 12v103q0 12 14 12h133q17 0 17 14v275q0 25 -19 8l-63 -57q-8 -7 -19 0l-71 69q-10 10 0 19l229 219l14 4h62q12 0 12 -14v-523q0 -14 16 -14h134q12 0 12 -12v-103zM1395 152v307q0 5 -7 7
q-7 3 -10 -1l-190 -305q-13 -21 8 -21h184q15 0 15 13z" />
    <glyph glyph-name="onehalf" unicode="&#xbd;" horiz-adv-x="1954" 
d="M1655 451q0 -97 -80 -146q-26 -16 -156 -59q-69 -23 -90 -36q-37 -23 -37 -58v-13q0 -12 15 -12h325q15 0 15 -10v-105q0 -12 -15 -12h-479q-12 0 -12 12v92q0 120 71 182q43 37 146 68q92 28 109 37q42 22 42 66q0 94 -106 94h-51q-61 0 -111 -74q-4 -14 -16 -8l-105 49
q-16 8 -6 19q77 141 236 141h53q116 0 184 -63t68 -164zM1286 1262l-534 -1250q-6 -12 -19 -12h-49q-31 0 -18 29l534 1249q5 12 19 12h49q30 0 18 -28zM717 526q0 -12 -12 -12h-445q-14 0 -14 12v103q0 12 14 12h133q17 0 17 14v275q0 25 -19 8l-63 -57q-8 -7 -19 0l-71 69
q-10 10 0 19l229 219l14 4h62q12 0 12 -14v-523q0 -14 16 -14h134q12 0 12 -12v-103z" />
    <glyph glyph-name="threequarters" unicode="&#xbe;" horiz-adv-x="1954" 
d="M1286 1262l-534 -1250q-6 -12 -19 -12h-49q-31 0 -18 29l534 1249q5 12 19 12h49q30 0 18 -28zM1663 29q0 -13 -14 -13h-95q-12 0 -12 -12v-168q0 -12 -14 -12h-121q-12 0 -12 12v168q0 12 -15 12h-336q-14 0 -14 13v108l367 518q3 7 14 7h117q14 0 14 -13v-489
q0 -15 12 -15h95q14 0 14 -12v-104zM758 676q0 -112 -70.5 -178t-187.5 -66h-39q-163 0 -236 139q-9 15 4 23l103 47q13 6 20 -6q45 -76 113 -76h35q47 0 78.5 31t31.5 76v47q0 43 -31 72.5t-79 29.5h-115q-12 0 -12 14v101q0 12 12 12h115q48 0 79 30.5t31 76.5v20
q0 45 -31.5 75t-78.5 30h-35q-71 0 -113 -74q-8 -15 -20 -6l-103 49q-11 5 -4 20q73 140 236 140h39q116 0 187 -68t71 -178v-23q0 -103 -96 -145q-7 -7 0 -10q96 -53 96 -162v-41zM1395 152v307q0 5 -7 7q-7 3 -10 -1l-190 -305q-13 -21 8 -21h184q15 0 15 13z" />
    <glyph glyph-name="questiondown" unicode="&#xbf;" 
d="M696 829q0 -47 -32.5 -79.5t-79.5 -32.5q-48 0 -80.5 32.5t-32.5 79.5q0 48 32.5 80.5t80.5 32.5q47 0 79.5 -32.5t32.5 -80.5zM918 -182q0 -21 -48 -80q-101 -127 -292 -127h-78q-168 0 -268.5 96.5t-100.5 251.5q0 152 82 236q44 44 166 102q74 35 103 63q44 42 44 107
q0 13 -3 38.5t-3 29.5q0 18 21 18h141q18 0 20 -16q9 -58 9 -99q0 -120 -80 -193q-36 -32 -162 -95q-76 -39 -107 -71q-47 -48 -47 -120q0 -75 54.5 -129.5t130.5 -54.5h78q114 0 170 114q6 13 18 13q7 0 31 -13l108 -55q13 -6 13 -16z" />
    <glyph glyph-name="Agrave" unicode="&#xc0;" horiz-adv-x="922" 
d="M555 1430q17 -23 -10 -23h-101q-17 0 -32 12l-260 207q-9 7 -6 16t14 9h211q15 0 26 -15zM920 16q0 -16 -23 -16h-154q-16 0 -20 14l-76 271q-3 12 -20 12h-332q-17 0 -21 -12l-75 -271q-4 -14 -21 -14h-153q-23 0 -23 16q0 3 21 70l362 1190q3 14 21 14h110q18 0 21 -14
l364 -1196q19 -61 19 -64zM590 479q0 -1 -12 47l-89 346q-10 37 -24 91h-8q-11 -39 -25 -93l-88 -335q-14 -55 -14 -56q0 -18 22 -18h215q23 0 23 18z" />
    <glyph glyph-name="Aacute" unicode="&#xc1;" horiz-adv-x="922" 
d="M772 1626l-260 -207q-15 -12 -33 -12h-100q-28 0 -10 23l157 206q11 15 27 15h211q11 0 14 -9t-6 -16zM920 16q0 -16 -23 -16h-154q-16 0 -20 14l-76 271q-3 12 -20 12h-332q-17 0 -21 -12l-75 -271q-4 -14 -21 -14h-153q-23 0 -23 16q0 3 21 70l362 1190q3 14 21 14h110
q18 0 21 -14l364 -1196q19 -61 19 -64zM590 479q0 -1 -12 47l-89 346q-10 37 -24 91h-8q-11 -39 -25 -93l-88 -335q-14 -55 -14 -56q0 -18 22 -18h215q23 0 23 18z" />
    <glyph glyph-name="Acircumflex" unicode="&#xc2;" horiz-adv-x="922" 
d="M692 1425q17 -22 -12 -22h-109q-12 0 -20 12l-74 111q-14 21 -28 0l-74 -111q-8 -12 -21 -12h-108q-29 0 -13 22l166 230q8 10 21 10h86q13 0 20 -10zM920 16q0 -16 -23 -16h-154q-16 0 -20 14l-76 271q-3 12 -20 12h-332q-17 0 -21 -12l-75 -271q-4 -14 -21 -14h-153
q-23 0 -23 16q0 3 21 70l362 1190q3 14 21 14h110q18 0 21 -14l364 -1196q19 -61 19 -64zM590 479q0 -1 -12 47l-89 346q-10 37 -24 91h-8q-11 -39 -25 -93l-88 -335q-14 -55 -14 -56q0 -18 22 -18h215q23 0 23 18z" />
    <glyph glyph-name="Atilde" unicode="&#xc3;" horiz-adv-x="922" 
d="M741 1559q-78 -127 -182 -127q-41 0 -102.5 34.5t-89.5 34.5q-50 0 -93 -53q-13 -16 -26 -6l-53 39q-13 9 -5 24q74 123 177 123q44 0 104 -32.5t88 -32.5q49 0 96 55q16 18 31 6l51 -39q14 -10 4 -26zM920 16q0 -16 -23 -16h-154q-16 0 -20 14l-76 271q-3 12 -20 12
h-332q-17 0 -21 -12l-75 -271q-4 -14 -21 -14h-153q-23 0 -23 16q0 3 21 70l362 1190q3 14 21 14h110q18 0 21 -14l364 -1196q19 -61 19 -64zM590 479q0 -1 -12 47l-89 346q-10 37 -24 91h-8q-11 -39 -25 -93l-88 -335q-14 -55 -14 -56q0 -18 22 -18h215q23 0 23 18z" />
    <glyph glyph-name="Adieresis" unicode="&#xc4;" horiz-adv-x="922" 
d="M715 1534q0 -42 -29.5 -72t-71.5 -30t-70 30t-28 72q0 41 28.5 69.5t69.5 28.5q43 0 72 -28t29 -70zM408 1534q0 -42 -29 -72t-70 -30q-42 0 -70 30t-28 72t28 70t70 28q43 0 71 -28t28 -70zM920 16q0 -16 -23 -16h-154q-16 0 -20 14l-76 271q-3 12 -20 12h-332
q-17 0 -21 -12l-75 -271q-4 -14 -21 -14h-153q-23 0 -23 16q0 3 21 70l362 1190q3 14 21 14h110q18 0 21 -14l364 -1196q19 -61 19 -64zM590 479q0 -1 -12 47l-89 346q-10 37 -24 91h-8q-11 -39 -25 -93l-88 -335q-14 -55 -14 -56q0 -18 22 -18h215q23 0 23 18z" />
    <glyph glyph-name="Aring" unicode="&#xc5;" horiz-adv-x="922" 
d="M920 16q0 -16 -23 -16h-154q-16 0 -20 14l-76 271q-3 12 -20 12h-332q-17 0 -21 -12l-75 -271q-4 -14 -21 -14h-153q-23 0 -23 16q0 3 21 70l329 1085q10 34 10 39q0 12 -10 19q-76 50 -76 145v62q0 77 50.5 125.5t134.5 48.5t134 -48.5t50 -125.5v-62q0 -95 -72 -143
q-12 -8 -12 -21q0 -12 8 -39l332 -1091q19 -61 19 -64zM553 1374v62q0 37 -27.5 64.5t-64.5 27.5t-64.5 -27.5t-27.5 -64.5v-62q0 -37 27.5 -64.5t64.5 -27.5t64.5 27.5t27.5 64.5zM590 479q0 -1 -12 47l-89 346q-10 37 -24 91h-8q-11 -39 -25 -93l-88 -335q-14 -55 -14 -56
q0 -18 22 -18h215q23 0 23 18z" />
    <glyph glyph-name="AE" unicode="&#xc6;" horiz-adv-x="1430" 
d="M1337 20q0 -20 -20 -20h-696q-21 0 -21 20v256q0 21 -20 21h-336q-14 0 -21 -12l-153 -275q-6 -10 -19 -10h-149q-23 0 -23 16q0 8 19 39l723 1225q6 10 18 10h678q20 0 20 -20v-123q0 -21 -20 -21h-512q-21 0 -21 -20v-348q0 -21 21 -21h420q20 0 20 -20v-123
q0 -21 -20 -21h-420q-21 0 -21 -20v-369q0 -20 21 -20h512q20 0 20 -21v-123zM606 946l-8 2q-10 -26 -37 -74l-199 -350q-22 -39 -22 -47q0 -16 22 -16h218q20 0 20 20v158q0 233 6 307z" />
    <glyph glyph-name="Ccedilla" unicode="&#xc7;" horiz-adv-x="952" 
d="M895 190q0 -21 -45 -79q-101 -131 -297 -131q-18 0 -31 -25l-18 -37q-9 -17 6 -24q84 -40 84 -148v-16q0 -85 -59.5 -138t-147.5 -53h-98q-21 0 -21 21v82q0 20 21 20h98q68 0 68 68v16q0 65 -66 76l-37 6q-30 5 -18 29l45 94q10 17 10 26q0 14 -18 19
q-116 33 -182 120.5t-66 211.5v635q0 155 100.5 251.5t268.5 96.5h61q192 0 291 -123q49 -61 49 -82q0 -12 -12 -19l-107 -53q-29 -14 -35 -14q-10 0 -16 12q-57 115 -170 115h-61q-76 0 -130.5 -54.5t-54.5 -129.5v-635q0 -76 54.5 -130.5t130.5 -54.5h61q113 0 172 119
q6 12 16 12q5 0 33 -14l109 -55q12 -6 12 -15z" />
    <glyph glyph-name="Egrave" unicode="&#xc8;" horiz-adv-x="983" 
d="M618 1430q18 -23 -10 -23h-100q-17 0 -33 12l-260 207q-9 7 -6 16t14 9h211q16 0 27 -15zM891 20q0 -20 -21 -20h-696q-20 0 -20 20v1250q0 20 20 20h696q21 0 21 -20v-123q0 -21 -21 -21h-512q-20 0 -20 -20v-348q0 -21 20 -21h420q21 0 21 -20v-123q0 -21 -21 -21h-420
q-20 0 -20 -20v-369q0 -20 20 -20h512q21 0 21 -21v-123z" />
    <glyph glyph-name="Eacute" unicode="&#xc9;" horiz-adv-x="983" 
d="M836 1626l-261 -207q-15 -12 -32 -12h-101q-27 0 -10 23l158 206q11 15 26 15h211q11 0 14 -9t-5 -16zM891 20q0 -20 -21 -20h-696q-20 0 -20 20v1250q0 20 20 20h696q21 0 21 -20v-123q0 -21 -21 -21h-512q-20 0 -20 -20v-348q0 -21 20 -21h420q21 0 21 -20v-123
q0 -21 -21 -21h-420q-20 0 -20 -20v-369q0 -20 20 -20h512q21 0 21 -21v-123z" />
    <glyph glyph-name="Ecircumflex" unicode="&#xca;" horiz-adv-x="983" 
d="M756 1425q16 -22 -13 -22h-108q-12 0 -21 12l-73 111q-7 10 -15 10q-7 0 -14 -10l-74 -111q-8 -12 -20 -12h-109q-28 0 -12 22l166 230q7 10 20 10h86q13 0 21 -10zM891 20q0 -20 -21 -20h-696q-20 0 -20 20v1250q0 20 20 20h696q21 0 21 -20v-123q0 -21 -21 -21h-512
q-20 0 -20 -20v-348q0 -21 20 -21h420q21 0 21 -20v-123q0 -21 -21 -21h-420q-20 0 -20 -20v-369q0 -20 20 -20h512q21 0 21 -21v-123z" />
    <glyph glyph-name="Edieresis" unicode="&#xcb;" horiz-adv-x="983" 
d="M778 1534q0 -42 -29.5 -72t-70.5 -30q-42 0 -70 30t-28 72q0 41 28 69.5t70 28.5q43 0 71.5 -28t28.5 -70zM471 1534q0 -42 -28.5 -72t-69.5 -30q-43 0 -71 30t-28 72t28 70t71 28q42 0 70 -28t28 -70zM891 20q0 -20 -21 -20h-696q-20 0 -20 20v1250q0 20 20 20h696
q21 0 21 -20v-123q0 -21 -21 -21h-512q-20 0 -20 -20v-348q0 -21 20 -21h420q21 0 21 -20v-123q0 -21 -21 -21h-420q-20 0 -20 -20v-369q0 -20 20 -20h512q21 0 21 -21v-123z" />
    <glyph glyph-name="Igrave" unicode="&#xcc;" horiz-adv-x="492" 
d="M338 1430q17 -23 -10 -23h-101q-17 0 -32 12l-261 207q-8 7 -5 16t14 9h211q15 0 26 -15zM338 20q0 -20 -21 -20h-143q-20 0 -20 20v1250q0 20 20 20h143q21 0 21 -20v-1250z" />
    <glyph glyph-name="Iacute" unicode="&#xcd;" horiz-adv-x="492" 
d="M555 1626l-260 -207q-16 -12 -33 -12h-100q-28 0 -10 23l157 206q11 15 27 15h211q11 0 14 -9t-6 -16zM338 20q0 -20 -21 -20h-143q-20 0 -20 20v1250q0 20 20 20h143q21 0 21 -20v-1250z" />
    <glyph glyph-name="Icircumflex" unicode="&#xce;" horiz-adv-x="492" 
d="M475 1425q16 -22 -12 -22h-109q-12 0 -20 12l-74 111q-7 10 -14 10q-8 0 -15 -10l-73 -111q-8 -12 -21 -12h-108q-29 0 -13 22l166 230q8 10 21 10h86q13 0 20 -10zM338 20q0 -20 -21 -20h-143q-20 0 -20 20v1250q0 20 20 20h143q21 0 21 -20v-1250z" />
    <glyph glyph-name="Idieresis" unicode="&#xcf;" horiz-adv-x="492" 
d="M498 1534q0 -42 -29.5 -72t-71.5 -30t-70 30t-28 72q0 41 28.5 69.5t69.5 28.5q43 0 72 -28t29 -70zM190 1534q0 -42 -28.5 -72t-69.5 -30q-42 0 -70 30t-28 72t28 70t70 28q43 0 70.5 -28t27.5 -70zM338 20q0 -20 -21 -20h-143q-20 0 -20 20v1250q0 20 20 20h143
q21 0 21 -20v-1250z" />
    <glyph glyph-name="Eth" unicode="&#xd0;" horiz-adv-x="1075" 
d="M952 369q0 -170 -99.5 -269.5t-268.5 -99.5h-410q-20 0 -20 20v527q0 16 -17 16h-84q-20 0 -20 21v118q0 21 20 21h84q17 0 17 16v531q0 20 20 20h410q169 0 268.5 -99.5t99.5 -268.5v-553zM768 348v594q0 75 -54.5 129.5t-129.5 54.5h-226q-20 0 -20 -20v-365
q0 -18 18 -18h138q20 0 20 -21v-118q0 -21 -20 -21h-138q-18 0 -18 -16v-363q0 -20 20 -20h226q75 0 129.5 54.5t54.5 129.5z" />
    <glyph glyph-name="Ntilde" unicode="&#xd1;" horiz-adv-x="1137" 
d="M848 1559q-78 -127 -182 -127q-41 0 -102.5 34.5t-90.5 34.5q-49 0 -92 -53q-13 -16 -27 -6l-53 39q-13 9 -4 24q73 123 176 123q45 0 105 -32.5t88 -32.5q48 0 96 55q15 18 31 6l51 -39q14 -10 4 -26zM983 20q0 -20 -20 -20h-132q-12 0 -18 10l-436 793q-29 52 -37 74
l-8 -3q6 -73 6 -475v-379q0 -20 -21 -20h-143q-20 0 -20 20v1250q0 20 20 20h131q13 0 19 -10l436 -795q29 -53 37 -73l8 2q-6 73 -6 475v381q0 20 20 20h144q20 0 20 -20v-1250z" />
    <glyph glyph-name="Ograve" unicode="&#xd2;" 
d="M614 1430q18 -23 -10 -23h-100q-18 0 -33 12l-260 207q-9 7 -6 16t14 9h211q16 0 27 -15zM922 328q0 -155 -101 -251.5t-268 -96.5h-61q-168 0 -268.5 96.5t-100.5 251.5v635q0 155 100.5 251.5t268.5 96.5h61q167 0 268 -96.5t101 -251.5v-635zM737 328v635
q0 75 -54.5 129.5t-129.5 54.5h-61q-76 0 -130.5 -54.5t-54.5 -129.5v-635q0 -76 54.5 -130.5t130.5 -54.5h61q75 0 129.5 54.5t54.5 130.5z" />
    <glyph glyph-name="Oacute" unicode="&#xd3;" 
d="M831 1626l-260 -207q-15 -12 -32 -12h-101q-27 0 -10 23l158 206q11 15 26 15h211q11 0 14 -9t-6 -16zM922 328q0 -155 -101 -251.5t-268 -96.5h-61q-168 0 -268.5 96.5t-100.5 251.5v635q0 155 100.5 251.5t268.5 96.5h61q167 0 268 -96.5t101 -251.5v-635zM737 328v635
q0 75 -54.5 129.5t-129.5 54.5h-61q-76 0 -130.5 -54.5t-54.5 -129.5v-635q0 -76 54.5 -130.5t130.5 -54.5h61q75 0 129.5 54.5t54.5 130.5z" />
    <glyph glyph-name="Ocircumflex" unicode="&#xd4;" 
d="M752 1425q16 -22 -13 -22h-108q-13 0 -21 12l-73 111q-7 10 -15 10q-7 0 -14 -10l-74 -111q-8 -12 -20 -12h-109q-28 0 -12 22l166 230q7 10 20 10h86q13 0 21 -10zM922 328q0 -155 -101 -251.5t-268 -96.5h-61q-168 0 -268.5 96.5t-100.5 251.5v635q0 155 100.5 251.5
t268.5 96.5h61q167 0 268 -96.5t101 -251.5v-635zM737 328v635q0 75 -54.5 129.5t-129.5 54.5h-61q-76 0 -130.5 -54.5t-54.5 -129.5v-635q0 -76 54.5 -130.5t130.5 -54.5h61q75 0 129.5 54.5t54.5 130.5z" />
    <glyph glyph-name="Otilde" unicode="&#xd5;" 
d="M801 1559q-78 -127 -183 -127q-40 0 -101.5 34.5t-90.5 34.5q-49 0 -92 -53q-13 -16 -27 -6l-53 39q-13 9 -4 24q73 123 176 123q45 0 105 -32.5t87 -32.5q49 0 97 55q15 18 30 6l52 -39q14 -10 4 -26zM922 328q0 -155 -101 -251.5t-268 -96.5h-61q-168 0 -268.5 96.5
t-100.5 251.5v635q0 155 100.5 251.5t268.5 96.5h61q167 0 268 -96.5t101 -251.5v-635zM737 328v635q0 75 -54.5 129.5t-129.5 54.5h-61q-76 0 -130.5 -54.5t-54.5 -129.5v-635q0 -76 54.5 -130.5t130.5 -54.5h61q75 0 129.5 54.5t54.5 130.5z" />
    <glyph glyph-name="Odieresis" unicode="&#xd6;" 
d="M774 1534q0 -42 -29.5 -72t-70.5 -30q-42 0 -70.5 30t-28.5 72q0 41 28.5 69.5t70.5 28.5q43 0 71.5 -28t28.5 -70zM467 1534q0 -42 -28.5 -72t-69.5 -30q-43 0 -71 30t-28 72t28 70t71 28q42 0 70 -28t28 -70zM922 328q0 -155 -101 -251.5t-268 -96.5h-61
q-168 0 -268.5 96.5t-100.5 251.5v635q0 155 100.5 251.5t268.5 96.5h61q167 0 268 -96.5t101 -251.5v-635zM737 328v635q0 75 -54.5 129.5t-129.5 54.5h-61q-76 0 -130.5 -54.5t-54.5 -129.5v-635q0 -76 54.5 -130.5t130.5 -54.5h61q75 0 129.5 54.5t54.5 130.5z" />
    <glyph glyph-name="Oslash" unicode="&#xd8;" 
d="M922 328q0 -155 -101 -251.5t-268 -96.5h-61q-168 0 -268.5 96.5t-100.5 251.5v635q0 155 100.5 251.5t268.5 96.5h61q167 0 268 -96.5t101 -251.5v-635zM668 1096q0 16 -35 33.5t-80 17.5h-61q-76 0 -130.5 -54.5t-54.5 -129.5v-639q0 -19 10 -19q14 0 19 12l317 734
q15 33 15 45zM737 328v612q0 29 -12 29q-11 0 -20 -23l-304 -708q-18 -44 -18 -50q0 -17 33.5 -31t75.5 -14h61q75 0 129.5 54.5t54.5 130.5z" />
    <glyph glyph-name="Ugrave" unicode="&#xd9;" 
d="M614 1430q18 -23 -10 -23h-100q-18 0 -33 12l-260 207q-9 7 -6 16t14 9h211q16 0 27 -15zM922 328q0 -155 -101 -251.5t-268 -96.5h-61q-168 0 -268.5 96.5t-100.5 251.5v942q0 20 20 20h144q20 0 20 -20v-942q0 -76 54.5 -130.5t130.5 -54.5h61q75 0 129.5 54.5
t54.5 130.5v942q0 20 21 20h143q21 0 21 -20v-942z" />
    <glyph glyph-name="Uacute" unicode="&#xda;" 
d="M831 1626l-260 -207q-15 -12 -32 -12h-101q-27 0 -10 23l158 206q11 15 26 15h211q11 0 14 -9t-6 -16zM922 328q0 -155 -101 -251.5t-268 -96.5h-61q-168 0 -268.5 96.5t-100.5 251.5v942q0 20 20 20h144q20 0 20 -20v-942q0 -76 54.5 -130.5t130.5 -54.5h61
q75 0 129.5 54.5t54.5 130.5v942q0 20 21 20h143q21 0 21 -20v-942z" />
    <glyph glyph-name="Ucircumflex" unicode="&#xdb;" 
d="M752 1425q16 -22 -13 -22h-108q-13 0 -21 12l-73 111q-7 10 -15 10q-7 0 -14 -10l-74 -111q-8 -12 -20 -12h-109q-28 0 -12 22l166 230q7 10 20 10h86q13 0 21 -10zM922 328q0 -155 -101 -251.5t-268 -96.5h-61q-168 0 -268.5 96.5t-100.5 251.5v942q0 20 20 20h144
q20 0 20 -20v-942q0 -76 54.5 -130.5t130.5 -54.5h61q75 0 129.5 54.5t54.5 130.5v942q0 20 21 20h143q21 0 21 -20v-942z" />
    <glyph glyph-name="Udieresis" unicode="&#xdc;" 
d="M774 1534q0 -42 -29.5 -72t-70.5 -30q-42 0 -70.5 30t-28.5 72q0 41 28.5 69.5t70.5 28.5q43 0 71.5 -28t28.5 -70zM467 1534q0 -42 -28.5 -72t-69.5 -30q-43 0 -71 30t-28 72t28 70t71 28q42 0 70 -28t28 -70zM922 328q0 -155 -101 -251.5t-268 -96.5h-61
q-168 0 -268.5 96.5t-100.5 251.5v942q0 20 20 20h144q20 0 20 -20v-942q0 -76 54.5 -130.5t130.5 -54.5h61q75 0 129.5 54.5t54.5 130.5v942q0 20 21 20h143q21 0 21 -20v-942z" />
    <glyph glyph-name="Yacute" unicode="&#xdd;" horiz-adv-x="922" 
d="M748 1626l-261 -207q-15 -12 -32 -12h-101q-27 0 -10 23l158 206q11 15 26 15h211q11 0 14 -9t-5 -16zM913 1274q0 -7 -18 -41l-328 -612q-14 -27 -14 -64v-537q0 -20 -21 -20h-143q-20 0 -20 20v539q0 35 -15 62l-334 622q-12 23 -12 31q0 16 23 16h168q10 0 18 -12
l225 -467q8 -16 19 -16q10 0 18 16l226 467q8 12 18 12h168q22 0 22 -16z" />
    <glyph glyph-name="Thorn" unicode="&#xde;" horiz-adv-x="993" 
d="M952 676q0 -152 -101 -250t-267 -98h-226q-20 0 -20 -21v-287q0 -20 -21 -20h-143q-20 0 -20 20v1250q0 20 20 20h143q21 0 21 -20v-205q0 -21 24 -21h222q168 0 268 -100t100 -268zM768 676v20q0 76 -54.5 130.5t-129.5 54.5h-226q-20 0 -20 -21v-348q0 -20 20 -20h226
q75 0 129.5 54.5t54.5 129.5z" />
    <glyph glyph-name="germandbls" unicode="&#xdf;" horiz-adv-x="987" 
d="M901 344q0 -262 -225 -340q-66 -22 -123 -22q-21 0 -21 20v123q0 18 17 20q75 13 121.5 64.5t46.5 118.5v61q0 67 -46.5 118.5t-121.5 63.5q-17 3 -17 21v127q0 18 17 20q75 13 121.5 64t46.5 119v41q0 75 -54.5 129.5t-130.5 54.5q-81 0 -132.5 -53.5t-51.5 -130.5v-943
q0 -20 -20 -20h-144q-20 0 -20 20v625q0 21 -21 21h-51q-20 0 -20 20v123q0 20 20 20h51q21 0 21 21v92q0 154 107.5 261.5t260.5 107.5q169 0 269 -100t100 -269v-41q0 -60 -39 -128t-90 -103q-10 -5 -10 -17q0 -6 10 -16q51 -38 90 -110t39 -132v-51z" />
    <glyph glyph-name="agrave" unicode="&#xe0;" horiz-adv-x="973" 
d="M571 1051q0 -17 -20 -17h-70q-26 0 -49 23l-235 231q-17 13 -17 27q0 16 23 16h153q38 0 54 -24l145 -224q16 -25 16 -32zM840 20q0 -20 -21 -20h-123q-20 0 -20 20v27q0 25 -19 25q-4 0 -16 -9q-77 -63 -162 -63h-80q-115 0 -193.5 71.5t-78.5 184.5v12q0 115 79 186
q77 68 193 68h236q20 0 20 21v57q0 77 -53.5 128.5t-132.5 51.5q-106 0 -170 -114q-7 -13 -16 -13q-4 0 -35 17l-103 53q-12 6 -12 16q0 15 41 70q100 133 295 133q168 0 269.5 -94t101.5 -248v-580zM655 313v45q0 21 -20 21h-236q-38 0 -64 -26t-26 -64v-33q0 -39 26 -65.5
t64 -26.5h80q61 0 113 45.5t63 103.5z" />
    <glyph glyph-name="aacute" unicode="&#xe1;" horiz-adv-x="973" 
d="M801 1315q0 -11 -8 -19l-244 -239q-23 -23 -49 -23h-70q-20 0 -20 17q0 8 18 36l143 220q16 24 54 24h153q23 0 23 -16zM840 20q0 -20 -21 -20h-123q-20 0 -20 20v27q0 25 -19 25q-4 0 -16 -9q-77 -63 -162 -63h-80q-115 0 -193.5 71.5t-78.5 184.5v12q0 115 79 186
q77 68 193 68h236q20 0 20 21v57q0 77 -53.5 128.5t-132.5 51.5q-106 0 -170 -114q-7 -13 -16 -13q-4 0 -35 17l-103 53q-12 6 -12 16q0 15 41 70q100 133 295 133q168 0 269.5 -94t101.5 -248v-580zM655 313v45q0 21 -20 21h-236q-38 0 -64 -26t-26 -64v-33q0 -39 26 -65.5
t64 -26.5h80q61 0 113 45.5t63 103.5z" />
    <glyph glyph-name="acircumflex" unicode="&#xe2;" horiz-adv-x="973" 
d="M733 1051q0 -17 -22 -17h-99q-9 0 -16 10l-90 140q-6 12 -17 12q-8 0 -14 -12l-88 -140q-6 -10 -16 -10h-99q-22 0 -22 17q0 7 6 16l182 256q8 8 17 8h73q9 0 17 -8l182 -256q6 -9 6 -16zM840 20q0 -20 -21 -20h-123q-20 0 -20 20v27q0 25 -19 25q-4 0 -16 -9
q-77 -63 -162 -63h-80q-115 0 -193.5 71.5t-78.5 184.5v12q0 115 79 186q77 68 193 68h236q20 0 20 21v57q0 77 -53.5 128.5t-132.5 51.5q-106 0 -170 -114q-7 -13 -16 -13q-4 0 -35 17l-103 53q-12 6 -12 16q0 15 41 70q100 133 295 133q168 0 269.5 -94t101.5 -248v-580z
M655 313v45q0 21 -20 21h-236q-38 0 -64 -26t-26 -64v-33q0 -39 26 -65.5t64 -26.5h80q61 0 113 45.5t63 103.5z" />
    <glyph glyph-name="atilde" unicode="&#xe3;" horiz-adv-x="973" 
d="M786 1206q0 -14 -32 -59q-66 -90 -146 -90q-56 0 -129 51l-41 29q-38 26 -73 26q-54 0 -97 -57q-6 -8 -16 -8q-6 0 -21 10l-36 27q-11 7 -11 16q0 7 27 45q71 100 154 100q66 0 129 -49l38 -30q34 -27 64 -27q67 0 113 61q6 9 16 9t20 -11l33 -26q8 -6 8 -17zM840 20
q0 -20 -21 -20h-123q-20 0 -20 20v27q0 25 -19 25q-4 0 -16 -9q-77 -63 -162 -63h-80q-115 0 -193.5 71.5t-78.5 184.5v12q0 115 79 186q77 68 193 68h236q20 0 20 21v57q0 77 -53.5 128.5t-132.5 51.5q-106 0 -170 -114q-7 -13 -16 -13q-4 0 -35 17l-103 53q-12 6 -12 16
q0 15 41 70q100 133 295 133q168 0 269.5 -94t101.5 -248v-580zM655 313v45q0 21 -20 21h-236q-38 0 -64 -26t-26 -64v-33q0 -39 26 -65.5t64 -26.5h80q61 0 113 45.5t63 103.5z" />
    <glyph glyph-name="adieresis" unicode="&#xe4;" horiz-adv-x="973" 
d="M754 1176q0 -42 -30.5 -72.5t-72.5 -30.5q-41 0 -71.5 30.5t-30.5 72.5q0 41 30.5 71.5t71.5 30.5q42 0 72.5 -30.5t30.5 -71.5zM432 1176q0 -42 -30.5 -72.5t-71.5 -30.5q-42 0 -72.5 30.5t-30.5 72.5q0 41 30.5 71.5t72.5 30.5q41 0 71.5 -30.5t30.5 -71.5zM840 20
q0 -20 -21 -20h-123q-20 0 -20 20v27q0 25 -19 25q-4 0 -16 -9q-77 -63 -162 -63h-80q-115 0 -193.5 71.5t-78.5 184.5v12q0 115 79 186q77 68 193 68h236q20 0 20 21v57q0 77 -53.5 128.5t-132.5 51.5q-106 0 -170 -114q-7 -13 -16 -13q-4 0 -35 17l-103 53q-12 6 -12 16
q0 15 41 70q100 133 295 133q168 0 269.5 -94t101.5 -248v-580zM655 313v45q0 21 -20 21h-236q-38 0 -64 -26t-26 -64v-33q0 -39 26 -65.5t64 -26.5h80q61 0 113 45.5t63 103.5z" />
    <glyph glyph-name="aring" unicode="&#xe5;" horiz-adv-x="973" 
d="M676 1208q0 -77 -50.5 -125.5t-133.5 -48.5q-84 0 -134.5 48.5t-50.5 125.5v62q0 77 50.5 125.5t134.5 48.5q83 0 133.5 -48.5t50.5 -125.5v-62zM840 20q0 -20 -21 -20h-123q-20 0 -20 20v27q0 25 -19 25q-4 0 -16 -9q-77 -63 -162 -63h-80q-115 0 -193.5 71.5
t-78.5 184.5v12q0 115 79 186q77 68 193 68h236q20 0 20 21v57q0 77 -53.5 128.5t-132.5 51.5q-106 0 -170 -114q-7 -13 -16 -13q-4 0 -35 17l-103 53q-12 6 -12 16q0 15 41 70q100 133 295 133q168 0 269.5 -94t101.5 -248v-580zM584 1208v62q0 37 -28 64.5t-64 27.5
q-37 0 -65 -27.5t-28 -64.5v-62q0 -37 28 -64.5t65 -27.5q36 0 64 27.5t28 64.5zM655 313v45q0 21 -20 21h-236q-38 0 -64 -26t-26 -64v-33q0 -39 26 -65.5t64 -26.5h80q61 0 113 45.5t63 103.5z" />
    <glyph glyph-name="ae" unicode="&#xe6;" horiz-adv-x="1520" 
d="M1417 451q0 -21 -20 -21h-512q-21 0 -21 -20v-82q0 -76 54.5 -130.5t130.5 -54.5q112 0 172 119q6 12 16 12q4 0 25 -10l116 -59q13 -6 13 -15q0 -15 -37 -69q-97 -141 -305 -141q-191 0 -287 116q-10 10 -17 10q-9 0 -16 -10q-36 -51 -108 -86q-64 -30 -115 -30h-103
q-117 0 -195 70q-81 72 -81 186v40q0 112 81 176q75 60 195 60h256q21 0 21 20v58q0 75 -54.5 129.5t-129.5 54.5q-114 0 -170 -115q-6 -12 -19 -12q-6 0 -31 12l-108 56q-12 6 -12 16q0 9 26 51q102 160 314 160q150 0 247 -82q32 -26 35 -26q4 0 33 24q98 84 238 84
q160 0 268 -113q100 -103 100 -235v-143zM1233 594q0 75 -54.5 129.5t-129.5 54.5q-76 0 -130.5 -54.5t-54.5 -129.5q0 -21 21 -21h327q21 0 21 21zM680 291v57q0 21 -21 21h-256q-36 0 -64 -28t-28 -65v-40q0 -37 28 -65t64 -28h103q55 0 106 47q46 43 68 101z" />
    <glyph glyph-name="ccedilla" unicode="&#xe7;" horiz-adv-x="877" 
d="M813 188q0 -25 -59 -94q-82 -93 -217 -110q-20 -3 -29 -21l-14 -29q-11 -20 -11 -26q0 -12 9 -14q83 -41 83 -148v-16q0 -85 -59.5 -138t-146.5 -53h-99q-20 0 -20 21v82q0 20 20 20h99q67 0 67 68v16q0 65 -65 76l-37 6q-21 3 -21 16q0 9 17 45l2 2l35 72q11 24 -9 29
q-119 30 -187.5 120t-68.5 216v266q0 155 101 251.5t268 96.5q190 0 291 -123q49 -60 49 -82q0 -12 -12 -18l-107 -53q-28 -15 -35 -15q-10 0 -16 13q-57 114 -170 114q-75 0 -129.5 -54.5t-54.5 -129.5v-266q0 -76 54.5 -130.5t129.5 -54.5q113 0 172 119q6 12 16 12
q5 0 25 -10l117 -59q12 -6 12 -17z" />
    <glyph glyph-name="egrave" unicode="&#xe8;" horiz-adv-x="942" 
d="M561 1051q0 -17 -20 -17h-70q-26 0 -49 23l-236 231q-16 13 -16 27q0 16 23 16h153q37 0 53 -24l146 -224q16 -25 16 -32zM840 451q0 -21 -21 -21h-512q-20 0 -20 -20v-82q0 -76 54.5 -130.5t129.5 -54.5q113 0 172 119q6 12 16 12q5 0 25 -10l117 -59q12 -6 12 -17
q0 -25 -59 -94q-100 -114 -283 -114q-167 0 -268 96.5t-101 251.5v266q0 132 100 235q109 113 269 113q161 0 269 -113q100 -103 100 -235v-143zM655 594q0 75 -54.5 129.5t-129.5 54.5t-129.5 -54.5t-54.5 -129.5q0 -21 20 -21h328q20 0 20 21z" />
    <glyph glyph-name="eacute" unicode="&#xe9;" horiz-adv-x="942" 
d="M791 1315q0 -11 -9 -19l-243 -239q-23 -23 -50 -23h-69q-21 0 -21 17q0 8 19 36l143 220q16 24 53 24h154q23 0 23 -16zM840 451q0 -21 -21 -21h-512q-20 0 -20 -20v-82q0 -76 54.5 -130.5t129.5 -54.5q113 0 172 119q6 12 16 12q5 0 25 -10l117 -59q12 -6 12 -17
q0 -25 -59 -94q-100 -114 -283 -114q-167 0 -268 96.5t-101 251.5v266q0 132 100 235q109 113 269 113q161 0 269 -113q100 -103 100 -235v-143zM655 594q0 75 -54.5 129.5t-129.5 54.5t-129.5 -54.5t-54.5 -129.5q0 -21 20 -21h328q20 0 20 21z" />
    <glyph glyph-name="ecircumflex" unicode="&#xea;" horiz-adv-x="942" 
d="M723 1051q0 -17 -23 -17h-98q-10 0 -16 10l-90 140q-7 12 -17 12q-8 0 -14 -12l-88 -140q-7 -10 -17 -10h-98q-22 0 -22 17q0 7 6 16l182 256q8 8 16 8h74q8 0 17 -8l182 -256q6 -9 6 -16zM840 451q0 -21 -21 -21h-512q-20 0 -20 -20v-82q0 -76 54.5 -130.5t129.5 -54.5
q113 0 172 119q6 12 16 12q5 0 25 -10l117 -59q12 -6 12 -17q0 -25 -59 -94q-100 -114 -283 -114q-167 0 -268 96.5t-101 251.5v266q0 132 100 235q109 113 269 113q161 0 269 -113q100 -103 100 -235v-143zM655 594q0 75 -54.5 129.5t-129.5 54.5t-129.5 -54.5
t-54.5 -129.5q0 -21 20 -21h328q20 0 20 21z" />
    <glyph glyph-name="edieresis" unicode="&#xeb;" horiz-adv-x="942" 
d="M743 1176q0 -42 -30.5 -72.5t-71.5 -30.5t-71.5 30.5t-30.5 72.5q0 41 30.5 71.5t71.5 30.5t71.5 -30.5t30.5 -71.5zM422 1176q0 -42 -30.5 -72.5t-72.5 -30.5q-41 0 -71.5 30.5t-30.5 72.5q0 41 30.5 71.5t71.5 30.5q42 0 72.5 -30.5t30.5 -71.5zM840 451q0 -21 -21 -21
h-512q-20 0 -20 -20v-82q0 -76 54.5 -130.5t129.5 -54.5q113 0 172 119q6 12 16 12q5 0 25 -10l117 -59q12 -6 12 -17q0 -25 -59 -94q-100 -114 -283 -114q-167 0 -268 96.5t-101 251.5v266q0 132 100 235q109 113 269 113q161 0 269 -113q100 -103 100 -235v-143zM655 594
q0 75 -54.5 129.5t-129.5 54.5t-129.5 -54.5t-54.5 -129.5q0 -21 20 -21h328q20 0 20 21z" />
    <glyph glyph-name="igrave" unicode="&#xec;" horiz-adv-x="451" 
d="M313 1051q0 -17 -20 -17h-70q-26 0 -49 23l-235 231q-17 13 -17 27q0 16 23 16h153q38 0 54 -24l145 -224q16 -25 16 -32zM317 20q0 -20 -20 -20h-143q-21 0 -21 20v881q0 21 21 21h143q20 0 20 -21v-881z" />
    <glyph glyph-name="iacute" unicode="&#xed;" horiz-adv-x="451" 
d="M543 1315q0 -11 -8 -19l-244 -239q-23 -23 -49 -23h-70q-20 0 -20 17q0 8 18 36l143 220q16 24 54 24h153q23 0 23 -16zM317 20q0 -20 -20 -20h-143q-21 0 -21 20v881q0 21 21 21h143q20 0 20 -21v-881z" />
    <glyph glyph-name="icircumflex" unicode="&#xee;" horiz-adv-x="451" 
d="M475 1051q0 -17 -22 -17h-99q-9 0 -16 10l-90 140q-6 12 -17 12q-8 0 -14 -12l-88 -140q-6 -10 -16 -10h-99q-22 0 -22 17q0 7 6 16l182 256q8 8 17 8h73q9 0 17 -8l182 -256q6 -9 6 -16zM317 20q0 -20 -20 -20h-143q-21 0 -21 20v881q0 21 21 21h143q20 0 20 -21v-881z
" />
    <glyph glyph-name="idieresis" unicode="&#xef;" horiz-adv-x="451" 
d="M496 1176q0 -42 -30.5 -72.5t-72.5 -30.5q-41 0 -71.5 30.5t-30.5 72.5q0 41 30.5 71.5t71.5 30.5q42 0 72.5 -30.5t30.5 -71.5zM174 1176q0 -42 -30.5 -72.5t-71.5 -30.5q-42 0 -72.5 30.5t-30.5 72.5q0 41 30.5 71.5t72.5 30.5q41 0 71.5 -30.5t30.5 -71.5zM317 20
q0 -20 -20 -20h-143q-21 0 -21 20v881q0 21 21 21h143q20 0 20 -21v-881z" />
    <glyph glyph-name="eth" unicode="&#xf0;" horiz-adv-x="942" 
d="M842 328q0 -155 -100.5 -251.5t-268.5 -96.5q-167 0 -268 96.5t-101 251.5v266q0 145 89 239.5t239 106.5l-98 96l-197 -82q-28 -12 -28 11v53q0 28 12 33l139 57l-156 156q-5 5 -5 10q0 16 26 16h151q7 0 21 -14l106 -107l211 91q29 12 29 -13v-59q0 -20 -16 -27
l-150 -63l260 -246q105 -99 105 -258v-266zM657 328v266q0 75 -54.5 129.5t-129.5 54.5t-129.5 -54.5t-54.5 -129.5v-266q0 -76 54.5 -130.5t129.5 -54.5t129.5 54.5t54.5 130.5z" />
    <glyph glyph-name="ntilde" unicode="&#xf1;" horiz-adv-x="1004" 
d="M817 1206q0 -14 -33 -59q-65 -90 -145 -90q-56 0 -129 51l-41 29q-38 26 -74 26q-54 0 -96 -57q-6 -8 -16 -8q-7 0 -21 10l-37 27q-10 7 -10 16q0 7 27 45q71 100 153 100q67 0 129 -49l39 -30q34 -27 64 -27q66 0 112 61q6 9 17 9q10 0 20 -11l33 -26q8 -6 8 -17z
M870 20q0 -20 -20 -20h-143q-21 0 -21 20v553q0 76 -54.5 130.5t-129.5 54.5q-76 0 -130.5 -54.5t-54.5 -130.5v-553q0 -20 -20 -20h-143q-21 0 -21 20v881q0 21 21 21h122q21 0 21 -21v-24q0 -25 16 -25q4 0 17 8q74 62 172 62q167 0 269 -98q99 -96 99 -251v-553z" />
    <glyph glyph-name="ograve" unicode="&#xf2;" horiz-adv-x="942" 
d="M561 1051q0 -17 -20 -17h-70q-26 0 -49 23l-236 231q-16 13 -16 27q0 16 23 16h153q37 0 53 -24l146 -224q16 -25 16 -32zM840 328q0 -155 -100.5 -251.5t-268.5 -96.5q-167 0 -268 96.5t-101 251.5v266q0 155 101 251.5t268 96.5q168 0 268.5 -96.5t100.5 -251.5v-266z
M655 328v266q0 75 -54.5 129.5t-129.5 54.5t-129.5 -54.5t-54.5 -129.5v-266q0 -76 54.5 -130.5t129.5 -54.5t129.5 54.5t54.5 130.5z" />
    <glyph glyph-name="oacute" unicode="&#xf3;" horiz-adv-x="942" 
d="M791 1315q0 -11 -9 -19l-243 -239q-23 -23 -50 -23h-69q-21 0 -21 17q0 8 19 36l143 220q16 24 53 24h154q23 0 23 -16zM840 328q0 -155 -100.5 -251.5t-268.5 -96.5q-167 0 -268 96.5t-101 251.5v266q0 155 101 251.5t268 96.5q168 0 268.5 -96.5t100.5 -251.5v-266z
M655 328v266q0 75 -54.5 129.5t-129.5 54.5t-129.5 -54.5t-54.5 -129.5v-266q0 -76 54.5 -130.5t129.5 -54.5t129.5 54.5t54.5 130.5z" />
    <glyph glyph-name="ocircumflex" unicode="&#xf4;" horiz-adv-x="942" 
d="M723 1051q0 -17 -23 -17h-98q-10 0 -16 10l-90 140q-7 12 -17 12q-8 0 -14 -12l-88 -140q-7 -10 -17 -10h-98q-22 0 -22 17q0 7 6 16l182 256q8 8 16 8h74q8 0 17 -8l182 -256q6 -9 6 -16zM840 328q0 -155 -100.5 -251.5t-268.5 -96.5q-167 0 -268 96.5t-101 251.5v266
q0 155 101 251.5t268 96.5q168 0 268.5 -96.5t100.5 -251.5v-266zM655 328v266q0 75 -54.5 129.5t-129.5 54.5t-129.5 -54.5t-54.5 -129.5v-266q0 -76 54.5 -130.5t129.5 -54.5t129.5 54.5t54.5 130.5z" />
    <glyph glyph-name="otilde" unicode="&#xf5;" horiz-adv-x="942" 
d="M776 1206q0 -14 -33 -59q-65 -90 -145 -90q-56 0 -129 51l-41 29q-38 26 -74 26q-54 0 -96 -57q-6 -8 -16 -8q-7 0 -21 10l-37 27q-10 7 -10 16q0 7 27 45q71 100 153 100q67 0 129 -49l39 -30q34 -27 64 -27q66 0 112 61q7 9 17 9t20 -11l33 -26q8 -6 8 -17zM840 328
q0 -155 -100.5 -251.5t-268.5 -96.5q-167 0 -268 96.5t-101 251.5v266q0 155 101 251.5t268 96.5q168 0 268.5 -96.5t100.5 -251.5v-266zM655 328v266q0 75 -54.5 129.5t-129.5 54.5t-129.5 -54.5t-54.5 -129.5v-266q0 -76 54.5 -130.5t129.5 -54.5t129.5 54.5t54.5 130.5z
" />
    <glyph glyph-name="odieresis" unicode="&#xf6;" horiz-adv-x="942" 
d="M743 1176q0 -42 -30.5 -72.5t-71.5 -30.5t-71.5 30.5t-30.5 72.5q0 41 30.5 71.5t71.5 30.5t71.5 -30.5t30.5 -71.5zM422 1176q0 -42 -30.5 -72.5t-72.5 -30.5q-41 0 -71.5 30.5t-30.5 72.5q0 41 30.5 71.5t71.5 30.5q42 0 72.5 -30.5t30.5 -71.5zM840 328
q0 -155 -100.5 -251.5t-268.5 -96.5q-167 0 -268 96.5t-101 251.5v266q0 155 101 251.5t268 96.5q168 0 268.5 -96.5t100.5 -251.5v-266zM655 328v266q0 75 -54.5 129.5t-129.5 54.5t-129.5 -54.5t-54.5 -129.5v-266q0 -76 54.5 -130.5t129.5 -54.5t129.5 54.5t54.5 130.5z
" />
    <glyph glyph-name="divide" unicode="&#xf7;" 
d="M635 809q0 -48 -32.5 -80.5t-80.5 -32.5q-47 0 -79.5 32.5t-32.5 80.5t32.5 80.5t79.5 32.5q48 0 80.5 -32.5t32.5 -80.5zM952 451q0 -21 -20 -21h-819q-21 0 -21 21v81q0 21 21 21h819q20 0 20 -21v-81zM635 174q0 -48 -32.5 -80.5t-80.5 -32.5q-47 0 -79.5 32.5
t-32.5 80.5t32.5 80.5t79.5 32.5q48 0 80.5 -32.5t32.5 -80.5z" />
    <glyph glyph-name="oslash" unicode="&#xf8;" horiz-adv-x="942" 
d="M840 328q0 -155 -100.5 -251.5t-268.5 -96.5q-167 0 -268 96.5t-101 251.5v266q0 155 101 251.5t268 96.5q168 0 268.5 -96.5t100.5 -251.5v-266zM655 328v266q0 96 -37 96q-12 0 -18 -14l-194 -463q-13 -29 -13 -39q0 -31 78 -31q75 0 129.5 54.5t54.5 130.5zM541 752
q0 26 -70 26q-75 0 -129.5 -54.5t-54.5 -129.5v-266q0 -74 28 -74q13 0 19 14l194 449q13 28 13 35z" />
    <glyph glyph-name="ugrave" unicode="&#xf9;" horiz-adv-x="983" 
d="M563 1051q0 -17 -20 -17h-70q-26 0 -49 23l-236 231q-16 13 -16 27q0 16 23 16h153q37 0 53 -24l146 -224q16 -25 16 -32zM850 20q0 -20 -21 -20h-122q-21 0 -21 20v25q0 25 -18 25q-4 0 -17 -9q-74 -61 -170 -61q-167 0 -267.5 96.5t-100.5 251.5v553q0 21 20 21h143
q21 0 21 -21v-553q0 -75 54.5 -129.5t129.5 -54.5q76 0 130.5 54.5t54.5 129.5v553q0 21 20 21h143q21 0 21 -21v-881z" />
    <glyph glyph-name="uacute" unicode="&#xfa;" horiz-adv-x="983" 
d="M793 1315q0 -11 -9 -19l-243 -239q-23 -23 -49 -23h-70q-21 0 -21 17q0 8 19 36l143 220q16 24 53 24h154q23 0 23 -16zM850 20q0 -20 -21 -20h-122q-21 0 -21 20v25q0 25 -18 25q-4 0 -17 -9q-74 -61 -170 -61q-167 0 -267.5 96.5t-100.5 251.5v553q0 21 20 21h143
q21 0 21 -21v-553q0 -75 54.5 -129.5t129.5 -54.5q76 0 130.5 54.5t54.5 129.5v553q0 21 20 21h143q21 0 21 -21v-881z" />
    <glyph glyph-name="ucircumflex" unicode="&#xfb;" horiz-adv-x="983" 
d="M725 1051q0 -17 -23 -17h-98q-10 0 -16 10l-90 140q-6 12 -17 12q-8 0 -14 -12l-88 -140q-7 -10 -17 -10h-98q-22 0 -22 17q0 7 6 16l182 256q8 8 16 8h74q8 0 17 -8l182 -256q6 -9 6 -16zM850 20q0 -20 -21 -20h-122q-21 0 -21 20v25q0 25 -18 25q-4 0 -17 -9
q-74 -61 -170 -61q-167 0 -267.5 96.5t-100.5 251.5v553q0 21 20 21h143q21 0 21 -21v-553q0 -75 54.5 -129.5t129.5 -54.5q76 0 130.5 54.5t54.5 129.5v553q0 21 20 21h143q21 0 21 -21v-881z" />
    <glyph glyph-name="udieresis" unicode="&#xfc;" horiz-adv-x="983" 
d="M745 1176q0 -42 -30 -72.5t-72 -30.5q-41 0 -71.5 30.5t-30.5 72.5q0 41 30.5 71.5t71.5 30.5q42 0 72 -30.5t30 -71.5zM424 1176q0 -42 -30.5 -72.5t-71.5 -30.5q-42 0 -72.5 30.5t-30.5 72.5q0 41 30.5 71.5t72.5 30.5q41 0 71.5 -30.5t30.5 -71.5zM850 20
q0 -20 -21 -20h-122q-21 0 -21 20v25q0 25 -18 25q-4 0 -17 -9q-74 -61 -170 -61q-167 0 -267.5 96.5t-100.5 251.5v553q0 21 20 21h143q21 0 21 -21v-553q0 -75 54.5 -129.5t129.5 -54.5q76 0 130.5 54.5t54.5 129.5v553q0 21 20 21h143q21 0 21 -21v-881z" />
    <glyph glyph-name="thorn" unicode="&#xfe;" horiz-adv-x="973" 
d="M870 348q0 -152 -100 -250t-248 -98q-97 0 -172 61q-12 9 -18 9q-15 0 -15 -25v-485q0 -21 -20 -21h-143q-21 0 -21 21v1710q0 20 21 20h122q21 0 21 -20v-393q0 -25 14 -25q6 0 19 8q74 62 172 62q167 0 269 -98q99 -96 99 -251v-225zM686 348v225q0 76 -54.5 130.5
t-129.5 54.5q-76 0 -130.5 -54.5t-54.5 -130.5v-225q0 -75 54.5 -129.5t130.5 -54.5q75 0 129.5 54.5t54.5 129.5z" />
    <glyph glyph-name="ydieresis" unicode="&#xff;" horiz-adv-x="983" 
d="M745 1176q0 -42 -30 -72.5t-72 -30.5q-41 0 -71.5 30.5t-30.5 72.5q0 41 30.5 71.5t71.5 30.5q42 0 72 -30.5t30 -71.5zM424 1176q0 -42 -30.5 -72.5t-71.5 -30.5q-42 0 -72.5 30.5t-30.5 72.5q0 41 30.5 71.5t72.5 30.5q41 0 71.5 -30.5t30.5 -71.5zM850 -113
q0 -165 -93 -264q-98 -104 -276 -104q-183 0 -284 114q-58 66 -58 93q0 10 13 16l106 53q29 15 33 15q12 0 18 -13q56 -114 172 -114q76 0 130.5 54.5t54.5 129.5v170q0 24 -19 24q-9 0 -18 -8q-59 -53 -148 -53q-167 0 -267.5 96.5t-100.5 251.5v553q0 21 20 21h143
q21 0 21 -21v-553q0 -75 54.5 -129.5t129.5 -54.5q76 0 130.5 54.5t54.5 129.5v553q0 21 20 21h143q21 0 21 -21v-1014z" />
    <glyph glyph-name="dotlessi" unicode="&#x131;" horiz-adv-x="451" 
d="M317 20q0 -20 -20 -20h-143q-21 0 -21 20v881q0 21 21 21h143q20 0 20 -21v-881z" />
    <glyph glyph-name="Lslash" unicode="&#x141;" horiz-adv-x="932" 
d="M891 20q0 -20 -21 -20h-696q-20 0 -20 20v416q0 19 -11 19q-6 0 -18 -13l-27 -26q-6 -6 -14 -6t-14 6l-82 82q-6 6 -6 14t6 14l145 146q21 20 21 59v539q0 20 20 20h143q21 0 21 -20v-361q0 -16 12 -16q6 0 15 8l53 53q6 7 14 7t14 -7l80 -80q6 -6 6 -16q0 -8 -6 -14
l-166 -166q-22 -23 -22 -57v-437q0 -20 20 -20h512q21 0 21 -21v-123z" />
    <glyph glyph-name="lslash" unicode="&#x142;" horiz-adv-x="451" 
d="M512 858q0 -8 -6 -14l-166 -166q-23 -23 -23 -57v-601q0 -20 -20 -20h-143q-21 0 -21 20v416q0 19 -10 19q-6 0 -19 -13l-26 -26q-6 -6 -15 -6q-8 0 -14 6l-82 82q-6 6 -6 14t6 14l146 146q20 20 20 59v539q0 20 21 20h143q20 0 20 -20v-361q0 -16 13 -16q6 0 14 8l53 53
q6 7 15 7q8 0 14 -7l80 -80q6 -6 6 -16z" />
    <glyph glyph-name="OE" unicode="&#x152;" horiz-adv-x="1567" 
d="M1475 20q0 -20 -21 -20h-764q-68 -20 -137 -20h-61q-168 0 -268.5 96.5t-100.5 251.5v635q0 155 100.5 251.5t268.5 96.5h61q72 0 133 -21h768q21 0 21 -20v-123q0 -21 -21 -21h-536q-21 0 -21 -16q0 2 12.5 -43t12.5 -104v-205q0 -21 20 -21h420q20 0 20 -20v-123
q0 -21 -20 -21h-420q-20 0 -20 -20v-225q0 -32 -12.5 -84t-12.5 -64q0 -16 21 -16h536q21 0 21 -21v-123zM737 328v635q0 75 -54.5 129.5t-129.5 54.5h-61q-76 0 -130.5 -54.5t-54.5 -129.5v-635q0 -76 54.5 -130.5t130.5 -54.5h61q75 0 129.5 54.5t54.5 130.5z" />
    <glyph glyph-name="oe" unicode="&#x153;" horiz-adv-x="1495" 
d="M1393 451q0 -21 -21 -21h-512q-20 0 -20 -20v-82q0 -17 -4 -37q67 -148 188 -148q113 0 172 119q6 12 16 12q5 0 33 -14l109 -55q12 -6 12 -15q0 -25 -53 -90q-99 -120 -289 -120q-152 0 -248 77q-25 21 -31 21t-26 -17q-98 -81 -248 -81q-167 0 -268 96.5t-101 251.5
v266q0 155 101 251.5t268 96.5q154 0 252 -82q27 -22 31 -22q8 0 30 22q103 82 240 82q160 0 269 -113q100 -103 100 -235v-143zM1208 594q0 75 -54.5 129.5t-129.5 54.5q-135 0 -188 -143q4 -21 4 -41.5t20 -20.5h328q20 0 20 21zM655 328v266q0 75 -54.5 129.5
t-129.5 54.5t-129.5 -54.5t-54.5 -129.5v-266q0 -76 54.5 -130.5t129.5 -54.5t129.5 54.5t54.5 130.5z" />
    <glyph glyph-name="Scaron" unicode="&#x160;" horiz-adv-x="950" 
d="M711 1642l-166 -229q-8 -10 -21 -10h-86q-13 0 -20 10l-166 229q-16 23 12 23h109q12 0 20 -12l74 -111q7 -10 14 -10q8 0 15 10l73 111q9 12 21 12h108q29 0 13 -23zM868 328q0 -155 -99 -251q-102 -97 -269 -97h-86q-214 0 -310 149q-28 45 -28 59q0 12 10 17l104 53
q33 16 37 16q10 0 17 -14q53 -117 170 -117h86q75 0 129.5 54.5t54.5 130.5q0 115 -152 195l-282 146q-152 109 -152 294q0 155 100.5 251.5t268.5 96.5h33q210 0 311 -150q29 -42 29 -55q0 -12 -13 -19l-110 -55q-25 -12 -31 -12q-10 0 -16 12q-58 115 -170 115h-33
q-75 0 -129.5 -54.5t-54.5 -129.5q0 -79 81 -135q35 -24 184.5 -92.5t217.5 -138.5q102 -106 102 -269z" />
    <glyph glyph-name="scaron" unicode="&#x161;" horiz-adv-x="901" 
d="M682 1315q0 -8 -6 -17l-182 -256q-9 -8 -17 -8h-74q-8 0 -16 8l-182 256q-6 9 -6 17q0 16 22 16h98q10 0 17 -10l88 -139q6 -13 14 -13q11 0 17 13l90 139q6 10 16 10h98q23 0 23 -16zM815 289q0 -132 -85 -217q-93 -92 -253 -92h-61q-195 0 -291 124q-43 57 -43 80
q0 11 12 17l107 53q20 10 24 10q8 0 15 -12q57 -115 176 -115h61q74 0 117 38q39 34 39 85q0 59 -80 89q-31 11 -180 40q-134 26 -196 68q-91 62 -91 184q0 139 98 223q92 78 232 78h61q204 0 299 -137q35 -50 35 -68q0 -10 -12 -16l-99 -49q-28 -15 -32 -15q-9 0 -15 13
q-57 114 -176 114h-61q-150 0 -150 -110q0 -62 80 -93q33 -13 178 -42q137 -28 199 -69q92 -62 92 -181z" />
    <glyph glyph-name="Ydieresis" unicode="&#x178;" horiz-adv-x="922" 
d="M715 1534q0 -42 -29.5 -72t-71.5 -30t-70 30t-28 72q0 41 28.5 69.5t69.5 28.5q43 0 72 -28t29 -70zM408 1534q0 -42 -29 -72t-70 -30q-42 0 -70 30t-28 72t28 70t70 28q43 0 71 -28t28 -70zM913 1274q0 -7 -18 -41l-328 -612q-14 -27 -14 -64v-537q0 -20 -21 -20h-143
q-20 0 -20 20v539q0 35 -15 62l-334 622q-12 23 -12 31q0 16 23 16h168q10 0 18 -12l225 -467q8 -16 19 -16q10 0 18 16l226 467q8 12 18 12h168q22 0 22 -16z" />
    <glyph glyph-name="Zcaron" unicode="&#x17d;" horiz-adv-x="901" 
d="M651 1642l-166 -229q-7 -10 -20 -10h-86q-13 0 -21 10l-165 229q-17 23 12 23h108q13 0 21 -12l74 -111q14 -21 28 0l74 111q8 12 20 12h109q29 0 12 -23zM819 20q0 -20 -20 -20h-729q-21 0 -21 16q0 8 19 50l450 1005q14 32 14 39q0 16 -20 16h-410q-20 0 -20 21v123
q0 20 20 20h686q21 0 21 -16q0 -8 -18 -49l-451 -1000q-16 -36 -16 -45q0 -16 20 -16h455q20 0 20 -21v-123z" />
    <glyph glyph-name="zcaron" unicode="&#x17e;" horiz-adv-x="881" 
d="M670 1315q0 -8 -6 -17l-183 -256q-8 -8 -16 -8h-74q-8 0 -16 8l-182 256q-7 9 -7 17q0 16 23 16h98q10 0 17 -10l88 -139q6 -13 14 -13q10 0 16 13l90 139q7 10 17 10h98q23 0 23 -16zM807 20q0 -20 -21 -20h-714q-23 0 -23 16q0 9 25 50l383 639q16 27 16 34
q0 17 -22 17h-359q-20 0 -20 20v123q0 21 20 21h678q23 0 23 -17q0 -8 -19 -39l-389 -645q-18 -30 -18 -39q0 -16 22 -16h397q21 0 21 -21v-123z" />
    <glyph glyph-name="florin" unicode="&#x192;" 
d="M874 1286q0 -8 -10 -37l-33 -92q-5 -14 -16 -14q-3 0 -21.5 2t-31.5 2q-75 0 -129.5 -54.5t-54.5 -129.5v-205q0 -21 20 -21h143q21 0 21 -20v-123q0 -21 -21 -21h-143q-20 0 -20 -20v-666q0 -153 -108 -260.5t-261 -107.5q-50 0 -94 8q-17 3 -17 16q0 3 13 39l30 90
q5 15 17 15q4 0 21.5 -2t29.5 -2q75 0 129.5 54.5t54.5 129.5v686q0 20 -20 20h-51q-21 0 -21 21v123q0 20 21 20h51q20 0 20 21v184q0 154 107.5 261.5t261.5 107.5q51 0 96 -8q16 -3 16 -17z" />
    <glyph glyph-name="circumflex" unicode="&#x2c6;" horiz-adv-x="1024" 
d="M756 1051q0 -17 -23 -17h-98q-10 0 -17 10l-90 140q-6 12 -16 12q-8 0 -14 -12l-88 -140q-7 -10 -17 -10h-98q-23 0 -23 17q0 7 7 16l182 256q8 8 16 8h74q8 0 16 -8l183 -256q6 -9 6 -16z" />
    <glyph glyph-name="caron" unicode="&#x2c7;" horiz-adv-x="1024" 
d="M756 1315q0 -8 -6 -17l-183 -256q-8 -8 -16 -8h-74q-8 0 -16 8l-182 256q-7 9 -7 17q0 16 23 16h98q10 0 17 -10l88 -139q6 -13 14 -13q10 0 16 13l90 139q7 10 17 10h98q23 0 23 -16z" />
    <glyph glyph-name="breve" unicode="&#x2d8;" horiz-adv-x="1024" 
d="M743 1208q0 -77 -50 -125.5t-134 -48.5h-92q-84 0 -134 48.5t-50 125.5v103q0 20 20 20h51q21 0 21 -20v-62q0 -37 27.5 -64.5t64.5 -27.5h92q37 0 64.5 27.5t27.5 64.5v62q0 20 21 20h51q20 0 20 -20v-103z" />
    <glyph glyph-name="dotaccent" unicode="&#x2d9;" horiz-adv-x="1024" 
d="M639 1151q0 -51 -34 -82t-89 -31t-89 31t-34 82v61q0 51 34 82t89 31t89 -31t34 -82v-61z" />
    <glyph glyph-name="ring" unicode="&#x2da;" horiz-adv-x="1024" 
d="M698 1208q0 -77 -50 -125.5t-134 -48.5t-134 48.5t-50 125.5v62q0 77 50 125.5t134 48.5t134 -48.5t50 -125.5v-62zM606 1208v62q0 37 -27.5 64.5t-64.5 27.5t-64.5 -27.5t-27.5 -64.5v-62q0 -37 27.5 -64.5t64.5 -27.5t64.5 27.5t27.5 64.5z" />
    <glyph glyph-name="ogonek" unicode="&#x2db;" horiz-adv-x="1024" 
d="M719 -438q0 -21 -19 -21q-55 0 -125 41q-133 79 -133 234v225q0 20 21 20h98q21 0 21 -20v-240q0 -114 120 -137q17 -3 17 -20v-82z" />
    <glyph glyph-name="tilde" unicode="&#x2dc;" horiz-adv-x="1024" 
d="M813 1206q0 -14 -33 -59q-65 -90 -145 -90q-56 0 -129 51l-41 29q-38 26 -74 26q-54 0 -96 -57q-6 -8 -16 -8q-7 0 -21 10l-37 27q-10 7 -10 16q0 7 27 45q71 100 153 100q67 0 129 -49l39 -30q34 -27 64 -27q66 0 112 61q6 9 17 9q10 0 20 -11l33 -26q8 -6 8 -17z" />
    <glyph glyph-name="hungarumlaut" unicode="&#x2dd;" horiz-adv-x="1024" 
d="M807 1315q0 -7 -19 -39l-131 -232q-5 -10 -18 -10h-43q-21 0 -21 17q0 4 13 41l76 225q4 14 18 14h102q23 0 23 -16zM580 1315q0 -7 -19 -39l-131 -232q-6 -10 -18 -10h-43q-21 0 -21 17q0 4 12 41l76 225q5 14 19 14h102q23 0 23 -16z" />
    <glyph glyph-name="Delta" unicode="&#x394;" horiz-adv-x="1253" 
d="M1245 0h-1233l656 1409zM991 100l-397 959l-447 -959h844z" />
    <glyph glyph-name="Delta" unicode="&#x2206;" horiz-adv-x="1253" 
d="M1245 0h-1233l656 1409zM991 100l-397 959l-447 -959h844z" />
    <glyph glyph-name="Omega" unicode="&#x3a9;" horiz-adv-x="1573" 
d="M1507 0h-604l33 311q104 45 147 85q49 46 95 149q49 110 49 278q0 232 -102 368q-114 152 -337 152q-222 0 -336 -152q-102 -136 -102 -368q0 -168 49 -278q46 -103 95 -149q43 -40 147 -85l33 -311h-604v332h30q17 -71 40 -96q29 -29 96 -29h323l-4 57
q-239 71 -341.5 223t-102.5 328q0 275 206 441q192 153 471 153q280 0 472 -153q206 -166 206 -441q0 -176 -102.5 -328t-341.5 -223l-4 -57h323q67 0 96 29q23 25 40 96h30v-332z" />
    <glyph glyph-name="Omega" unicode="&#x2126;" horiz-adv-x="1573" 
d="M1507 0h-604l33 311q104 45 147 85q49 46 95 149q49 110 49 278q0 232 -102 368q-114 152 -337 152q-222 0 -336 -152q-102 -136 -102 -368q0 -168 49 -278q46 -103 95 -149q43 -40 147 -85l33 -311h-604v332h30q17 -71 40 -96q29 -29 96 -29h323l-4 57
q-239 71 -341.5 223t-102.5 328q0 275 206 441q192 153 471 153q280 0 472 -153q206 -166 206 -441q0 -176 -102.5 -328t-341.5 -223l-4 -57h323q67 0 96 29q23 25 40 96h30v-332z" />
    <glyph glyph-name="pi" unicode="&#x3c0;" horiz-adv-x="1124" 
d="M1085 309q-3 -127 -59 -224q-69 -118 -186 -118q-115 0 -174 174q-23 67 -23 201q0 71 43 479h-231q-23 -254 -36 -361q-24 -210 -59 -358q-32 -141 -133 -141q-45 0 -77.5 33t-32.5 78t70 127q75 86 83 153l60 469h-97q-64 0 -107 -37q-25 -22 -71 -92h-35
q49 140 96 203q75 102 189 102h764v-176h-258q-25 -239 -25 -481q0 -70 31 -122q37 -62 103 -62q35 0 69 26q30 24 41 58q6 35 12 69h43z" />
    <glyph glyph-name="endash" unicode="&#x2013;" horiz-adv-x="1147" 
d="M1055 451q0 -21 -21 -21h-921q-21 0 -21 21v81q0 21 21 21h921q21 0 21 -21v-81z" />
    <glyph glyph-name="emdash" unicode="&#x2014;" horiz-adv-x="1700" 
d="M1608 451q0 -21 -21 -21h-1474q-21 0 -21 21v81q0 21 21 21h1474q21 0 21 -21v-81z" />
    <glyph glyph-name="quoteleft" unicode="&#x2018;" horiz-adv-x="362" 
d="M299 1296q0 -10 -10 -16q-76 -44 -76 -170q0 -18 20 -18h23q20 0 20 -21v-137q0 -21 -20 -21h-154q-20 0 -20 21v119q0 180 86 266q55 55 84 55q13 0 18 -12l19 -39q10 -22 10 -27z" />
    <glyph glyph-name="quoteright" unicode="&#x2019;" horiz-adv-x="362" 
d="M281 1151q0 -180 -86 -266q-56 -56 -84 -56q-13 0 -19 13l-18 39q-11 21 -11 26q0 11 11 17q76 44 76 170q0 18 -21 18h-23q-20 0 -20 21v137q0 20 20 20h154q21 0 21 -20v-119z" />
    <glyph glyph-name="quotesinglbase" unicode="&#x201a;" horiz-adv-x="362" 
d="M281 86q0 -180 -86 -266q-56 -56 -84 -56q-13 0 -19 13l-18 39q-11 21 -11 26q0 11 11 17q76 44 76 170q0 18 -21 18h-23q-20 0 -20 21v137q0 20 20 20h154q21 0 21 -20v-119z" />
    <glyph glyph-name="quotedblleft" unicode="&#x201c;" horiz-adv-x="645" 
d="M582 1296q0 -10 -11 -16q-75 -44 -75 -170q0 -18 20 -18h23q20 0 20 -21v-137q0 -21 -20 -21h-154q-20 0 -20 21v119q0 180 86 266q55 55 84 55q12 0 18 -12l18 -39q11 -22 11 -27zM299 1296q0 -10 -10 -16q-76 -44 -76 -170q0 -18 20 -18h23q20 0 20 -21v-137
q0 -21 -20 -21h-154q-20 0 -20 21v119q0 180 86 266q55 55 84 55q13 0 18 -12l19 -39q10 -22 10 -27z" />
    <glyph glyph-name="quotedblright" unicode="&#x201d;" horiz-adv-x="645" 
d="M563 1151q0 -180 -86 -266q-55 -56 -84 -56q-12 0 -18 13l-19 39q-10 21 -10 26q0 11 10 17q76 44 76 170q0 18 -20 18h-23q-20 0 -20 21v137q0 20 20 20h154q20 0 20 -20v-119zM281 1151q0 -180 -86 -266q-56 -56 -84 -56q-13 0 -19 13l-18 39q-11 21 -11 26q0 11 11 17
q76 44 76 170q0 18 -21 18h-23q-20 0 -20 21v137q0 20 20 20h154q21 0 21 -20v-119z" />
    <glyph glyph-name="quotedblbase" unicode="&#x201e;" horiz-adv-x="645" 
d="M563 86q0 -180 -86 -266q-55 -56 -84 -56q-12 0 -18 13l-19 39q-10 21 -10 26q0 11 10 17q76 44 76 170q0 18 -20 18h-23q-20 0 -20 21v137q0 20 20 20h154q20 0 20 -20v-119zM281 86q0 -180 -86 -266q-56 -56 -84 -56q-13 0 -19 13l-18 39q-11 21 -11 26q0 11 11 17
q76 44 76 170q0 18 -21 18h-23q-20 0 -20 21v137q0 20 20 20h154q21 0 21 -20v-119z" />
    <glyph glyph-name="dagger" unicode="&#x2020;" horiz-adv-x="840" 
d="M821 803q0 -21 -20 -21q-3 0 -103 9l-125 10q-75 6 -79 6q-19 0 -19 -16q0 -5 6 -46l15 -94l-39 -1091q-1 -21 -21 -21h-49q-20 0 -20 21l-39 1091l14 94q6 41 6 46q0 16 -18 16q-4 0 -80 -6l-152 -13q-75 -6 -78 -6q-20 0 -20 21v133q0 20 20 20q4 0 74 -6l164 -14
q70 -6 76 -6q18 0 18 18q0 3 -4 56l-14 184q-6 79 -6 82q0 20 20 20h127q21 0 21 -20q0 -4 -7 -82l-14 -182q-4 -53 -4 -58q0 -18 18 -18q4 0 74 6l142 12q94 8 96 8q20 0 20 -20v-133z" />
    <glyph glyph-name="daggerdbl" unicode="&#x2021;" horiz-adv-x="840" 
d="M821 369q0 -21 -20 -21q-6 0 -103 8l-96 9q-96 8 -102 8q-18 0 -19 -17l-24 -796q-1 -21 -21 -21h-49q-20 0 -20 21l-25 796q0 17 -18 17q-1 0 -76 -6l-125 -11q-100 -8 -103 -8q-20 0 -20 21v133q0 20 20 20q12 0 97 -8l106 -10q85 -8 96 -8q19 0 19 18q0 3 -4 57l-6 82
l14 90q6 39 6 48q0 16 -18 16q-7 0 -82 -6l-125 -10q-100 -9 -103 -9q-20 0 -20 21v133q0 20 20 20q3 0 97 -8l116 -10q94 -8 101 -8q18 0 18 18q0 2 -6 82l-12 160l-6 80q0 20 20 20h127q21 0 21 -20q0 -3 -7 -82l-12 -158q-6 -79 -6 -82q0 -18 18 -18q5 0 99 8l117 10
q93 8 96 8q20 0 20 -20v-133q0 -21 -20 -21q-2 0 -103 9l-100 8q-100 8 -104 8q-19 0 -19 -16q0 -7 6 -46l15 -90l-7 -84q-4 -56 -4 -57q0 -18 19 -18q1 0 90 8l111 10q88 8 96 8q20 0 20 -20v-133z" />
    <glyph glyph-name="bullet" unicode="&#x2022;" horiz-adv-x="1024" 
d="M823 625q0 -129 -84 -208t-223 -79h-8q-139 0 -223 79t-84 208v41q0 128 84 207t223 79h8q139 0 223 -79t84 -207v-41z" />
    <glyph glyph-name="ellipsis" unicode="&#x2026;" horiz-adv-x="940" 
d="M883 190q0 -28 -58 -96q-97 -114 -282 -114h-62q-169 0 -268.5 98t-99.5 266v62q0 60 40 133q38 70 89 108q10 10 10 17q0 11 -10 16q-51 35 -90 103t-39 128v31q0 169 99.5 269t268.5 100h62q202 0 303 -142q37 -51 37 -65q0 -10 -13 -17l-108 -55q-24 -12 -31 -12
q-12 0 -18 12q-56 115 -170 115h-62q-75 0 -129.5 -54.5t-54.5 -129.5v-31q0 -75 54.5 -129.5t129.5 -54.5h164q21 0 21 -21v-123q0 -20 -21 -20h-164q-75 0 -129.5 -54.5t-54.5 -130.5v-71q0 -76 54.5 -130.5t129.5 -54.5h62q117 0 170 117q6 14 16 14q5 0 29 -12l112 -57
q13 -6 13 -15z" />
    <glyph glyph-name="perthousand" unicode="&#x2030;" horiz-adv-x="1520" 
d="M1452 184q0 -82 -53 -133t-142 -51q-88 0 -141 51t-53 133v201q0 82 53 133t141 51q89 0 142 -51t53 -133v-201zM471 905q0 -82 -52.5 -133t-142.5 -51q-88 0 -141 51t-53 133v199q0 82 53 134t141 52q89 0 142 -51t53 -133v-201zM850 1274q0 -8 -25 -66l-512 -1196
q-5 -12 -18 -12h-80q-20 0 -20 16q0 7 16 45l520 1217q5 12 19 12h79q21 0 21 -16zM963 184q0 -82 -53.5 -133t-141.5 -51t-141.5 51t-53.5 133v201q0 82 53.5 133t141.5 51t141.5 -51t53.5 -133v-201zM1315 184v201q0 59 -58 59q-57 0 -57 -59v-201q0 -57 57 -57
q58 0 58 57zM336 905v201q0 23 -18 41t-42 18q-57 0 -57 -59v-201q0 -57 57 -57q24 0 42 17t18 40zM825 184v201q0 59 -57 59t-57 -59v-201q0 -57 57 -57t57 57z" />
    <glyph glyph-name="guilsinglleft" unicode="&#x2039;" horiz-adv-x="692" 
d="M557 223q0 -22 -16 -22q-8 0 -17 6l-403 287q-8 8 -8 16v121q0 8 8 16l403 289q9 6 17 6q16 0 16 -22v-117q0 -8 -8 -17l-277 -198q-10 -10 -10 -17q0 -6 10 -16l277 -199q8 -8 8 -16v-117z" />
    <glyph glyph-name="guilsinglright" unicode="&#x203a;" horiz-adv-x="692" 
d="M582 510q0 -8 -9 -16l-405 -287q-9 -6 -16 -6q-17 0 -17 22v117q0 8 8 16l277 199q10 10 10 16q0 7 -10 17l-277 198q-8 9 -8 17v117q0 22 17 22q7 0 16 -6l405 -289q9 -8 9 -16v-121z" />
    <glyph glyph-name="fraction" unicode="&#x2044;" horiz-adv-x="332" 
d="M481 1274q0 -8 -12 -37l-524 -1225q-6 -12 -19 -12h-49q-20 0 -20 16q0 8 26 70l510 1192q5 12 19 12h49q20 0 20 -16z" />
    <glyph glyph-name="Euro" unicode="&#x20ac;" 
d="M977 178q-99 -198 -338 -198h-61q-168 0 -268.5 96.5t-100.5 251.5v51q0 20 -21 20h-122q-21 0 -21 21v102q0 21 21 21h122q21 0 21 20v164q0 21 -21 21h-122q-21 0 -21 20v102q0 21 21 21h122q21 0 21 20v52q0 155 100.5 251.5t268.5 96.5h61q237 0 338 -195
q10 -19 -10 -29l-131 -65q-18 -9 -27 10q-57 115 -170 115h-61q-76 0 -130.5 -54.5t-54.5 -129.5v-52q0 -20 21 -20h286q21 0 21 -21v-102q0 -20 -21 -20h-286q-21 0 -21 -21v-164q0 -20 21 -20h286q21 0 21 -21v-102q0 -21 -21 -21h-286q-21 0 -21 -20v-51
q0 -76 54.5 -130.5t130.5 -54.5h61q113 0 172 119q9 18 29 8l129 -65q17 -9 8 -27z" />
    <glyph glyph-name="trademark" unicode="&#x2122;" horiz-adv-x="836" 
d="M754 758q0 -21 -21 -21h-24q-21 0 -21 21v147q0 25 -18 25q-10 0 -21 -15l-51 -84q-6 -10 -18 -10h-9q-9 0 -16 10l-55 84q-10 15 -21 15q-16 0 -16 -25v-147q0 -21 -21 -21h-24q-21 0 -21 21v344q0 20 21 20h24q13 0 19 -10l96 -166q11 -14 18 -14q8 0 19 14l96 166
q6 10 19 10h24q21 0 21 -20v-344zM319 1079q0 -20 -20 -20h-55q-21 0 -21 -21v-280q0 -21 -20 -21h-25q-20 0 -20 21v280q0 21 -21 21h-55q-21 0 -21 20v23q0 20 21 20h217q20 0 20 -20v-23z" />
    <glyph glyph-name="partialdiff" unicode="&#x2202;" horiz-adv-x="1012" 
d="M946 805q0 -124 -28 -274q-31 -159 -78 -261.5t-84 -151.5q-51 -69 -129 -112q-90 -49 -187 -49q-165 0 -277 119q-110 116 -110 282q0 173 109 313q118 152 284 152q98 0 172 -37q47 -23 148 -102q22 126 22 246q0 162 -65 317q-30 72 -91 122q-64 53 -138 61
q-21 2 -64 2q-58 0 -112 -20q-53 -23 -105 -46l-80 102q140 60 268 60q285 0 447 -287q98 -174 98 -436zM750 612q-70 77 -92 93q-52 38 -123 38q-121 0 -203 -110q-103 -138 -103 -330t95 -256q42 -29 90 -29q37 0 80 19q194 85 256 575z" />
    <glyph glyph-name="product" unicode="&#x220f;" horiz-adv-x="1686" 
d="M1645 -207h-627v47q102 0 145 31q51 37 51 135v1419h-733v-1419q0 -98 53 -135q43 -31 146 -31v-47h-629v47q104 0 146 30q53 37 53 136v1282q0 203 -195 203v47h1583v-47q-192 0 -192 -203v-1282q0 -98 52 -135q44 -31 147 -31v-47z" />
    <glyph glyph-name="summation" unicode="&#x2211;" horiz-adv-x="1460" 
d="M1423 238q-63 -259 -88 -459q-141 22 -157 22h-1031q-19 0 -59 -3t-59 -3l714 815l-710 930q18 -1 106 -9q65 -5 107 -5h1018l12 -326h-41q-11 43 -43 125q-58 109 -270 109h-539l559 -734l-602 -694h760q123 0 182 57q42 42 94 175h47z" />
    <glyph glyph-name="radical" unicode="&#x221a;" horiz-adv-x="1124" 
d="M1055 1868l-307 -1946l-498 1028l-197 -96l-33 68l299 147l404 -825l260 1634z" />
    <glyph glyph-name="infinity" unicode="&#x221e;" horiz-adv-x="1460" 
d="M1411 545q0 -114 -81.5 -202.5t-194.5 -88.5q-171 0 -334 152q-23 23 -70 67q-22 -22 -69 -67q-164 -152 -334 -152q-114 0 -195.5 88.5t-81.5 202.5q0 115 87.5 198.5t203.5 83.5q101 0 212 -73q59 -39 177 -146q119 107 177 146q111 73 212 73q117 0 204 -83.5
t87 -198.5zM1307 530q0 77 -54.5 134t-130.5 57q-78 0 -175 -63q-39 -26 -148 -117q99 -97 141 -127q87 -62 174 -62q75 0 132 51q61 53 61 127zM664 541q-108 89 -150 117q-97 63 -174 63q-76 0 -130 -57t-54 -134q0 -74 60 -127q57 -51 132 -51q87 0 175 62q41 30 141 127
z" />
    <glyph glyph-name="integral" unicode="&#x222b;" horiz-adv-x="561" 
d="M596 1761q0 -39 -32.5 -64.5t-71.5 -25.5q-33 0 -60.5 24.5t-44.5 24.5q-37 0 -37 -57q0 -8 19 -250q20 -269 20 -401v-13q0 -73 -1 -220.5t-1 -221.5q0 -196 -25 -384q-35 -260 -104 -341q-17 -20 -61 -36q-40 -15 -70 -15q-46 0 -84.5 38.5t-38.5 84.5q0 34 28 62
t62 28q30 0 65 -34t46 -34q53 0 53 201v25q0 101 -6 304.5t-6 305.5v358q0 426 53 604q18 60 57 102q45 50 101 50q54 0 96.5 -31t42.5 -84z" />
    <glyph glyph-name="approxequal" unicode="&#x2248;" horiz-adv-x="1124" 
d="M1079 758q-95 -162 -288 -162q-41 0 -76 10l-307 88q-50 15 -91 15q-68 0 -115 -34q-31 -22 -85 -89l-88 55q120 162 295 162q52 0 104 -15l309 -86q22 -6 51 -6q142 0 216 111zM1079 449q-95 -162 -288 -162q-41 0 -76 10l-307 88q-50 14 -91 14q-68 0 -115 -33
q-31 -23 -85 -90l-88 56q120 162 295 162q52 0 104 -15l309 -86q22 -6 51 -6q142 0 216 111z" />
    <glyph glyph-name="approxequal" unicode="&#x22f2;" horiz-adv-x="1124" 
d="M1079 758q-95 -162 -288 -162q-41 0 -76 10l-307 88q-50 15 -91 15q-68 0 -115 -34q-31 -22 -85 -89l-88 55q120 162 295 162q52 0 104 -15l309 -86q22 -6 51 -6q142 0 216 111zM1079 449q-95 -162 -288 -162q-41 0 -76 10l-307 88q-50 14 -91 14q-68 0 -115 -33
q-31 -23 -85 -90l-88 56q120 162 295 162q52 0 104 -15l309 -86q22 -6 51 -6q142 0 216 111z" />
    <glyph glyph-name="notequal" unicode="&#x2260;" horiz-adv-x="1124" 
d="M1106 279h-621l-184 -330l-100 57l151 273h-321v112h385l157 285h-542v112h606l186 336l101 -57l-156 -279h338v-112h-399l-160 -285h559v-112z" />
    <glyph glyph-name="lessequal" unicode="&#x2264;" horiz-adv-x="1124" 
d="M1077 240l-1018 471v127l1018 471v-127l-887 -408l887 -407v-127zM1077 0h-1018v113h1018v-113z" />
    <glyph glyph-name="greaterequal" unicode="&#x2265;" horiz-adv-x="1124" 
d="M1077 711l-1018 -471v127l887 407l-887 408v127l1018 -471v-127zM1077 0h-1018v113h1018v-113z" />
    <glyph glyph-name="lozenge" unicode="&#x25ca;" horiz-adv-x="1012" 
d="M954 772l-397 -772h-123l-397 772l397 754h123zM831 772l-335 643l-336 -643l336 -661z" />
    <glyph glyph-name="apple" unicode="&#xf000;" horiz-adv-x="1618" 
d="M1159 1593q0 -129 -74 -204q-62 -64 -139 -109q-20 -12 -115 -18q-2 12 -2 36q0 36 13 68q37 98 71 141q98 123 246 148v-62zM1501 436q-66 -141 -94 -190q-59 -103 -129 -166q-53 -48 -66 -56q-29 -18 -86 -26q-13 -2 -34 -2q-48 0 -128.5 32.5t-125.5 32.5t-125 -33.5
t-125 -33.5q-207 0 -389 393q-84 181 -84 389q0 50 6 84q74 410 446 410q49 0 88 -10q16 -5 88 -35q52 -21 95 -21t94 21q72 30 88 35q39 10 90 10q165 0 270 -82q22 -17 78 -78q-97 -71 -137 -139q-53 -90 -53 -195q0 -123 67 -211q42 -54 76 -78q16 -12 90 -51z" />
    <glyph glyph-name="fi" unicode="&#xf001;" horiz-adv-x="1014" 
d="M901 1198q0 -48 -32.5 -80.5t-80.5 -32.5q-47 0 -79.5 32.5t-32.5 80.5t32.5 80.5t79.5 32.5q48 0 80.5 -32.5t32.5 -80.5zM881 20q0 -20 -21 -20h-143q-21 0 -21 20v881q0 21 21 21h143q21 0 21 -21v-881zM532 686q0 -20 -20 -20h-143q-21 0 -21 -21v-625q0 -20 -20 -20
h-144q-20 0 -20 20v625q0 21 -21 21h-51q-20 0 -20 20v123q0 20 20 20h51q21 0 21 21v92q0 111 58.5 199t158.5 133q77 35 133 35q18 0 18 -21v-123q0 -17 -16 -20q-75 -13 -121.5 -64t-46.5 -118v-113q0 -21 21 -21h143q20 0 20 -20v-123z" />
    <glyph glyph-name="fl" unicode="&#xf002;" horiz-adv-x="1020" 
d="M887 20q0 -20 -21 -20h-143q-21 0 -21 20v1086q0 20 -20 20h-150q-75 0 -129.5 -54.5t-54.5 -129.5v-92q0 -21 21 -21h143q20 0 20 -20v-123q0 -20 -20 -20h-143q-21 0 -21 -21v-625q0 -20 -20 -20h-144q-20 0 -20 20v625q0 21 -21 21h-51q-20 0 -20 20v123q0 20 20 20
h51q21 0 21 21v72q0 153 107.5 260.5t260.5 107.5h334q21 0 21 -20v-1250z" />
    <glyph glyph-name="_" horiz-adv-x="360" 
 />
  </font>
</defs>
</svg>
