<?xml version="1.0" encoding="UTF-8"?>
<svg width="55px" height="12px" viewBox="0 0 55 12" version="1.1" xmlns="http://www.w3.org/2000/svg" xmlns:xlink="http://www.w3.org/1999/xlink">
    <!-- Generator: Sketch 46.2 (44496) - http://www.bohemiancoding.com/sketch -->
    <title>Page 1</title>
    <desc>Created with Sketch.</desc>
    <defs></defs>
    <g id="UPDATED" stroke="none" stroke-width="1" fill="none" fill-rule="evenodd">
        <g id="MISSION_PAGE" transform="translate(-484.000000, -2610.000000)" fill="#006CB7">
            <g id="Page-1" transform="translate(484.000000, 2610.000000)">
                <g id="Group-3">
                    <path d="M12.8158154,1.1861 L11.9898154,0.4181 C11.6290462,0.0821 10.9290462,0.1181 10.9290462,0.1181 L1.54581538,0.1181 C0.956738462,0.1181 0.704738462,0.4321 0.704738462,0.8991 L0.704738462,2.1521 L0.956738462,2.6981 L10.9732,11.5281 L12.5692,11.5281 C13.1604308,11.5281 13.4135077,11.2951 13.4135077,10.7481 L13.4135077,2.3091 C13.4135077,1.5201 12.8158154,1.1861 12.8158154,1.1861" id="Fill-1"></path>
                </g>
                <g id="Group-6" transform="translate(21.000000, 0.000000)">
                    <path d="M13.0624688,1.1861 L12.1856,0.4181 C11.8058896,0.0821 11.0647131,0.1181 11.0647131,0.1181 L1.13066787,0.1181 C0.505799095,0.1181 0.240115837,0.4321 0.240115837,0.8991 L0.240115837,2.1521 L0.505799095,2.6981 L11.1114643,11.5281 L12.8024869,11.5281 C13.4273557,11.5281 13.6941792,11.2951 13.6941792,10.7481 L13.6941792,2.3091 C13.6930389,1.5201 13.0624688,1.1861 13.0624688,1.1861" id="Fill-4"></path>
                </g>
                <g id="Group-9" transform="translate(41.000000, 0.000000)">
                    <path d="M13.061924,1.1861 L12.1873357,0.4181 C11.8030643,0.0821 11.0641683,0.1181 11.0641683,0.1181 L1.13012308,0.1181 C0.507534842,0.1181 0.238430769,0.4321 0.238430769,0.8991 L0.238430769,2.1521 L0.507534842,2.6981 L11.1109195,11.5281 L12.8042226,11.5281 C13.4268109,11.5281 13.6959149,11.2951 13.6959149,10.7481 L13.6959149,2.3091 C13.6947747,1.5201 13.061924,1.1861 13.061924,1.1861" id="Fill-7"></path>
                </g>
            </g>
        </g>
    </g>
</svg>