<?xml version="1.0" encoding="UTF-8"?>
<svg width="298px" height="100px" viewBox="0 0 298 100" version="1.1" xmlns="http://www.w3.org/2000/svg" xmlns:xlink="http://www.w3.org/1999/xlink">
    <!-- Generator: Sketch 46.2 (44496) - http://www.bohemiancoding.com/sketch -->
    <title>avatar-logo</title>
    <desc>Created with Sketch.</desc>
    <defs></defs>
    <g id="Page-1" stroke="none" stroke-width="1" fill="none" fill-rule="evenodd">
        <g id="avatar-logo" fill-rule="nonzero">
            <g id="Group" transform="translate(187.000000, 0.000000)" fill="#006CB7">
                <path d="M21.351,2.447 L19.938,1.033 C19.321,0.414 18.123,0.481 18.123,0.481 L2.08,0.481 C1.072,0.481 0.642,1.059 0.642,1.92 L0.642,4.226 L1.072,5.232 L18.199,21.492 L20.931,21.492 C21.939,21.492 22.371,21.063 22.371,20.055 L22.371,4.515 C22.371,3.063 21.351,2.447 21.351,2.447" id="Shape"></path>
                <path d="M55.01,2.447 L53.594,1.033 C52.979,0.414 51.782,0.481 51.782,0.481 L35.739,0.481 C34.731,0.481 34.301,1.059 34.301,1.92 L34.301,4.226 L34.731,5.232 L51.858,21.492 L54.59,21.492 C55.598,21.492 56.028,21.063 56.028,20.055 L56.028,4.515 C56.027,3.063 55.01,2.447 55.01,2.447" id="Shape"></path>
                <path d="M88.667,2.447 L87.255,1.033 C86.634,0.414 85.44,0.481 85.44,0.481 L69.397,0.481 C68.392,0.481 67.958,1.059 67.958,1.92 L67.958,4.226 L68.393,5.232 L85.517,21.492 L88.252,21.492 C89.258,21.492 89.69,21.063 89.69,20.055 L89.69,4.515 C89.688,3.063 88.667,2.447 88.667,2.447" id="Shape"></path>
            </g>
            <path d="M59.644,97.227 C59.644,98.055 59.093,98.469 58.127,98.469 L51.107,98.469 C50.28,98.469 49.866,98.192 49.729,97.502 L44.362,78.505 C44.22,77.817 43.809,77.678 42.985,77.678 L17.1,77.678 C16.271,77.678 15.86,77.817 15.724,78.505 L10.353,97.502 C10.217,98.191 9.665,98.469 8.975,98.469 L1.954,98.469 C0.99,98.469 0.44,98.055 0.44,97.227 C0.44,97.092 0.577,96.952 0.577,96.678 L26.049,12.831 C26.324,12.142 26.599,11.866 27.427,11.866 L32.657,11.866 C33.343,11.866 33.762,12.142 34.034,12.831 L59.505,96.678 C59.505,96.951 59.644,97.092 59.644,97.227 L59.644,97.227 Z M31.969,32.657 C31.83,32.106 31.281,30.316 30.456,27.29 L29.903,27.29 C29.352,29.491 28.803,31.28 28.389,32.657 L18.614,68.042 C18.614,68.314 18.476,68.456 18.476,68.591 C18.476,69.419 19.026,69.832 19.989,69.832 L39.816,69.832 C40.779,69.832 41.33,69.419 41.33,68.591 C41.33,68.456 41.193,68.179 41.193,68.042 L31.969,32.657 Z" id="Shape" fill="#86888A"></path>
            <path d="M87.182,97.641 C86.771,98.053 86.358,98.329 85.944,98.467 L80.163,98.467 C79.613,98.467 79.199,98.194 78.922,97.641 L55.518,39.54 C55.379,39.265 55.244,38.991 55.244,38.716 C55.244,38.028 55.793,37.616 56.757,37.616 L63.502,37.616 C63.913,37.616 64.333,38.028 64.743,38.439 L82.78,84.424 L83.329,84.424 L101.229,38.439 C101.364,37.889 101.917,37.616 102.467,37.616 L109.35,37.616 C110.315,37.616 110.868,38.028 110.868,38.716 C110.868,38.991 110.728,39.265 110.59,39.54 L87.182,97.641 Z" id="Shape" fill="#86888A"></path>
            <path d="M158.364,98.469 L153.268,98.469 C152.307,98.469 151.891,98.055 151.891,97.092 L151.891,91.17 C151.891,90.207 151.34,89.518 150.793,89.518 C149.413,89.518 147.072,92.547 142.668,96.127 C140.877,97.502 138.122,98.469 136.337,98.469 L130.828,98.469 C120.5,98.469 113.477,91.582 113.477,82.362 L113.477,81.532 C113.477,72.31 120.499,65.562 130.828,65.562 L149,65.562 C149.963,65.562 150.377,65.15 150.377,64.189 L150.24,58.681 C150.102,50.556 144.046,44.359 135.645,44.359 C132.205,44.359 128.9,45.599 126.42,47.941 C123.528,50.556 122.563,52.621 121.605,52.621 C121.463,52.621 121.188,52.621 120.914,52.484 L115.133,49.455 C114.58,49.18 114.305,48.902 114.305,48.49 C114.305,44.222 122.564,36.513 135.646,36.513 C150.377,36.513 159.741,45.324 159.741,58.681 L159.741,97.093 C159.741,98.055 159.327,98.469 158.364,98.469 L158.364,98.469 Z M150.378,73.41 C150.378,72.585 149.828,72.034 149.001,72.034 L130.829,72.034 C126.285,72.034 122.706,75.612 122.706,80.157 L122.706,82.362 C122.706,86.905 126.422,90.62 130.829,90.62 L136.338,90.62 C141.842,90.62 146.524,86.63 150.241,78.781 L150.378,75.888 L150.378,73.41 Z" id="Shape" fill="#86888A"></path>
            <path d="M197.191,99.706 C186.866,99.706 176.539,90.48 176.539,77.264 L176.539,46.838 C176.539,45.873 176.128,45.461 175.161,45.461 L167.178,45.461 C166.212,45.461 165.801,45.048 165.801,44.084 L165.801,41.469 L181.359,25.084 L182.323,24.672 L184.527,24.672 C185.353,24.672 185.9,25.084 185.9,26.047 L185.9,36.236 C185.9,37.199 186.314,37.615 187.277,37.615 L197.33,37.615 C198.291,37.615 198.708,38.027 198.708,38.991 L198.708,44.084 C198.708,45.048 198.291,45.461 197.33,45.461 L187.277,45.461 C186.314,45.461 185.9,45.873 185.9,46.838 L185.9,77.264 C185.9,80.568 186.867,83.459 188.927,86.353 C190.443,88.415 193.611,89.519 197.605,91.583 C198.291,91.856 198.708,92.134 198.708,92.958 L198.708,98.329 C198.707,99.294 198.29,99.706 197.191,99.706" id="Shape" fill="#86888A"></path>
            <path d="M251.715,98.469 L246.619,98.469 C245.657,98.469 245.241,98.055 245.241,97.092 L245.241,91.17 C245.241,90.207 244.688,89.518 244.145,89.518 C242.763,89.518 240.42,92.547 236.019,96.127 C234.231,97.502 231.475,98.469 229.685,98.469 L224.178,98.469 C213.851,98.469 206.83,91.582 206.83,82.362 L206.83,81.532 C206.83,72.31 213.851,65.562 224.178,65.562 L242.353,65.562 C243.317,65.562 243.727,65.15 243.727,64.189 L243.592,58.681 C243.452,50.556 237.393,44.359 228.999,44.359 C225.553,44.359 222.248,45.599 219.771,47.941 C216.879,50.556 215.917,52.621 214.953,52.621 C214.814,52.621 214.539,52.621 214.262,52.484 L208.481,49.455 C207.93,49.18 207.654,48.902 207.654,48.49 C207.654,44.222 215.918,36.513 229,36.513 C243.728,36.513 253.092,45.324 253.092,58.681 L253.092,97.093 C253.092,98.055 252.681,98.469 251.715,98.469 L251.715,98.469 Z M243.728,73.41 C243.728,72.585 243.175,72.034 242.354,72.034 L224.179,72.034 C219.636,72.034 216.056,75.612 216.056,80.157 L216.056,82.362 C216.056,86.905 219.773,90.62 224.179,90.62 L229.686,90.62 C235.19,90.62 239.874,86.63 243.593,78.781 L243.728,75.888 L243.728,73.41 L243.728,73.41 Z" id="Shape" fill="#86888A"></path>
            <path d="M296.189,47.389 C295.085,47.389 293.297,46.977 290.958,46.977 C282.558,46.977 276.362,53.309 276.362,61.432 L276.362,97.088 C276.362,98.053 275.949,98.469 274.985,98.469 L268.375,98.469 C267.415,98.469 266.997,98.053 266.997,97.088 L266.997,38.991 C266.997,38.028 267.415,37.616 268.375,37.616 L273.472,37.616 C274.435,37.616 274.849,38.028 274.849,38.991 L274.849,45.874 C274.849,46.837 275.398,47.39 275.95,47.39 C277.463,47.39 279.668,43.949 284.624,39.952 C286.139,38.714 289.031,37.616 290.959,37.616 L296.054,37.616 C297.013,37.616 297.426,38.028 297.426,38.991 L297.426,46.012 C297.425,47.113 297.149,47.389 296.189,47.389" id="Shape" fill="#86888A"></path>
        </g>
    </g>
</svg>